<svg width="490" height="700" viewBox="0 0 490 700" fill="none" xmlns="http://www.w3.org/2000/svg">
<rect opacity="0.01" width="490" height="700" fill="white"/>
<path d="M243.605 251.685C243.471 251.92 243.382 252.178 243.344 252.445C242.755 256.205 241.585 262.995 240.855 266.705C239.465 273.665 238.205 282.495 234.295 288.425C233.145 290.346 231.515 291.935 229.565 293.035C227.17 294.054 224.438 293.899 222.175 292.615C220.094 291.115 219.525 288.315 219.125 285.785C217.505 275.715 216.405 266.305 214.975 256.465C214.965 256.435 214.485 252.935 214.165 250.585C214.138 250.362 214.074 250.146 213.975 249.945C223.355 246.085 226.935 231.245 227.074 218.375C229.066 219.398 231.242 220.01 233.475 220.175C234.853 220.314 236.239 220.377 237.625 220.365C235.795 229.565 234.905 241.075 239.875 248.045C240.838 249.515 242.111 250.758 243.605 251.685Z" fill="white"/>
<path fill-rule="evenodd" clip-rule="evenodd" d="M221.882 293.023C223.208 293.844 224.747 294.255 226.306 294.205C227.506 294.23 228.696 293.984 229.788 293.484C231.825 292.356 233.524 290.706 234.711 288.703C238.16 283.472 239.561 276.126 240.795 269.645L240.835 269.437C241.006 268.538 241.174 267.658 241.345 266.804C242.081 263.059 243.25 256.273 243.839 252.518C243.867 252.312 243.935 252.114 244.039 251.935L244.277 251.516L243.868 251.263C242.43 250.371 241.206 249.174 240.281 247.757C236.34 242.231 235.611 233.048 238.114 220.465L238.235 219.857L237.616 219.867C236.248 219.88 234.881 219.817 233.52 219.679C231.354 219.519 229.242 218.927 227.31 217.937L226.582 217.547L226.573 218.372C226.438 230.925 223.006 245.69 213.783 249.485L213.287 249.689L213.526 250.17C213.6 250.323 213.648 250.486 213.669 250.655C214.409 256.102 214.478 256.545 214.479 256.545V256.543C215.029 260.323 215.529 264.04 216.03 267.756L216.037 267.81C216.822 273.646 217.635 279.681 218.63 285.866C219.065 288.615 219.675 291.431 221.882 293.023ZM214.66 250.522C214.647 250.42 214.628 250.319 214.603 250.219C223.752 246.055 227.287 231.677 227.561 219.179C229.416 220.009 231.4 220.515 233.427 220.675C234.746 220.8 235.927 220.864 237.017 220.87C234.6 233.429 235.424 242.668 239.456 248.322C240.378 249.73 241.573 250.939 242.972 251.875C242.915 252.035 242.874 252.201 242.85 252.37C242.264 256.109 241.098 262.877 240.364 266.609C240.197 267.45 240.031 268.318 239.861 269.204L239.812 269.458C238.596 275.847 237.216 283.089 233.877 288.151C232.784 290.007 231.218 291.539 229.339 292.591C227.11 293.519 224.579 293.379 222.466 292.212C220.571 290.845 220.02 288.25 219.617 285.708C218.625 279.535 217.812 273.507 217.028 267.677L216.989 267.388C216.498 263.746 216.007 260.101 215.466 256.378C215.437 256.212 214.988 252.937 214.66 250.522Z" fill="black"/>
<path d="M243.294 670.619C242.504 674.379 237.614 675.269 234.655 677.709C231.184 680.559 231.274 682.269 230.564 688.049C230.155 691.339 230.524 695.479 227.544 696.939C225.574 698.009 220.004 697.949 218.294 697.619C216.473 697.48 215.082 695.935 215.135 694.109C215.045 691.983 216.029 689.954 217.754 688.709C221.104 686.339 221.094 682.659 221.084 678.999C221.05 677.69 221.097 676.381 221.224 675.079C222.294 666.419 224.604 661.849 224.964 654.369C225.564 645.359 226.078 636.392 226.504 627.469L240.155 627.699C238.484 637.459 236.925 646.949 235.474 656.019C235.387 656.613 235.421 657.218 235.574 657.799C236.165 660.149 238.435 662.209 239.994 663.699C241.925 665.549 243.854 668.009 243.294 670.619Z" fill="white"/>
<path fill-rule="evenodd" clip-rule="evenodd" d="M218.198 698.11C219.295 698.274 220.403 698.348 221.512 698.33C223.785 698.33 226.47 698.091 227.763 697.388C230.428 696.082 230.67 692.878 230.883 690.051L230.885 690.018C230.934 689.368 230.983 688.724 231.06 688.109L231.227 686.716L231.227 686.714C231.784 681.998 231.953 680.574 234.972 678.095C236.017 677.302 237.137 676.613 238.316 676.037C240.723 674.761 243.211 673.44 243.782 670.723C244.272 668.441 243.145 666.026 240.339 663.338L240.083 663.094C238.606 661.687 236.581 659.761 236.058 657.674C235.921 657.16 235.891 656.624 235.968 656.098C237.56 646.138 239.091 636.876 240.647 627.783L240.744 627.209L226.026 626.961L226.004 627.444C225.568 636.484 225.051 645.532 224.465 654.345C224.224 657.945 223.624 661.513 222.674 664.994C221.822 668.293 221.172 671.641 220.728 675.02C220.596 676.342 220.547 677.671 220.583 679C220.594 682.642 220.604 686.08 217.464 688.301C215.602 689.647 214.539 691.837 214.635 694.133C214.586 696.192 216.147 697.934 218.198 698.11ZM225.463 654.402C226.039 645.749 226.549 636.861 226.979 627.977L239.563 628.189C238.04 637.101 236.539 646.186 234.979 655.945C234.883 656.604 234.92 657.276 235.088 657.921C235.682 660.284 237.826 662.326 239.392 663.817L239.394 663.818L239.648 664.06C242.183 666.489 243.215 668.601 242.804 670.515V670.517C242.329 672.776 240.152 673.932 237.848 675.154C236.609 675.759 235.432 676.486 234.336 677.322C231.006 680.057 230.796 681.837 230.234 686.596L230.233 686.598L230.067 687.987C229.987 688.627 229.937 689.298 229.886 689.976C229.684 692.66 229.474 695.436 227.305 696.499C225.493 697.483 220.048 697.447 218.389 697.129C216.798 697.03 215.576 695.681 215.634 694.088C215.551 692.132 216.456 690.265 218.042 689.117C221.605 686.597 221.594 682.735 221.583 678.997L221.583 678.995C221.548 677.709 221.594 676.421 221.72 675.141C222.161 671.8 222.804 668.49 223.647 665.228C224.612 661.689 225.221 658.062 225.463 654.402Z" fill="black"/>
<path d="M227.714 549.478C227.654 550.198 227.334 552.018 226.144 552.678C225.204 553.188 222.944 553.468 222.264 550.198C221.494 546.528 219.304 541.188 218.084 537.638C217.784 536.778 217.344 535.728 216.814 534.588C215.005 530.695 212.86 526.968 210.404 523.448C207.514 520.208 184.284 508.108 179.744 505.678L186.414 493.188C194.814 499.818 203.774 506.808 212.904 514.978C213.664 515.629 214.601 516.039 215.594 516.157C218.444 516.637 222.656 515.18 225.026 516.72C229.996 519.92 225.534 527.537 225.344 530.618C224.974 536.568 228.214 543.518 227.714 549.478Z" fill="white"/>
<path fill-rule="evenodd" clip-rule="evenodd" d="M223.713 553.231C224.083 553.402 224.486 553.489 224.894 553.487C225.414 553.485 225.926 553.357 226.386 553.112C227.907 552.268 228.174 549.969 228.212 549.517C228.473 546.409 227.739 543.029 227.029 539.76L227.026 539.75C226.232 536.781 225.834 533.719 225.843 530.646C225.994 529.593 226.25 528.558 226.607 527.556L226.607 527.556C227.734 523.887 229.278 518.86 225.298 516.299C223.714 515.27 221.49 515.45 219.34 515.625L219.325 515.626C218.116 515.779 216.892 515.792 215.68 515.663C214.777 515.562 213.926 515.192 213.236 514.602C204.77 507.026 196.547 500.54 188.594 494.268L188.581 494.258L186.254 492.422L179.066 505.88L179.507 506.115C180 506.38 180.714 506.758 181.598 507.226L181.631 507.243C188.745 511.013 207.518 520.961 210.004 523.746C212.438 527.239 214.565 530.936 216.36 534.796C216.891 535.937 217.323 536.975 217.61 537.797C217.939 538.753 218.338 539.839 218.76 540.986L218.805 541.108C219.991 544.104 220.983 547.174 221.774 550.297C221.906 551.532 222.629 552.626 223.713 553.231ZM182.065 506.342C181.419 506 180.864 505.705 180.42 505.469L186.572 493.947L187.962 495.043L187.995 495.069C195.929 501.327 204.134 507.798 212.561 515.338C213.39 516.062 214.418 516.519 215.511 516.648C216.806 516.793 218.114 516.784 219.407 516.623C221.397 516.46 223.453 516.292 224.755 517.139C228.1 519.292 226.742 523.711 225.651 527.262C225.268 528.338 224.997 529.452 224.845 530.584C224.826 533.75 225.231 536.904 226.049 539.963L226.05 539.969C226.745 543.167 227.464 546.473 227.216 549.433C227.197 549.655 227.001 551.627 225.905 552.235C225.358 552.531 224.707 552.563 224.134 552.324C223.346 551.842 222.833 551.014 222.753 550.093C221.953 546.921 220.947 543.804 219.743 540.763C219.307 539.577 218.895 538.456 218.555 537.47C218.257 536.614 217.812 535.544 217.267 534.374C215.435 530.439 213.263 526.67 210.776 523.112C208.44 520.493 194.206 512.774 182.065 506.342Z" fill="black"/>
<path d="M220.993 243.84C223.3 246.334 227.086 247.226 230.374 247.3C232.898 247.357 236.35 247.033 238.127 244.981C238.546 244.496 237.842 243.786 237.419 244.273C235.823 246.118 232.632 246.351 230.374 246.3C227.376 246.232 223.807 245.411 221.7 243.133C221.262 242.66 220.556 243.368 220.993 243.84Z" fill="black"/>
<path d="M150.429 74.5158C141.095 75.0998 131.816 72.7103 123.925 67.6906C118.646 64.3131 114.064 59.7917 108.345 57.2287C101.327 54.0836 93.0904 54.2295 85.8237 56.747C78.4552 59.194 71.9211 63.6592 66.9639 69.6349C64.4586 72.5199 59.4419 80.482 61.5296 85.1459L85.0819 78.1889C86.4449 77.6653 87.9146 77.48 89.3649 77.6489C90.7513 78.0298 92.0043 78.7889 92.9839 79.8414C99.5514 86.1675 102.55 95.3415 100.985 104.325C100.581 106.52 99.8217 108.79 98.1087 110.221C96.9808 111.054 95.7138 111.68 94.367 112.069L71.7657 120.067C72.2992 121.496 73.1947 122.762 74.3645 123.741C86.0205 132.14 107.099 133.574 118.894 123.325C122.657 120.055 126.072 116.416 129.768 113.071C133.464 109.726 137.815 106.792 142.756 106.134L321.278 98.301C330.601 97.5583 339.92 99.7895 347.895 104.674C353.231 107.961 357.889 112.404 363.651 114.869C370.721 117.895 378.954 117.609 386.177 114.968C393.502 112.396 399.96 107.82 404.814 101.761C407.27 98.8337 412.151 90.7874 409.984 86.1597L386.554 93.5164C385.2 94.0632 383.733 94.2735 382.28 94.1293C380.888 93.772 379.622 93.0343 378.625 91.9987C371.95 85.7853 368.797 76.6636 370.208 67.6547C370.575 65.4528 371.295 63.1708 372.984 61.7104C374.097 60.8586 375.353 60.2115 376.693 59.7994L399.155 51.418C398.598 49.9982 397.681 48.7477 396.494 47.7888C384.697 39.5894 363.598 38.5144 351.979 48.9625C348.272 52.2955 344.919 55.9928 341.28 59.4001C337.642 62.8075 333.342 65.8151 328.412 66.5574L150.429 74.5158Z" fill="white"/>
<path fill-rule="evenodd" clip-rule="evenodd" d="M74.0717 124.144C80.058 128.457 88.6879 131.035 97.3188 131.034C105.328 131.033 113.336 128.813 119.221 123.699C121.319 121.876 123.338 119.911 125.291 118.01L125.365 117.938C126.902 116.443 128.49 114.898 130.104 113.439C134.565 109.4 138.725 107.172 142.777 106.63L321.319 98.7965C330.536 98.0556 339.75 100.262 347.631 105.097C349.595 106.306 351.504 107.702 353.351 109.052L353.369 109.065C356.483 111.526 359.866 113.627 363.454 115.326C370.243 118.232 378.589 118.272 386.348 115.435C393.757 112.835 400.288 108.208 405.197 102.079C407.876 98.8863 412.682 90.7408 410.436 85.9444L410.25 85.5484L386.404 93.0362C385.126 93.5533 383.743 93.7583 382.371 93.6344C381.071 93.2905 379.891 92.5959 378.96 91.6266C372.428 85.5161 369.337 76.5735 370.7 67.7335C371.151 65.0304 371.98 63.2355 373.31 62.0851C374.38 61.2739 375.584 60.6575 376.868 60.2643L399.716 51.7389L399.648 51.3316C399.067 49.7776 398.075 48.4102 396.779 47.3751C385.099 39.2569 363.69 37.7565 351.644 48.588C349.575 50.4484 347.586 52.4498 345.664 54.3854L345.64 54.4099C344.115 55.9448 342.54 57.5311 340.937 59.0324C336.545 63.1461 332.423 65.4445 328.389 66.0548L150.406 74.0133L150.396 74.0138C141.168 74.595 131.993 72.2324 124.194 67.2662C122.247 66.0211 120.358 64.5904 118.531 63.2062L118.525 63.2013C115.453 60.6869 112.106 58.5292 108.548 56.7697C101.809 53.7482 93.4672 53.5665 85.6586 56.2711C78.2063 58.7444 71.5978 63.2599 66.5854 69.3038C63.852 72.4508 58.9077 80.5128 61.0727 85.3468L61.2514 85.7462L85.2231 78.6657C86.5091 78.1702 87.8948 77.9887 89.2651 78.1364C90.5582 78.5019 91.7256 79.2167 92.6391 80.2023C99.0666 86.4221 102.006 95.4157 100.494 104.231C99.9955 106.927 99.1361 108.708 97.7875 109.835C96.7041 110.628 95.4892 111.224 94.1986 111.595L71.2094 119.731L71.2709 120.139C71.8252 121.702 72.7932 123.087 74.0717 124.144ZM74.6557 123.332C73.7052 122.513 72.9364 121.504 72.3988 120.37L94.5326 112.537C95.9356 112.128 97.2546 111.473 98.4281 110.602C99.9652 109.317 100.934 107.351 101.477 104.413C103.047 95.2642 99.9967 85.9305 93.3266 79.4752C92.2805 78.3563 90.9418 77.5528 89.4623 77.1559C87.9325 76.9714 86.3807 77.1604 84.9398 77.7067L61.8266 84.5333C60.3266 80.1212 64.9232 72.7433 67.3412 69.9596C72.2405 64.0497 78.7009 59.6344 85.9867 57.2164C93.556 54.5944 101.631 54.7653 108.14 57.6818C111.628 59.4129 114.909 61.532 117.921 63.9987L117.962 64.0294C119.794 65.4169 121.687 66.8503 123.655 68.109C131.633 73.1838 141.014 75.6005 150.451 75.0123L328.486 67.0489C332.78 66.4025 337.076 64.0187 341.621 59.7618C343.229 58.2557 344.804 56.6702 346.329 55.1355L346.374 55.09C348.287 53.1642 350.264 51.173 352.312 49.3312C361.7 40.8898 382.035 38.3463 396.208 48.1964C397.173 48.9992 397.959 49.9948 398.516 51.1193L376.518 59.3278C375.122 59.7609 373.815 60.4384 372.656 61.3288C371.161 62.6222 370.198 64.6637 369.713 67.5695C368.299 76.7435 371.508 86.0239 378.287 92.3654C379.352 93.4654 380.704 94.2456 382.189 94.6178C383.722 94.7754 385.271 94.5601 386.703 93.9904L409.696 86.7707C411.27 91.1564 406.8 98.6124 404.431 101.437C399.632 107.429 393.248 111.953 386.004 114.495C378.481 117.246 370.406 117.214 363.846 114.407C360.33 112.735 357.013 110.672 353.958 108.257C352.091 106.892 350.16 105.48 348.157 104.245C340.097 99.3063 330.679 97.0492 321.256 97.7985L142.689 105.635C138.385 106.208 134.049 108.518 129.432 112.697C127.781 114.193 126.161 115.769 124.594 117.293L124.573 117.314C122.636 119.199 120.634 121.146 118.565 122.944C109.035 131.226 88.6577 133.422 74.6557 123.332Z" fill="black"/>
<path fill-rule="evenodd" clip-rule="evenodd" d="M142.612 90.309C142.724 94.7964 146.393 98.3766 150.882 98.3794C151.022 98.3794 151.164 98.3755 151.306 98.3687L324.547 89.5992C329.112 89.3678 332.626 85.479 332.395 80.9134C332.163 76.3477 328.275 72.8341 323.709 73.0655L150.468 81.835C145.985 82.0624 142.5 85.8216 142.612 90.309ZM323.76 74.0645C323.885 74.058 324.009 74.0547 324.132 74.0547C328.079 74.0565 331.305 77.2042 331.403 81.1499C331.502 85.0956 328.438 88.4008 324.496 88.6002L151.255 97.3697C147.241 97.573 143.822 94.4839 143.619 90.47C143.415 86.4561 146.505 83.0374 150.518 82.834L323.76 74.0645Z" fill="black"/>
<path d="M252.841 115.023C250.23 111.819 247.005 109.167 243.357 107.224C241.769 106.41 240.559 105.985 238.634 104.944C237.298 104.28 236.164 103.271 235.348 102.022L238.942 101.865C239.585 102.349 240.284 102.754 241.023 103.071C241.504 103.277 241.949 102.767 241.603 102.375C238.812 99.2213 232.58 94.1291 229.407 90.6852C229.147 90.4037 227.91 88.9724 228.81 88.2577C229.43 87.7647 230.165 88.4397 230.334 88.6012C232.43 90.5997 234.42 92.0053 236.576 93.9389C236.749 94.0946 237.596 94.9457 238.125 94.6441C238.544 94.4046 238.087 93.9015 238.087 93.9015C235.769 91.5245 233.44 89.9083 231.201 87.4571C230.615 86.8167 228.446 84.6654 229.745 83.7107C230.149 83.414 230.732 83.7468 231.055 84.0617L237.243 90.0837C238.152 90.9684 239.984 92.5398 240.299 92.2978C240.59 92.0375 240.382 91.6918 240.118 91.3279C237.341 88.3431 235.491 86.6473 232.976 83.7568C232.426 83.1246 231.79 82.1359 232.402 81.5857C233.37 80.7995 235.218 82.8638 236.042 83.7759C237.706 85.617 238.657 86.9964 240.687 88.9024C241.267 89.4469 242.402 90.4717 242.704 90.156C242.704 90.156 244.202 90.1915 237.915 83.7492C237.146 82.9614 236.593 82.0938 236.859 81.8413C237.342 80.831 239.064 81.4663 240.567 83.2132L243.913 87.033C245.837 89.1123 248.217 92.2696 250.155 94.7391C252.533 97.7703 255.379 101.957 255.676 107.442C255.862 108.576 256.477 109.594 257.394 110.285" fill="white"/>
<path d="M252.5 115.284C249.928 112.129 246.753 109.519 243.161 107.607C242.49 107.264 241.888 106.99 241.271 106.709C240.423 106.325 239.547 105.927 238.429 105.322C237.022 104.609 235.827 103.54 234.965 102.22L234.657 101.623L239.058 101.43L239.172 101.503C239.444 101.676 239.641 101.81 239.81 101.926C240.237 102.234 240.701 102.486 241.191 102.677C241.268 102.709 241.297 102.667 241.297 102.666C239.865 101.06 237.484 98.8925 235.182 96.7963C232.953 94.767 230.648 92.6684 229.09 90.9765C228.495 90.4058 228.129 89.6377 228.061 88.8163C228.086 88.4632 228.261 88.1379 228.542 87.9218C229.123 87.4594 229.904 87.5981 230.63 88.2914C231.799 89.4052 232.914 90.3173 234.096 91.2831C234.989 92.0136 235.913 92.769 236.862 93.6196C237.122 93.9185 237.455 94.1444 237.828 94.2748C237.81 94.244 237.789 94.2149 237.766 94.1879C236.729 93.1259 235.659 92.1913 234.624 91.287C233.31 90.1798 232.06 88.9978 230.882 87.747L230.741 87.5957C229.736 86.5166 228.818 85.3779 228.914 84.3579C228.951 83.9584 229.162 83.5953 229.49 83.3652C230.124 83.0298 230.907 83.1933 231.354 83.7544L237.542 89.7764C238.259 90.4847 239.034 91.131 239.859 91.7085C239.833 91.6709 239.804 91.6279 239.769 91.5806C238.701 90.4375 237.747 89.4575 236.838 88.5254C235.469 87.1187 234.174 85.7905 232.65 84.0391C231.642 82.8789 231.445 81.8687 232.113 81.2671C233.399 80.2158 235.312 82.3266 236.336 83.4614C236.924 84.1118 237.406 84.6826 237.875 85.2387C238.838 86.4202 239.876 87.5394 240.98 88.5898C241.396 89.011 241.857 89.3847 242.355 89.7041C242.129 89.1928 241.22 87.7519 237.606 84.0493C237.228 83.6611 236.348 82.685 236.36 82.0088C236.36 81.861 236.409 81.7173 236.499 81.6001C236.689 81.2362 237.048 80.9905 237.456 80.9443C238.398 80.8125 239.728 81.5796 240.892 82.9341L244.235 86.751C245.79 88.4311 247.666 90.8442 249.32 92.9731L250.491 94.4746C252.947 97.6045 255.805 101.904 256.105 107.419C256.285 108.406 256.82 109.293 257.607 109.914L257.178 110.658C256.132 109.896 255.437 108.746 255.247 107.466C254.962 102.221 252.342 98.2236 249.815 95.0049L248.643 93.5005C246.998 91.3847 245.135 88.9873 243.597 87.3252L240.243 83.4966C239.152 82.228 238.093 81.73 237.569 81.7954C237.426 81.8056 237.301 81.8952 237.245 82.0273L237.226 82.0669C237.455 82.5936 237.795 83.0651 238.222 83.4497C243.729 89.0932 243.381 89.8916 243.232 90.2329C243.17 90.3792 243.05 90.4934 242.9 90.5488C242.385 90.9018 241.546 90.2978 240.393 89.2158C239.264 88.1433 238.204 87 237.22 85.793C236.756 85.2436 236.279 84.6802 235.724 84.064C234.115 82.2847 233.091 81.5732 232.671 81.9194C232.376 82.1865 232.821 82.9272 233.299 83.4756C234.807 85.2085 236.092 86.5288 237.453 87.9263C238.366 88.8628 239.325 89.8472 240.431 91.0356C240.681 91.375 241.19 92.0762 240.584 92.6182C240.379 92.7768 239.83 93.2022 236.942 90.3916L230.755 84.3696C230.509 84.1299 230.145 83.9492 229.998 84.0571C229.867 84.1418 229.782 84.2824 229.769 84.438C229.696 85.2148 230.912 86.519 231.37 87.0097L231.517 87.1679C232.672 88.3955 233.898 89.5548 235.189 90.6401C236.236 91.5556 237.32 92.5019 238.394 93.602C238.621 93.837 238.74 94.1567 238.721 94.4834C238.682 94.7111 238.54 94.9082 238.337 95.0175C237.572 95.4531 236.671 94.6147 236.331 94.2988C235.355 93.4214 234.439 92.6723 233.552 91.9477C232.41 91.0146 231.23 90.0498 230.037 88.9126C229.852 88.7343 229.388 88.3476 229.076 88.5942C228.982 88.6613 228.923 88.7677 228.917 88.8833C229.009 89.4628 229.292 89.9949 229.722 90.395C231.255 92.0586 233.545 94.1445 235.761 96.1616C238.186 98.3701 240.478 100.457 241.923 102.091C242.202 102.388 242.231 102.84 241.992 103.17C241.731 103.526 241.255 103.65 240.854 103.466C240.311 103.253 239.797 102.973 239.323 102.634C239.186 102.54 239.029 102.433 238.824 102.3L236.117 102.419C236.881 103.299 237.804 104.028 238.837 104.566C239.929 105.157 240.791 105.549 241.625 105.928C242.255 106.214 242.869 106.493 243.552 106.842C247.257 108.816 250.53 111.508 253.182 114.762L252.5 115.284Z" fill="black"/>
<path d="M209.658 117.331C211.61 113.9 214.258 110.915 217.431 108.566C218.862 107.499 219.984 106.878 221.709 105.531C222.628 104.812 223.97 103.844 224.369 102.622L220.93 102.696C220.357 103.232 219.723 103.697 219.04 104.082C218.6 104.365 218.076 103.937 218.353 103.493C220.578 99.9178 225.875 93.8578 228.429 89.9331C228.638 89.6122 229.62 87.9946 228.613 87.4399C227.919 87.0574 227.307 87.8455 227.167 88.0329C225.433 90.3529 223.706 92.0705 221.903 94.3365C221.758 94.519 221.064 95.4993 220.493 95.2901C220.04 95.1239 220.406 94.5516 220.406 94.5516C222.296 91.8214 224.323 89.8395 226.122 87.0492C226.592 86.3202 228.373 83.8373 226.932 83.1127C226.485 82.8874 225.965 83.3127 225.699 83.6771L220.602 90.6466C219.853 91.6705 218.309 93.5254 217.958 93.3392C217.628 93.131 217.776 92.7555 217.975 92.3526C220.215 88.9466 221.757 86.9661 223.755 83.6967C224.192 82.9817 224.653 81.9009 223.959 81.4603C222.873 80.8466 221.395 83.1901 220.734 84.2269C219.401 86.3196 218.693 87.8383 217.009 90.056C216.528 90.6896 215.58 91.8892 215.23 91.6283C215.23 91.6283 213.759 91.913 218.883 84.5128C219.51 83.6078 219.911 82.6601 219.607 82.4555C218.962 81.5398 217.37 82.4535 216.179 84.4265L213.517 88.7507C211.966 91.1216 210.146 94.6315 208.647 97.3896C206.807 100.775 204.699 105.378 205.321 110.836C205.327 111.984 204.89 113.09 204.102 113.925" fill="white"/>
<path fill-rule="evenodd" clip-rule="evenodd" d="M209.278 117.129L210.038 117.53C211.962 114.156 214.568 111.22 217.688 108.908C218.293 108.458 218.841 108.088 219.404 107.707C220.175 107.187 220.973 106.649 221.974 105.867L222.181 105.706C223.307 104.986 224.208 103.963 224.777 102.753L224.966 102.177L220.762 102.268L220.644 102.375C220.215 102.787 219.74 103.148 219.229 103.451L218.809 103.719C218.738 103.765 218.702 103.727 218.718 103.718C219.845 101.908 221.826 99.3794 223.742 96.9329L223.75 96.9226C225.61 94.5491 227.534 92.0945 228.789 90.1653C229.281 89.5042 229.514 88.6857 229.444 87.8645C229.36 87.5201 229.133 87.228 228.82 87.0618C228.17 86.7034 227.424 86.9704 226.823 87.7737C225.856 89.0686 224.907 90.1545 223.903 91.3039C223.145 92.1726 222.36 93.0705 221.521 94.1277C221.088 94.6902 220.84 94.8386 220.723 94.8747C220.733 94.8467 220.746 94.8196 220.761 94.7937C221.615 93.5578 222.515 92.4573 223.385 91.3928C224.496 90.0828 225.53 88.7096 226.482 87.28L226.595 87.1096C227.408 85.8777 228.124 84.6008 227.859 83.6101C227.756 83.2224 227.488 82.8996 227.126 82.7273C226.445 82.5006 225.699 82.7926 225.353 83.4216L220.256 90.3909C219.666 91.211 219.008 91.9792 218.287 92.6872C218.301 92.6565 218.316 92.6228 218.334 92.5862C219.222 91.237 219.999 90.1125 220.739 89.0422L220.777 88.988C221.879 87.3918 222.925 85.878 224.121 83.9187C224.924 82.6062 224.948 81.5774 224.17 81.0847C222.747 80.2761 221.214 82.6745 220.372 83.9939C219.92 84.7038 219.539 85.3484 219.168 85.9763C218.416 87.3003 217.581 88.5754 216.668 89.7942C216.328 90.2798 215.936 90.7261 215.497 91.1247C215.634 90.5852 216.287 89.0144 219.236 84.7551C219.546 84.3093 220.251 83.1999 220.125 82.5354C220.101 82.3895 220.029 82.2558 219.921 82.155C219.674 81.8268 219.278 81.6439 218.868 81.6677C217.906 81.7014 216.735 82.6726 215.814 84.1989L213.158 88.5134C211.899 90.4387 210.452 93.1296 209.176 95.5036L208.271 97.1823C206.37 100.677 204.271 105.394 204.895 110.882C204.888 111.886 204.508 112.852 203.828 113.592L204.375 114.254C205.28 113.329 205.775 112.079 205.748 110.785C205.154 105.566 207.071 101.187 209.024 97.5925L209.933 95.9104C211.2 93.5515 212.638 90.8777 213.883 88.9734L216.547 84.6458C217.41 83.2161 218.371 82.5447 218.898 82.5261C219.041 82.514 219.178 82.581 219.256 82.7005L219.282 82.7371C219.144 83.2944 218.888 83.8157 218.531 84.2659C214.042 90.7483 214.518 91.4783 214.721 91.7898C214.807 91.9237 214.945 92.0163 215.102 92.0462C215.676 92.3079 216.396 91.5711 217.352 90.3137C218.285 89.0688 219.139 87.7659 219.907 86.4129L219.918 86.394C220.281 85.7803 220.654 85.1491 221.116 84.4241C222.385 82.4349 223.275 81.5608 223.729 81.8211C224.085 82.0462 223.768 82.8504 223.389 83.471C222.19 85.4314 221.143 86.948 220.032 88.554C219.289 89.6292 218.509 90.7591 217.591 92.16C217.427 92.4911 217.043 93.2669 217.757 93.7161C217.96 93.8245 218.569 94.1498 220.949 90.8978L226.046 83.9286C226.245 83.6571 226.58 83.4115 226.739 83.4945C226.883 83.5557 226.991 83.6801 227.03 83.8315C227.231 84.5863 226.248 86.0761 225.878 86.6366L225.761 86.8149C224.827 88.2176 223.812 89.5648 222.721 90.8495L222.715 90.8563C221.836 91.9318 220.927 93.0441 220.046 94.3178C219.866 94.5848 219.805 94.9147 219.878 95.2284C219.954 95.4467 220.127 95.6174 220.346 95.6908C221.166 95.9929 221.915 95.0225 222.237 94.6045L222.239 94.602C223.013 93.6297 223.784 92.7462 224.53 91.8921L224.55 91.8691C225.521 90.7577 226.523 89.6088 227.511 88.2885C227.703 88.0331 228.072 87.6308 228.406 87.8139C228.51 87.8651 228.585 87.9601 228.611 88.0727C228.617 88.6592 228.427 89.2307 228.07 89.6967C226.837 91.5914 224.928 94.0271 223.082 96.3833L223.074 96.3934C221.052 98.974 219.142 101.412 217.989 103.264C217.764 103.603 217.811 104.054 218.101 104.339C218.419 104.645 218.907 104.687 219.273 104.441L219.689 104.175C220.196 103.876 220.669 103.522 221.099 103.12L223.685 103.064C223.121 103.826 222.435 104.489 221.654 105.027L221.444 105.19C220.467 105.954 219.683 106.484 218.924 106.996C218.35 107.383 217.791 107.761 217.175 108.22C213.945 110.601 211.254 113.637 209.278 117.129Z" fill="black"/>
<path d="M209.914 120.022C195.284 144.572 185.324 170.332 180.614 200.342C178.664 212.242 180.399 224.454 185.584 235.342C189.564 243.622 197.274 250.022 205.764 250.892C205.741 251.098 205.748 251.307 205.784 251.512C207.082 258.206 207.828 264.995 208.014 271.812C208.104 280.282 207.174 291.152 205.084 299.252C203.484 305.472 199.694 312.582 196.044 316.162C198.554 302.742 195.324 288.732 190.804 281.242C184.974 271.482 176.094 262.252 169.994 250.912C163.534 238.902 161.344 231.802 161.244 221.162C161.264 211.571 162.425 202.017 164.704 192.702C167.964 179.462 180.264 142.942 201.894 115.022C202.558 114.161 203.734 113.882 204.714 114.352L208.944 116.792C209.524 117.068 209.96 117.576 210.145 118.192C210.33 118.807 210.246 119.472 209.914 120.022Z" fill="white"/>
<path fill-rule="evenodd" clip-rule="evenodd" d="M195.553 316.069L195.261 317.629L196.395 316.517C200.086 312.897 203.943 305.688 205.568 299.375C207.862 290.483 208.594 279.303 208.514 271.805C208.366 265.468 207.701 259.154 206.526 252.926L206.275 251.417C206.248 251.259 206.243 251.098 206.262 250.939L206.31 250.444L205.814 250.393C197.865 249.579 190.102 243.585 186.034 235.124C180.892 224.328 179.173 212.219 181.108 200.418C185.626 171.63 194.916 146.164 210.343 120.278C210.747 119.604 210.848 118.792 210.622 118.04C210.402 117.304 209.884 116.694 209.194 116.357L204.93 113.9C203.737 113.33 202.308 113.669 201.498 114.714C180.502 141.817 167.932 177.5 164.219 192.581C161.924 201.936 160.758 211.533 160.744 221.165C160.844 231.775 162.901 238.78 169.554 251.147C173.051 257.294 177.014 263.165 181.408 268.707C184.621 272.81 187.615 277.08 190.376 281.499C194.656 288.591 198.103 302.434 195.553 316.069ZM202.29 115.325C202.635 114.88 203.166 114.62 203.729 114.62C203.983 114.619 204.234 114.675 204.464 114.784L208.73 117.242C209.182 117.454 209.523 117.85 209.665 118.329C209.809 118.811 209.744 119.332 209.485 119.763L209.484 119.765C193.989 145.766 184.659 171.345 180.12 200.263C178.153 212.264 179.903 224.579 185.134 235.557C189.27 244.164 197.13 250.31 205.258 251.336C205.264 251.422 205.275 251.507 205.291 251.592L205.54 253.09C206.705 259.268 207.366 265.531 207.514 271.816C207.594 279.249 206.87 290.327 204.6 299.126C203.103 304.765 200.453 310.033 196.816 314.596C198.852 301.249 195.434 287.944 191.233 280.984C188.454 276.535 185.441 272.236 182.207 268.105C177.845 262.603 173.909 256.776 170.435 250.674C163.872 238.473 161.842 231.577 161.744 221.156C161.758 211.607 162.915 202.094 165.189 192.82C168.885 177.81 181.395 142.297 202.29 115.325Z" fill="black"/>
<path d="M297.315 234.486C290.505 249.226 282.405 257.716 271.285 276.146C262.585 290.426 263.445 307.056 266.845 322.056C267.385 324.426 268.465 328.346 269.285 331.236C268.914 330.921 268.515 330.64 268.095 330.396C260.265 325.786 253.725 311.756 251.565 298.806C249.145 284.326 248.425 268.616 251.325 254.176C251.356 254.014 251.373 253.85 251.375 253.686C251.998 253.647 252.619 253.574 253.235 253.466C257.705 252.666 262.335 249.596 265.515 246.356C282.345 229.186 291.705 193.976 286.935 170.406C282.305 147.576 269.065 132.206 253.035 117.256C252.637 116.885 252.407 116.368 252.4 115.824C252.392 115.281 252.607 114.757 252.995 114.376L256.765 110.286C257.507 109.555 258.686 109.516 259.475 110.196C272.699 121.293 283.851 134.646 292.415 149.636C296.946 157.731 300.594 166.291 303.295 175.166C309.715 197.486 306.115 215.446 297.315 234.486Z" fill="white"/>
<path fill-rule="evenodd" clip-rule="evenodd" d="M268.957 331.616L270.222 332.708L269.766 331.101C269.107 328.781 267.915 324.508 267.331 321.947C263.069 303.138 264.501 288.241 271.712 276.406C276.215 268.943 280.272 263.039 283.852 257.83L283.853 257.829L283.854 257.827C289.139 250.138 293.703 243.496 297.768 234.697V234.697C307.779 213.039 309.575 195.195 303.775 175.029C301.07 166.111 297.405 157.512 292.845 149.384C284.256 134.345 273.068 120.949 259.8 109.818C258.804 108.971 257.325 109.028 256.397 109.949L252.646 114.02C252.16 114.49 251.89 115.14 251.899 115.816C251.903 116.502 252.191 117.156 252.694 117.623C269.739 133.521 282 148.597 286.444 170.506C291.334 194.671 281.586 229.246 265.158 246.007C262.384 248.833 257.773 252.148 253.147 252.975C252.55 253.079 251.947 253.151 251.342 253.189L250.874 253.219V253.688C250.873 253.819 250.859 253.95 250.833 254.079C248.207 267.157 248.288 282.234 251.071 298.89C253.099 311.049 259.51 325.924 267.838 330.827C268.234 331.056 268.609 331.32 268.957 331.616ZM251.814 254.274C251.822 254.234 251.83 254.194 251.835 254.154C252.348 254.109 252.846 254.044 253.322 253.96C257.448 253.221 262.139 250.51 265.872 246.708C282.501 229.741 292.372 194.754 287.424 170.308C282.928 148.138 270.561 132.921 253.377 116.893C253.075 116.613 252.902 116.22 252.899 115.808C252.896 115.396 253.063 115.001 253.362 114.716L257.116 110.644C257.674 110.099 258.556 110.07 259.149 110.577C272.332 121.637 283.449 134.948 291.984 149.891C296.488 157.953 300.118 166.473 302.814 175.306C308.541 195.22 306.761 212.857 296.86 234.277V234.278C292.83 243 288.288 249.61 283.029 257.262C279.441 262.483 275.374 268.401 270.858 275.887C263.505 287.954 262.034 303.093 266.357 322.169C266.843 324.306 267.746 327.612 268.418 330.009C268.395 329.995 268.371 329.981 268.348 329.967C260.282 325.218 254.047 310.656 252.057 298.725C249.293 282.19 249.211 267.235 251.814 254.274Z" fill="black"/>
<path d="M279.822 432.7C276.962 447.99 271.932 465.38 268.752 479.12C258.639 522.831 251.018 578.688 242.837 626.701C242.693 627.577 242.034 628.279 241.169 628.48C236.119 629.63 229.3 628.753 225.974 628.193C224.845 628.007 224.044 626.993 224.124 625.852C225.269 609.627 232.803 496.584 226.402 416.67C226.402 416.67 224.922 392.66 219.732 388.81C216.332 386.28 211.582 385.9 201.352 392.23C201.352 392.23 151.432 425.52 136.342 435.32C130.852 439.1 131.382 443.02 133.342 447.3C133.839 448.393 134.526 449.389 135.372 450.24C152.882 467.8 170.432 477.81 187.242 491.53C189.066 493.007 183.39 502.097 180.177 505.921C179.508 506.727 178.365 506.952 177.44 506.459C158.126 496.115 133.297 481.544 118.732 473.16C110.535 468.503 102.726 463.192 95.382 457.28C90.8953 453.894 87.5158 449.251 85.672 443.94C81.9918 433.34 88.7418 423.86 92.672 419.38C116.022 392.81 165.582 356.71 179.882 342.2C186.124 335.984 190.764 328.346 193.404 319.941C193.819 318.646 194.578 317.488 195.599 316.589C199.382 313.164 203.409 305.733 205.082 299.26C207.172 291.16 207.646 280.228 207.556 271.758C207.37 264.946 206.62 258.162 205.316 251.474C205.214 250.855 205.379 250.222 205.769 249.731C206.16 249.24 206.74 248.938 207.366 248.898L212.224 248.677C213.388 248.599 214.414 249.435 214.571 250.591C214.889 252.936 215.371 256.436 215.378 256.47C216.808 266.31 217.502 275.72 219.122 285.79C219.522 288.32 220.092 291.12 222.172 292.62C224.434 293.904 227.165 294.06 229.558 293.041C231.508 291.941 233.138 290.352 234.288 288.431C238.198 282.501 238.966 273.668 240.356 266.708C241.092 263.003 242.259 256.21 242.849 252.455C242.946 251.838 243.298 251.291 243.819 250.947C244.341 250.603 244.983 250.495 245.588 250.648L250.156 251.722C251.313 252.018 252.031 253.173 251.786 254.341C248.881 268.784 249.139 284.324 251.562 298.81C253.726 311.757 260.266 325.791 268.091 330.398C270.022 331.494 271.472 333.275 272.154 335.389C275.147 345.145 278.515 354.732 280.742 366.53C284.992 388.415 284.679 410.942 279.822 432.7Z" fill="black"/>
<path d="M213.964 249.947C211.334 250.864 208.534 251.188 205.764 250.897C205.889 249.83 206.761 249.004 207.834 248.937L211.823 248.677C212.732 248.612 213.586 249.119 213.964 249.947Z" fill="black"/>
<path d="M251.373 253.687C248.64 253.826 245.93 253.128 243.604 251.687C244.106 250.826 245.118 250.402 246.084 250.647L249.693 251.557C250.673 251.801 251.364 252.677 251.373 253.687Z" fill="black"/>
<path d="M238.319 177.308C233.275 177.756 229.678 182.367 227.134 186.263C224.371 190.406 222.437 195.045 221.441 199.924C220.451 203.549 220.385 207.363 221.25 211.019C222.614 216.135 226.778 219.557 233.476 220.173C240.328 220.803 245.125 220.002 248.418 215.855C252.258 211.019 253.254 205.316 253.778 200.047C254.091 195.723 253.551 191.38 252.187 187.265C251.018 183.789 247.138 176.526 238.319 177.308Z" fill="white"/>
<path fill-rule="evenodd" clip-rule="evenodd" d="M233.43 220.672C234.784 220.797 236.036 220.86 237.198 220.86C242.745 220.86 246.237 219.407 248.81 216.167C252.697 211.272 253.734 205.551 254.275 200.097C254.597 195.703 254.049 191.289 252.661 187.107C252.031 185.231 248.369 175.909 238.275 176.811C233.039 177.276 229.347 181.961 226.715 185.991C223.916 190.18 221.959 194.875 220.954 199.812C219.94 203.516 219.875 207.415 220.767 211.149C222.241 216.675 226.738 220.056 233.43 220.672ZM227.553 186.538C230.06 182.697 233.555 178.234 238.363 177.808V177.808C247.729 176.979 251.124 185.675 251.713 187.426C253.057 191.473 253.59 195.746 253.281 199.999C252.753 205.3 251.752 210.853 248.027 215.545C245.154 219.163 240.954 220.357 233.522 219.676C227.278 219.102 223.091 215.982 221.734 210.891C220.886 207.315 220.953 203.583 221.928 200.039C222.91 195.216 224.82 190.63 227.553 186.538Z" fill="black"/>
<path d="M236.585 211.815C235.792 211.82 235.009 211.639 234.298 211.289C234.052 211.165 233.953 210.865 234.076 210.619C234.2 210.372 234.499 210.272 234.746 210.394C236.59 211.244 238.775 210.742 240.063 209.172C240.172 209.03 240.348 208.957 240.525 208.981C240.702 209.004 240.853 209.12 240.922 209.286C240.99 209.451 240.965 209.64 240.856 209.781C239.819 211.078 238.245 211.827 236.585 211.815Z" fill="black"/>
<path d="M234.992 203.762C234.066 203.891 233.147 203.482 232.622 202.707C232.283 202.021 232.325 201.207 232.735 200.56C233.237 199.822 234.04 199.344 234.928 199.255C235.717 199.211 236.507 199.284 237.275 199.472C237.543 199.536 237.71 199.805 237.646 200.074C237.583 200.343 237.313 200.51 237.044 200.446C236.391 200.284 235.718 200.217 235.045 200.248C234.46 200.299 233.927 200.604 233.586 201.083C233.368 201.422 233.333 201.847 233.493 202.216C233.75 202.673 234.451 202.775 235.022 202.762C235.756 202.771 236.489 202.696 237.206 202.538C237.38 202.497 237.563 202.551 237.685 202.681C237.808 202.811 237.851 202.996 237.8 203.167C237.749 203.338 237.61 203.469 237.437 203.51C236.646 203.687 235.838 203.771 235.028 203.762H234.992Z" fill="black"/>
<path d="M230.493 195.683C229.027 195.785 227.73 194.738 227.52 193.284C227.471 193.012 227.652 192.752 227.923 192.703C228.195 192.654 228.455 192.835 228.504 193.107C228.623 194.089 229.51 194.792 230.493 194.683C231.812 194.683 232.605 194.213 232.849 193.284C232.92 193.018 233.193 192.859 233.459 192.93C233.725 193 233.885 193.272 233.816 193.539C233.605 194.339 232.893 195.683 230.493 195.683Z" fill="black"/>
<path d="M244.167 196.97C244.062 196.97 243.954 196.967 243.844 196.961C242.317 196.948 241.025 195.83 240.791 194.321C240.763 194.145 240.832 193.967 240.97 193.854C241.109 193.741 241.298 193.711 241.465 193.775C241.631 193.839 241.752 193.987 241.78 194.164C241.93 195.213 242.839 195.985 243.899 195.963C244.995 196.195 246.096 195.592 246.49 194.543C246.536 194.369 246.672 194.233 246.847 194.187C247.021 194.142 247.207 194.193 247.332 194.323C247.458 194.452 247.504 194.639 247.453 194.812C247.018 196.228 245.639 197.134 244.167 196.97Z" fill="black"/>
<path d="M254.789 198.053C255.187 198.654 255.108 199.451 254.601 199.962C254.063 200.401 254.83 201.16 255.364 200.724C256.222 199.869 256.37 198.532 255.72 197.509C255.306 196.963 254.369 197.5 254.789 198.053Z" fill="black"/>
<path d="M268.063 222.831C266.919 223.757 265.513 224.299 264.043 224.381C257.428 224.842 251.446 220.459 249.893 214.011L249.733 213.981C252.503 209.581 253.323 204.641 253.773 200.041C254.035 196.758 253.779 193.454 253.013 190.251C252.206 189.679 251.368 189.151 250.503 188.671C250.141 188.538 249.814 188.326 249.543 188.051C249.336 187.767 249.19 187.444 249.113 187.101C248.533 185.161 247.953 183.218 247.373 181.271C247.39 182.803 247.198 184.331 246.803 185.811C246.551 186.733 245.612 187.286 244.683 187.061C242.546 186.55 240.367 186.232 238.173 186.111C237.675 186.084 237.211 185.849 236.895 185.463C236.579 185.076 236.441 184.575 236.513 184.081L236.983 180.891C236.163 182.661 233.333 185.731 231.083 185.681C230.263 185.661 228.893 185.521 227.713 185.381C227.513 185.681 227.323 185.971 227.133 186.261C224.371 190.404 222.439 195.043 221.443 199.921C220.65 202.937 220.453 206.08 220.863 209.171C216.433 213.401 207.143 217.101 201.463 215.091C198.283 213.961 196.673 209.701 197.503 206.431C199.443 198.801 211.173 187.671 214.153 184.471C219.043 179.241 226.803 172.861 232.613 170.311C239.913 167.091 247.433 167.051 252.893 171.681C255.258 173.888 257.141 176.561 258.423 179.531C261.863 186.671 263.963 194.361 266.053 202.001C267.053 205.651 268.05 209.301 269.043 212.951C269.963 216.331 270.663 220.501 268.063 222.831Z" fill="black"/>
<circle cx="241.366" cy="299.265" r="3.59279" fill="white"/>
<circle cx="213.265" cy="298.358" r="3.59279" fill="white"/>
<path d="M243.292 670.617C242.502 674.377 237.613 675.267 234.653 677.707C231.182 680.557 231.272 682.267 230.562 688.047C230.153 691.337 230.522 695.477 227.542 696.937C225.572 698.007 220.002 697.947 218.292 697.617C216.471 697.478 215.08 695.933 215.133 694.107C215.043 691.981 216.027 689.952 217.752 688.707C221.103 686.337 221.093 682.657 221.083 678.997C225.304 678.491 229.003 675.931 230.963 672.157C231.585 670.83 232.09 669.452 232.473 668.037C233.502 664.627 234.536 661.214 235.573 657.797C236.163 660.147 238.433 662.207 239.992 663.697C241.923 665.547 243.853 668.007 243.292 670.617Z" fill="black"/>
<path d="M227.714 549.478C227.654 550.198 227.334 552.018 226.144 552.678C225.204 553.188 222.944 553.468 222.264 550.198C221.494 546.528 219.304 541.188 218.084 537.638C217.784 536.778 217.016 535.035 216.486 533.895C218.156 530.635 218.422 527.38 218.034 523.558C217.76 520.945 216.928 518.421 215.594 516.158C218.444 516.638 222.656 515.18 225.026 516.721C229.996 519.92 225.534 527.538 225.344 530.618C224.974 536.568 228.214 543.518 227.714 549.478Z" fill="black"/>
<path d="M229.046 623.109C229.021 623.109 228.995 623.107 228.971 623.104C225.099 622.525 225.122 622.156 225.141 621.831C225.161 621.571 225.375 621.367 225.636 621.359C225.736 621.358 225.835 621.386 225.921 621.439C226.968 621.745 228.037 621.971 229.119 622.115C229.377 622.154 229.562 622.386 229.543 622.646C229.524 622.907 229.307 623.109 229.046 623.109Z" fill="white"/>
<path d="M235.218 623.552C233.999 623.552 232.773 623.502 231.576 623.404C231.444 623.393 231.321 623.33 231.236 623.229C231.15 623.128 231.108 622.997 231.119 622.864C231.145 622.591 231.384 622.389 231.658 622.407C233.123 622.527 234.593 622.571 236.136 622.543H236.145C236.421 622.541 236.647 622.762 236.65 623.038C236.653 623.314 236.431 623.541 236.155 623.543C235.837 623.549 235.525 623.552 235.218 623.552Z" fill="white"/>
<path d="M238.734 623.414C238.465 623.413 238.245 623.201 238.235 622.932C238.225 622.664 238.429 622.435 238.696 622.415C239.832 622.329 240.99 622.196 242.137 622.021C242.409 621.98 242.664 622.168 242.705 622.44C242.746 622.713 242.56 622.967 242.287 623.009C241.116 623.188 239.934 623.324 238.773 623.413C238.76 623.414 238.747 623.414 238.734 623.414Z" fill="white"/>
<path d="M172.087 502.545C172.008 502.542 171.932 502.515 171.869 502.467C171.651 502.329 171.571 502.05 171.683 501.817C171.729 501.721 171.806 501.642 171.901 501.593C172.681 500.829 173.403 500.008 174.061 499.137C174.231 498.92 174.544 498.882 174.761 499.05C174.978 499.219 175.018 499.532 174.85 499.75C173.015 502.112 172.395 502.545 172.087 502.545Z" fill="white"/>
<path d="M175.975 497.825C175.79 497.825 175.621 497.724 175.534 497.561C175.447 497.399 175.456 497.201 175.559 497.048C176.389 495.801 177.14 494.503 177.806 493.161C177.885 493.001 178.043 492.895 178.222 492.884C178.4 492.872 178.571 492.957 178.67 493.106C178.769 493.254 178.781 493.444 178.702 493.605C178.017 494.985 177.245 496.32 176.391 497.603C176.298 497.742 176.142 497.826 175.975 497.825Z" fill="white"/>
<path d="M179.322 491.504C179.156 491.504 179.001 491.422 178.908 491.284C178.815 491.147 178.796 490.972 178.858 490.818C179.288 489.751 179.657 488.662 179.965 487.554C180.038 487.288 180.313 487.132 180.579 487.206C180.845 487.279 181.001 487.554 180.928 487.82C180.611 488.964 180.23 490.09 179.786 491.191C179.71 491.381 179.526 491.505 179.322 491.504Z" fill="white"/>
<path d="M253.32 195.716C253.823 195.217 254.56 195.034 255.238 195.239C256.073 195.459 256.743 196.08 257.024 196.896C257.451 197.86 257.565 198.933 257.35 199.965C257.207 201.057 256.552 202.015 255.587 202.544C254.676 202.974 252.682 202.694 252.449 201.706L253.32 195.716Z" fill="white"/>
<path d="M253.702 196.099C254.139 195.771 254.704 195.664 255.231 195.809C255.758 195.953 256.189 196.333 256.398 196.839C256.831 197.653 256.998 198.583 256.874 199.497C256.853 200.617 256.204 201.63 255.196 202.119C254.595 202.316 253.245 202.252 252.97 201.565C252.714 200.928 251.671 201.206 251.93 201.851C252.532 202.974 253.818 203.546 255.055 203.242C256.581 202.883 257.714 201.598 257.88 200.039C258.241 198.428 257.819 196.742 256.744 195.49C255.72 194.43 254.044 194.363 252.939 195.337C252.421 195.802 253.186 196.562 253.702 196.099H253.702Z" fill="black"/>
<path d="M360.944 399.068C366.373 393.15 369.967 385.784 371.29 377.863C371.878 374.299 371.634 368.671 367.37 368.227C365.004 367.947 362.733 369.245 361.773 371.425C359.528 375.654 361.83 381.997 365.316 385.278C368.803 388.56 373.817 389.812 378.604 389.681C393.198 389.284 404.775 377.807 414.711 367.109" stroke="black" stroke-linecap="round"/>
<path d="M43.6558 329.82C48.2149 322.443 54.341 315.758 62.2637 311.966C70.2185 308.159 80.7528 305.942 88.8288 310.569C90.885 311.747 92.4332 313.218 92.3822 315.73C92.3306 318.272 90.8504 319.709 88.7045 320.748C85.097 322.46 81.0366 322.972 77.1171 322.21C69.3849 320.722 63.3854 314.597 62.0587 306.835C60.7359 297.829 64.7999 288.881 72.4522 283.951C72.9944 283.608 72.4932 282.742 71.9475 283.088C64.5519 287.848 60.3049 296.233 60.8421 305.012C61.435 313.516 67.3698 320.702 75.6086 322.891C81.3718 324.403 94.2684 323.432 93.3492 314.865C92.9011 310.69 88.2038 308.737 84.6385 307.781C79.7101 306.637 74.5696 306.787 69.7162 308.216C57.9868 311.281 49.0798 319.142 42.7923 329.315C42.453 329.864 43.3177 330.366 43.6558 329.819V329.82Z" fill="black"/>
<path d="M358.427 280.113L362.6 273.335C362.938 272.785 362.073 272.283 361.736 272.83L357.563 279.608C357.225 280.158 358.09 280.66 358.427 280.113Z" fill="black"/>
<path d="M135.65 7.51906L139.822 0.741141C140.161 0.191601 139.296 -0.311239 138.959 0.236421L134.786 7.01434C134.448 7.56388 135.312 8.06672 135.65 7.51906Z" fill="black"/>
<path d="M441.744 296.695L446.043 302.847C446.409 303.371 447.277 302.872 446.907 302.342L442.608 296.191C442.242 295.667 441.374 296.166 441.744 296.695Z" fill="black"/>
<path d="M291.494 16.9923L295.793 23.1439C296.159 23.6676 297.027 23.1684 296.657 22.6392L292.358 16.4876C291.992 15.9639 291.124 16.4631 291.494 16.9923Z" fill="black"/>
<path d="M384.391 176.947L391.973 169.373C392.157 169.176 392.152 168.869 391.961 168.678C391.77 168.487 391.463 168.482 391.266 168.666L383.684 176.24C383.499 176.437 383.505 176.745 383.695 176.936C383.886 177.126 384.194 177.131 384.391 176.947H384.391Z" fill="black"/>
<path d="M464.522 220.422L470.228 227.264C470.641 227.759 471.345 227.048 470.936 226.557L465.229 219.714C464.817 219.22 464.113 219.93 464.522 220.422Z" fill="black"/>
<path d="M467.886 421.742L470.314 433.119C470.449 433.748 471.413 433.482 471.279 432.854L468.85 421.476C468.716 420.847 467.752 421.114 467.886 421.742Z" fill="black"/>
<path d="M412.578 532.087L417.555 526.071C417.962 525.579 417.258 524.867 416.848 525.364L411.871 531.379C411.463 531.872 412.167 532.583 412.578 532.087H412.578Z" fill="black"/>
<path d="M314.811 477.128V466.717C314.801 466.448 314.58 466.234 314.311 466.234C314.041 466.234 313.82 466.448 313.811 466.717V477.128C313.82 477.397 314.041 477.61 314.311 477.61C314.58 477.61 314.801 477.397 314.811 477.128Z" fill="black"/>
<path d="M35.8003 512.051C38.184 510.608 40.3401 508.819 42.1978 506.742C42.6257 506.264 41.9208 505.554 41.4906 506.035C39.6928 508.051 37.6049 509.787 35.2956 511.188C35.0677 511.332 34.9949 511.631 35.131 511.864C35.267 512.096 35.563 512.179 35.8004 512.051H35.8003Z" fill="black"/>
<path d="M40.1251 395.522C42.4707 398.308 45.0129 400.921 47.7321 403.344C48.2113 403.77 48.921 403.066 48.4393 402.636C45.72 400.214 43.1778 397.6 40.8322 394.815C40.4171 394.322 39.7128 395.033 40.1251 395.522Z" fill="black"/>
<path d="M84.8695 207.811L88.6863 216.274C88.9504 216.86 89.8125 216.352 89.5497 215.77L85.733 207.307C85.4689 206.721 84.6068 207.229 84.8695 207.811Z" fill="black"/>
<path d="M34.2205 234.604L38.9183 226.387C39.0464 226.149 38.9633 225.853 38.7305 225.717C38.4976 225.581 38.1988 225.654 38.0548 225.882L33.357 234.099C33.2289 234.336 33.312 234.632 33.5448 234.768C33.7777 234.905 34.0765 234.832 34.2205 234.604Z" fill="black"/>
<path d="M20.4491 117.152L29.3378 127.411C29.76 127.899 30.4647 127.189 30.0449 126.704L21.1562 116.445C20.7341 115.958 20.0293 116.668 20.4491 117.152V117.152Z" fill="black"/>
</svg>
