<svg width="384" height="403" viewBox="0 0 384 403" fill="none" xmlns="http://www.w3.org/2000/svg">
<rect opacity="0.01" width="390" height="403" fill="white"/>
<path d="M80.171 79.5116C79.9812 79.5116 79.7908 79.5021 79.5997 79.483C77.2476 79.2494 74.9723 77.759 73.3575 75.3951C73.2919 75.2992 73.2825 75.1756 73.3328 75.0709C73.3832 74.9662 73.4855 74.8962 73.6014 74.8874C73.7172 74.8786 73.8289 74.9323 73.8945 75.0282C75.4005 77.2334 77.5034 78.6216 79.6639 78.8368C82.1096 79.0698 84.536 77.5552 85.0759 75.4396C85.3992 73.9063 84.9009 72.3154 83.7607 71.2406C83.1559 70.698 82.2799 70.5825 81.5552 70.9499C80.9014 71.2839 80.5757 72.0341 80.7779 72.7399C81.0093 73.6243 81.8302 74.2243 82.7431 74.1764C82.7622 74.1764 82.7834 74.1757 82.8003 74.1757C82.9797 74.1741 83.1266 74.3182 83.1283 74.4977C83.1299 74.6772 82.9858 74.8241 82.8063 74.8257C81.5732 74.9019 80.4588 74.0942 80.1476 72.8986C79.8617 71.8944 80.3337 70.8293 81.2695 70.3665C82.2235 69.8845 83.3749 70.0327 84.1758 70.7404C85.4981 71.9831 86.0778 73.8247 85.7056 75.6008C85.1321 77.8472 82.7199 79.5116 80.171 79.5116Z" fill="black"/>
<path d="M39.7828 211.888C39.3334 211.882 38.898 211.732 38.5415 211.458C37.4654 210.577 36.9362 209.192 37.1504 207.818C37.5097 205.95 39.5076 204.514 41.6172 204.58C43.584 204.75 45.377 205.775 46.5202 207.384C46.6297 207.526 46.6036 207.73 46.4619 207.84C46.3202 207.95 46.1163 207.924 46.006 207.783C44.9803 206.326 43.3665 205.392 41.5919 205.23C39.78 205.163 38.0899 206.376 37.789 207.941C37.6303 209.067 38.0594 210.197 38.9262 210.934C39.3745 211.297 40.0023 211.342 40.4976 211.045C40.9398 210.789 41.1341 210.252 40.9584 209.772C40.7501 209.147 40.1266 208.759 39.474 208.848C39.2957 208.86 39.1404 208.727 39.1246 208.55C39.1178 208.464 39.1455 208.379 39.2015 208.313C39.2576 208.248 39.3373 208.207 39.4232 208.2C40.3782 208.084 41.2816 208.661 41.5779 209.576C41.8488 210.349 41.5289 211.205 40.8175 211.611C40.5012 211.788 40.1454 211.884 39.7828 211.888V211.888Z" fill="black"/>
<path d="M332.551 173.601C332.482 173.601 332.415 173.579 332.359 173.539C331.559 172.868 331.084 171.886 331.055 170.842C330.886 169.22 331.365 167.596 332.386 166.324C334.031 164.707 336.314 163.913 338.606 164.162C340.498 164.357 342.23 165.308 343.411 166.799C344.214 167.952 344.426 169.416 343.985 170.75C343.537 171.832 342.536 172.585 341.372 172.715C340.058 173.023 338.706 172.38 338.118 171.166C337.645 170.334 337.796 169.287 338.484 168.621C338.621 168.506 338.825 168.523 338.941 168.659C339.057 168.796 339.04 169 338.904 169.116C338.446 169.594 338.364 170.319 338.704 170.886C339.163 171.838 340.228 172.335 341.252 172.076C342.193 171.981 343.008 171.381 343.381 170.512C343.74 169.387 343.559 168.159 342.889 167.186C341.825 165.843 340.263 164.986 338.558 164.811C336.461 164.576 334.368 165.295 332.859 166.77C331.961 167.904 331.546 169.345 331.702 170.783C331.717 171.64 332.096 172.451 332.743 173.013C332.856 173.096 332.904 173.243 332.86 173.377C332.817 173.511 332.692 173.601 332.551 173.601L332.551 173.601Z" fill="black"/>
<path d="M197.255 268.303C194.861 268.21 192.697 266.848 191.578 264.729C190.537 262.842 190.185 260.475 190.531 257.691C190.546 257.576 190.62 257.477 190.727 257.432C190.834 257.387 190.957 257.402 191.05 257.472C191.142 257.542 191.191 257.656 191.176 257.771C190.848 260.416 191.174 262.651 192.146 264.415C193.196 266.426 195.288 267.674 197.556 267.644C198.738 267.633 199.857 267.109 200.621 266.207C201.252 265.358 201.486 264.277 201.26 263.243C200.964 262.092 199.991 261.241 198.811 261.099C197.986 260.932 197.15 261.328 196.758 262.073C196.678 262.233 196.483 262.298 196.323 262.218C196.162 262.137 196.097 261.943 196.177 261.782C196.684 260.779 197.798 260.237 198.901 260.456C200.356 260.64 201.547 261.7 201.899 263.124C202.16 264.34 201.881 265.61 201.135 266.605C200.258 267.657 198.966 268.273 197.598 268.292C197.484 268.3 197.369 268.303 197.255 268.303Z" fill="black"/>
<path fill-rule="evenodd" clip-rule="evenodd" d="M35.8594 96.6618C35.8594 98.4036 37.2715 99.8155 39.0133 99.8155C40.7543 99.8134 42.1652 98.4024 42.1671 96.6613C42.1669 94.9196 40.7548 93.5077 39.013 93.5078C37.2712 93.5079 35.8593 94.92 35.8594 96.6618ZM36.6999 95.7035C37.0875 94.7679 38.0005 94.1578 39.0133 94.1578C40.3954 94.1592 41.5155 95.2792 41.5171 96.6613C41.5172 97.6741 40.9072 98.5872 39.9716 98.9748C39.036 99.3625 37.959 99.1483 37.2428 98.4322C36.5267 97.7162 36.3124 96.6392 36.6999 95.7035Z" fill="black"/>
<path fill-rule="evenodd" clip-rule="evenodd" d="M379.301 134.318C379.301 136.06 380.713 137.472 382.454 137.472C384.196 137.47 385.607 136.059 385.608 134.318C385.608 132.576 384.196 131.164 382.455 131.164C380.713 131.164 379.301 132.576 379.301 134.318ZM379.951 134.318C379.951 132.935 381.071 131.814 382.454 131.814C383.837 131.815 384.957 132.935 384.958 134.318C384.959 135.7 383.838 136.822 382.455 136.822C381.072 136.822 379.951 135.701 379.951 134.318Z" fill="black"/>
<path d="M341.406 75.1241C341.273 75.1241 341.154 75.0438 341.105 74.921C341.055 74.7982 341.085 74.6576 341.18 74.5655C341.826 73.9444 342.091 73.0254 341.874 72.1557C341.658 71.286 340.993 70.5982 340.132 70.3523C339.27 70.1065 338.342 70.3399 337.699 70.9645C337.57 71.0893 337.365 71.0859 337.24 70.9569C337.115 70.8279 337.118 70.6221 337.247 70.4973C338.057 69.7132 339.224 69.421 340.308 69.731C341.392 70.0409 342.228 70.9058 342.501 71.9996C342.774 73.0934 342.443 74.2498 341.632 75.0327C341.571 75.0913 341.49 75.1241 341.406 75.1241Z" fill="black"/>
<path d="M101.837 14.1233C101.72 14.1235 101.612 14.0604 101.554 13.9582C100.999 12.9779 101.009 11.7758 101.58 10.8046C102.151 9.83351 103.197 9.24093 104.324 9.25011C105.451 9.25929 106.487 9.86884 107.042 10.8492C107.13 11.0052 107.074 11.2026 106.919 11.2907C106.763 11.3788 106.565 11.3244 106.477 11.1691C106.036 10.3899 105.213 9.90522 104.318 9.89779C103.423 9.89037 102.592 10.3613 102.138 11.1331C101.685 11.9048 101.678 12.86 102.12 13.6383C102.162 13.7132 102.173 13.8019 102.15 13.8849C102.127 13.9679 102.072 14.0384 101.997 14.0807C101.949 14.1087 101.894 14.1234 101.837 14.1233V14.1233Z" fill="black"/>
<path fill-rule="evenodd" clip-rule="evenodd" d="M218.202 158.572C218.565 159.449 219.421 160.021 220.37 160.021C221.665 160.02 222.715 158.97 222.716 157.675C222.716 156.726 222.145 155.87 221.268 155.507C220.391 155.144 219.382 155.344 218.711 156.015C218.04 156.686 217.839 157.695 218.202 158.572ZM218.674 157.675C218.673 156.738 219.433 155.978 220.37 155.978V155.978C221.306 155.979 222.065 156.738 222.066 157.675C222.066 158.612 221.307 159.371 220.37 159.371C219.433 159.371 218.674 158.612 218.674 157.675Z" fill="black"/>
<path fill-rule="evenodd" clip-rule="evenodd" d="M361.596 235.534C361.666 236.781 362.697 237.756 363.946 237.756C364.124 237.756 364.3 237.736 364.473 237.697C365.69 237.417 366.478 236.236 366.267 235.005C366.057 233.774 364.922 232.921 363.681 233.062C362.441 233.203 361.525 234.287 361.596 235.534ZM363.574 233.755C363.699 233.726 363.827 233.712 363.955 233.711C364.848 233.712 365.586 234.41 365.636 235.302C365.686 236.194 365.031 236.971 364.143 237.071C363.255 237.172 362.443 236.562 362.292 235.682C362.141 234.801 362.704 233.956 363.574 233.755Z" fill="black"/>
<path fill-rule="evenodd" clip-rule="evenodd" d="M301.729 8.68166C302.141 9.42894 302.926 9.8938 303.779 9.89576C303.957 9.89567 304.133 9.87566 304.306 9.83609C304.913 9.69937 305.441 9.32517 305.771 8.79698C306.459 7.69976 306.128 6.25237 305.031 5.56319C303.935 4.87401 302.487 5.20371 301.797 6.29982C301.343 7.0224 301.317 7.93438 301.729 8.68166ZM303.407 5.8942C303.532 5.86575 303.659 5.85128 303.787 5.85104C304.682 5.85162 305.42 6.5502 305.47 7.44321C305.52 8.33622 304.865 9.1132 303.976 9.21407C303.088 9.31495 302.275 8.70464 302.123 7.82309C301.972 6.94154 302.535 6.09523 303.407 5.8942Z" fill="black"/>
<path fill-rule="evenodd" clip-rule="evenodd" d="M227.945 40.6045C227.945 41.9006 228.996 42.9513 230.292 42.9513C231.588 42.95 232.638 41.9001 232.639 40.6045C232.639 39.3085 231.588 38.2578 230.292 38.2578C228.996 38.2578 227.945 39.3085 227.945 40.6045ZM228.595 40.6045C228.595 39.6675 229.355 38.9078 230.292 38.9078C231.229 38.9088 231.988 39.6679 231.989 40.6045C231.989 41.5416 231.229 42.3013 230.292 42.3013C229.355 42.3013 228.595 41.5416 228.595 40.6045Z" fill="black"/>
<path fill-rule="evenodd" clip-rule="evenodd" d="M56.7647 268.886C57.1281 269.763 57.9839 270.334 58.933 270.334C60.2284 270.333 61.2781 269.283 61.2795 267.987C61.2795 267.038 60.7077 266.183 59.8307 265.819C58.9538 265.456 57.9444 265.657 57.2732 266.328C56.6021 266.999 56.4014 268.009 56.7647 268.886ZM57.3653 267.338C57.628 266.704 58.2468 266.291 58.933 266.291V266.291C59.8696 266.292 60.6284 267.051 60.6295 267.987C60.6295 268.674 60.216 269.292 59.582 269.555C58.9479 269.818 58.2181 269.672 57.7329 269.187C57.2476 268.702 57.1025 267.972 57.3653 267.338Z" fill="black"/>
<path d="M6.8972 164.919C6.05797 164.921 5.2819 164.474 4.86189 163.747C4.44187 163.021 4.44187 162.125 4.86189 161.399C5.2819 160.672 6.05797 160.225 6.8972 160.227C7.07669 160.227 7.2222 160.372 7.2222 160.552C7.2222 160.731 7.07669 160.877 6.8972 160.877C6.29034 160.875 5.72906 161.198 5.42529 161.724C5.12152 162.249 5.12152 162.897 5.42529 163.422C5.72906 163.947 6.29034 164.271 6.8972 164.269C7.07669 164.269 7.2222 164.415 7.2222 164.594C7.2222 164.774 7.07669 164.919 6.8972 164.919V164.919Z" fill="black"/>
<path d="M19.6106 300.924C18.7383 300.923 17.9386 300.438 17.5345 299.665C17.1304 298.892 17.1886 297.958 17.6857 297.241C17.7881 297.094 17.9906 297.057 18.138 297.16C18.2854 297.262 18.3219 297.464 18.2196 297.612C17.6884 298.382 17.8808 299.437 18.6498 299.97C19.4188 300.503 20.4741 300.313 21.0087 299.545C21.0747 299.449 21.187 299.396 21.303 299.405C21.419 299.415 21.5211 299.486 21.5706 299.591C21.62 299.696 21.6094 299.82 21.5425 299.915C21.1033 300.549 20.3812 300.926 19.6106 300.924V300.924Z" fill="black"/>
<path fill-rule="evenodd" clip-rule="evenodd" d="M244.243 290.229C244.606 291.106 245.462 291.678 246.411 291.678C247.707 291.677 248.757 290.627 248.758 289.331C248.758 288.382 248.186 287.526 247.309 287.163C246.432 286.8 245.423 287.001 244.752 287.672C244.081 288.343 243.88 289.352 244.243 290.229ZM244.844 288.682C245.106 288.048 245.725 287.634 246.411 287.634C247.348 287.635 248.107 288.395 248.108 289.331C248.108 290.017 247.695 290.636 247.061 290.899C246.427 291.161 245.697 291.016 245.211 290.531C244.726 290.046 244.581 289.316 244.844 288.682Z" fill="black"/>
<path fill-rule="evenodd" clip-rule="evenodd" d="M45.9395 28.0887C45.9395 29.3845 46.99 30.435 48.2859 30.435C49.5812 30.4335 50.6309 29.3836 50.6323 28.0883C50.6321 26.7924 49.5815 25.7421 48.2856 25.7422C46.9898 25.7423 45.9394 26.7929 45.9395 28.0887ZM46.7186 27.4395C46.9811 26.8055 47.5997 26.3922 48.2859 26.3922C49.2222 26.3933 49.981 27.152 49.9823 28.0883C49.9824 28.7744 49.5692 29.3931 48.9353 29.6558C48.3014 29.9185 47.5717 29.7734 47.0864 29.2883C46.6012 28.8031 46.456 28.0734 46.7186 27.4395Z" fill="black"/>
<path d="M168.037 115.754C177.639 117.237 187.063 117.509 191.481 117.141C196.881 116.692 200.918 116.43 203.883 111.905C205.907 108.815 205.152 102.79 200.073 96.0325C194.551 88.6863 173.719 62.9251 165.055 56.9339C164.337 56.4093 163.348 54.348 162.522 53.3494C161.617 52.2551 159.789 51.2511 159.363 51.3506L160.897 57.8645L161.101 60.3654C172.503 73.2855 187.548 94.0073 190.072 97.6143C193.084 101.917 190.696 103.688 182.5 103.395C178.496 103.017 174.516 102.409 170.581 101.577L168.037 115.754Z" fill="white"/>
<path d="M167.95 116.065C173.623 116.94 179.347 117.448 185.086 117.587C189.064 117.673 193.228 117.628 197.131 116.779C200.4 116.068 203.684 114.01 204.821 110.697C206.051 107.113 204.587 102.985 202.893 99.8151C201.355 96.937 199.247 94.3887 197.233 91.8336C195.125 89.1584 192.987 86.5074 190.818 83.8806C185.676 77.6372 180.423 71.4659 174.862 65.5903C172.438 62.9468 169.856 60.4519 167.131 58.1193C166.648 57.7193 166.151 57.3407 165.653 56.961C164.778 56.1707 164.05 55.2304 163.505 54.1845C162.667 52.8865 161.067 51.0464 159.363 51.0234C159.262 51.0249 159.167 51.0726 159.106 51.1528C159.045 51.233 159.024 51.3368 159.05 51.4344L160.27 56.62C160.411 57.1578 160.522 57.7028 160.603 58.2528C160.686 58.9515 160.547 59.8793 160.82 60.5268C161.07 61.1222 161.9 61.7678 162.326 62.2606C162.824 62.838 163.32 63.4178 163.813 64.0002C164.94 65.3315 166.055 66.673 167.158 68.0245C169.44 70.8138 171.685 73.6318 173.895 76.4787C177.858 81.5649 181.745 86.7096 185.555 91.9129C186.715 93.4938 187.867 95.081 189.011 96.6744C189.876 97.8856 191.637 99.8301 190.806 101.393C190.146 102.635 188.096 102.85 186.886 102.976C184.813 103.169 182.725 103.139 180.658 102.887C177.301 102.52 173.967 101.977 170.667 101.261C170.494 101.216 170.317 101.316 170.268 101.488L167.723 115.665C167.65 116.074 168.275 116.249 168.349 115.838L169.451 109.699L170.276 105.104C170.438 104.201 170.91 102.954 170.826 102.037C170.765 101.368 170.937 102.096 170.577 101.905C171.105 102.085 171.653 102.196 172.208 102.235C174.608 102.7 177.023 103.092 179.449 103.394C182.042 103.782 184.672 103.845 187.28 103.581C188.467 103.432 189.862 103.202 190.802 102.388C192.58 100.85 191.105 98.5169 190.056 97.0272C188.531 94.8642 186.962 92.7321 185.393 90.6019C180.026 83.3169 174.541 76.1122 168.848 69.0783C167.148 66.9777 165.423 64.8973 163.674 62.8374C163.039 62.0935 161.843 61.162 161.421 60.3138C161.155 59.7811 161.314 58.7444 161.244 58.15C160.973 55.8403 160.209 53.5265 159.676 51.2618L159.363 51.6727C161.603 51.7029 162.951 54.6713 164.02 56.2071C164.728 57.057 165.555 57.8008 166.475 58.4157C168.669 60.2595 170.758 62.2262 172.73 64.3061C177.865 69.5789 182.688 75.1603 187.416 80.7981C191.344 85.4828 195.22 90.2211 198.94 95.0736C203.286 100.742 208.693 111.321 199.379 115.396C195.533 117.079 190.654 116.988 186.514 116.959C180.355 116.892 174.209 116.384 168.122 115.438C167.713 115.376 167.537 116.002 167.95 116.065Z" fill="black"/>
<path d="M138.959 87.8637C138.128 85.6125 138.444 77.4249 142.545 75.6741C145.088 74.5886 149.641 77.289 152.985 77.0582C157.634 76.7374 158.327 72.3192 159.517 69.2043C159.657 68.8369 159.822 68.139 160.598 68.2133C161.162 68.2672 161.551 68.3491 162.114 68.4044C164.487 68.6373 165.422 66.5258 164.211 65.1326C163.521 64.5474 162.637 64.24 161.732 64.2702C161.476 64.2618 161.235 64.1456 161.069 63.9503C160.903 63.7549 160.827 63.4986 160.859 63.2442C161.203 60.345 161.033 57.4079 160.358 54.5675C159.267 49.2093 155.977 47.4414 152.405 47.4453C149.368 47.4486 145.013 49.7129 142.354 56.055C139.708 62.3683 136.205 78.1667 132.994 83.2267C132.4 84.1021 131.76 84.9458 131.078 85.7544C132.133 86.9618 133.506 87.8495 135.04 88.317C137.631 89.0856 138.959 87.8637 138.959 87.8637Z" fill="white"/>
<path fill-rule="evenodd" clip-rule="evenodd" d="M134.947 88.6251C135.51 88.7982 136.096 88.8887 136.686 88.8937C137.585 88.9335 138.468 88.652 139.178 88.0995L139.338 87.9517L139.263 87.7479C138.467 85.5922 138.751 77.6437 142.672 75.9698C143.976 75.4132 145.927 75.9532 147.991 76.5244L147.991 76.5246L148.007 76.529C149.708 77.0005 151.466 77.4878 153.007 77.3796C157.178 77.0915 158.311 73.7321 159.31 70.7679L159.31 70.7673L159.321 70.7332C159.486 70.2449 159.647 69.7672 159.819 69.3168L159.863 69.1969C160.041 68.6986 160.18 68.491 160.566 68.5335C160.846 68.5602 161.081 68.5938 161.318 68.6281C161.558 68.6624 161.798 68.6966 162.081 68.7246C163.17 68.9226 164.266 68.4196 164.826 67.4652C165.247 66.6215 165.1 65.6048 164.456 64.916C163.798 64.1594 162.435 63.9474 161.734 63.9417C161.579 63.94 161.433 63.8723 161.332 63.7557C161.217 63.6246 161.162 63.4507 161.182 63.2771C161.53 60.3442 161.359 57.373 160.676 54.4995C159.433 48.3994 155.501 47.1172 152.416 47.1172H152.404C149.332 47.1204 144.778 49.429 142.054 55.9258C140.98 58.4877 139.775 62.5712 138.499 66.8946C136.676 73.0696 134.611 80.0679 132.719 83.0494C132.133 83.9105 131.504 84.7408 130.833 85.537L130.654 85.7408L130.823 85.9528C131.917 87.2152 133.347 88.1418 134.947 88.6251ZM135.131 88.0018C133.75 87.5735 132.502 86.7971 131.507 85.7471C132.037 85.1085 132.917 83.9501 133.268 83.3973C135.208 80.339 137.198 73.5977 139.122 67.0787L139.122 67.078C140.393 62.7727 141.593 58.706 142.653 56.1772C145.254 49.9743 149.532 47.7704 152.405 47.7672H152.415C155.258 47.7672 158.884 48.9593 160.039 54.629C160.707 57.4363 160.875 60.3392 160.536 63.2047C160.495 63.5612 160.608 63.918 160.846 64.1867C161.068 64.4423 161.39 64.5898 161.729 64.5917C162.541 64.5617 163.336 64.8286 163.965 65.3426C164.431 65.8319 164.544 66.5592 164.249 67.1669C163.806 67.8799 162.967 68.2429 162.145 68.0771C161.872 68.0505 161.641 68.0175 161.41 67.9845C161.164 67.9489 160.919 67.914 160.629 67.8861C159.959 67.8481 159.367 68.3173 159.251 68.9779L159.212 69.0845C159.037 69.5446 158.872 70.0334 158.703 70.5324L158.694 70.5597C157.714 73.4669 156.701 76.4726 152.962 76.7309C151.524 76.8274 149.818 76.3564 148.165 75.8987C145.988 75.2951 143.932 74.7257 142.417 75.3719C138.214 77.1657 137.801 85.1016 138.577 87.7409C138.174 88.0056 137.029 88.5642 135.131 88.0018Z" fill="black"/>
<path d="M163.547 376.694C163.379 377.983 162.279 378.946 160.98 378.943H156.631C155.933 378.943 155.264 378.66 154.777 378.16C154.29 377.659 154.025 376.983 154.044 376.285C155.214 327.418 142.656 275.613 126.913 233.863C126.51 278.72 115.35 363.545 112.087 375.362C111.606 376.779 111.157 379.112 108.785 379.099C107.016 379.083 105.251 378.926 103.507 378.631C101.147 378.254 101.563 375.186 101.752 373.834C106.139 334.054 100.263 299.234 97.1562 257.783C96.1487 244.315 90.7277 229.437 90.7277 229.437C85.4757 215.572 82.3622 205.764 82.0762 192.367C88.6737 198.809 111.664 200.577 121.603 200.434C128.369 200.336 146.888 201.63 156.131 196.605C164.912 233.889 165.978 254.657 167.272 297.804C167.896 318.558 166.518 353.223 163.547 376.694Z" fill="white"/>
<path d="M163.235 376.607C162.772 378.795 160.823 378.618 159.115 378.618C157.638 378.618 155.603 378.972 154.741 377.482C154.08 376.338 154.408 374.635 154.424 373.349C154.441 371.976 154.448 370.602 154.445 369.229C154.438 366.57 154.393 363.911 154.311 361.253C153.958 350.429 153.06 339.629 151.621 328.895C148.747 307.685 144.229 286.73 138.11 266.22C134.883 255.276 131.256 244.461 127.227 233.776C127.18 233.624 127.03 233.528 126.872 233.55C126.714 233.571 126.594 233.703 126.589 233.863C126.392 254.486 124.583 275.112 122.542 295.622C120.552 315.626 118.203 335.61 115.262 355.497C114.408 361.273 113.563 367.072 112.359 372.788C112.2 373.541 112.042 374.299 111.837 375.041C111.644 375.881 111.346 376.692 110.948 377.456C109.904 379.235 107.734 378.801 105.978 378.63C104.169 378.454 102.231 378.469 101.955 376.266C101.902 375.04 101.988 373.812 102.21 372.605C102.603 368.869 102.913 365.126 103.14 361.376C104.934 331.889 101.406 302.514 98.7654 273.193C98.1037 265.844 97.8506 258.391 96.674 251.103C95.6955 245.25 94.307 239.474 92.5188 233.816C91.3263 229.97 89.8416 226.24 88.4994 222.444C86.1558 216.124 84.4133 209.598 83.2952 202.951C82.7735 199.445 82.4752 195.91 82.402 192.367L81.8472 192.597C84.8971 195.491 89.3717 196.776 93.3487 197.763C98.7054 199.029 104.154 199.868 109.643 200.272C114.14 200.654 118.618 200.728 123.126 200.755C128.29 200.787 133.449 200.938 138.61 200.658C144.554 200.334 150.952 199.718 156.295 196.885L155.818 196.691C158.504 208.121 160.852 219.632 162.518 231.258C164.077 242.137 165.02 253.09 165.636 264.061C166.991 288.196 167.516 312.341 166.421 336.494C165.813 349.919 164.9 363.357 163.223 376.694C163.171 377.108 163.821 377.104 163.873 376.694C166.843 353.075 167.915 329.046 167.732 305.251C167.637 292.844 167.117 280.415 166.496 268.024C165.942 256.977 165.116 245.941 163.678 234.971C161.913 222.04 159.499 209.207 156.445 196.518C156.417 196.422 156.346 196.344 156.253 196.306C156.16 196.268 156.055 196.275 155.967 196.324C151.119 198.894 145.351 199.56 139.957 199.926C134.847 200.272 129.728 200.19 124.611 200.121C115.099 199.994 105.668 199.7 96.3082 197.768C91.5898 196.793 85.9218 195.567 82.3068 192.137C82.2126 192.048 82.0747 192.022 81.9548 192.072C81.8349 192.122 81.7554 192.237 81.752 192.367C81.9154 199.205 82.9031 205.998 84.6937 212.599C86.2931 218.496 88.5067 224.161 90.5523 229.908C92.0123 234.076 93.2556 238.316 94.2773 242.612C96.0582 249.945 96.7627 257.271 97.3848 264.772C99.9102 295.219 104.029 325.671 102.751 356.288C102.591 360.103 102.35 363.914 102.026 367.72C101.869 369.555 101.698 371.389 101.494 373.219C101.29 374.333 101.241 375.47 101.349 376.598C101.743 378.936 103.703 379.04 105.72 379.253C108.132 379.507 110.573 379.861 111.737 377.334C112.588 375.489 112.921 373.352 113.306 371.371C113.844 368.606 114.308 365.826 114.755 363.045C117.78 344.221 120.051 325.262 122.086 306.31C124.43 284.481 126.476 262.554 127.108 240.601C127.173 238.355 127.216 236.109 127.239 233.863L126.601 233.949C134.467 254.754 140.794 276.109 145.53 297.841C150.476 320.702 153.576 344.048 153.785 367.459C153.799 369.03 153.799 370.602 153.786 372.173C153.774 373.653 153.526 375.295 153.751 376.756C153.989 378.218 155.261 379.286 156.743 379.268C159.216 379.405 163.19 379.951 163.861 376.78C163.948 376.372 163.321 376.198 163.235 376.607Z" fill="black"/>
<path d="M162.47 378.817C162.263 380.796 163.467 383.238 164.594 384.877C165.582 386.287 167.03 387.309 168.69 387.768C170.479 388.239 172.321 388.48 174.171 388.485C175.635 388.489 177.167 388.409 178.474 389.07C179.422 389.536 180.146 390.36 180.488 391.36C180.864 392.424 180.445 393.915 179.323 394.038C178.303 394.149 176.844 394.217 176.201 394.217C169.782 394.419 165.55 394.247 159.955 394.106C159.645 394.132 159.335 394.051 159.077 393.876C158.739 393.582 158.773 393.061 158.792 392.613C158.865 391.961 158.701 391.305 158.329 390.764C157.922 390.225 157.163 390.101 156.606 390.484C155.728 391.256 156.448 393.579 155.349 393.978C155.171 394.042 153.187 393.998 151.958 393.948C151.473 393.928 151.079 393.551 151.036 393.068C150.803 390.54 151.01 387.359 152.142 385.162C152.704 384.069 153.548 383.146 154.162 382.082C154.845 381.113 155.198 379.95 155.169 378.766L162.47 378.817Z" fill="black"/>
<path d="M109.9 378.965C109.693 380.944 110.897 383.386 112.024 385.025C113.012 386.435 114.46 387.457 116.119 387.916C117.909 388.387 119.75 388.628 121.601 388.634C123.065 388.637 124.596 388.557 125.904 389.218C126.852 389.684 127.576 390.508 127.918 391.508C128.293 392.572 127.874 394.063 126.752 394.186C125.733 394.297 124.274 394.365 123.631 394.365C117.212 394.567 112.98 394.395 107.385 394.254C107.075 394.28 106.765 394.199 106.507 394.024C106.169 393.73 106.203 393.209 106.222 392.761C106.295 392.109 106.13 391.453 105.758 390.912C105.352 390.373 104.592 390.25 104.036 390.633C103.158 391.404 103.878 393.727 102.779 394.126C102.601 394.19 100.616 394.146 99.3877 394.096C98.903 394.076 98.5086 393.699 98.466 393.216C98.2329 390.688 98.4398 387.507 99.5714 385.31C100.134 384.217 100.978 383.294 101.591 382.23C102.284 381.036 102.643 379.677 102.629 378.297L106.034 379.104L109.9 378.965Z" fill="black"/>
<ellipse cx="156.664" cy="61.0269" rx="0.878479" ry="0.878483" fill="black"/>
<path d="M153.948 58.4884C154.228 57.8502 154.752 57.3512 155.404 57.1036C156.055 56.8561 156.779 56.8808 157.412 57.1722C157.993 57.407 158.246 56.4643 157.671 56.232C155.922 55.507 153.913 56.2838 153.106 57.9963C152.834 58.5589 153.675 59.0539 153.948 58.4884V58.4884Z" fill="black"/>
<path d="M143.957 57.1985C143.653 56.6197 143.069 56.2411 142.417 56.1992C140.894 56.0462 139.77 57.4375 139.474 57.9631C138.964 58.9076 138.721 59.973 138.77 61.0451C138.79 62.1024 139.325 63.0833 140.203 63.6727C141.091 64.2119 142.931 64.3907 143.667 63.3107L143.957 57.1985Z" fill="white"/>
<path d="M144.238 57.0334C143.578 55.7656 141.934 55.6126 140.77 56.2473C139.437 57.0692 138.585 58.4875 138.486 60.051C138.305 61.6188 138.773 63.3551 140.303 64.0897C141.491 64.7219 142.953 64.498 143.896 63.5395C144.168 63.2236 143.71 62.7618 143.437 63.0799C142.694 63.8345 141.542 64.0063 140.612 63.5011C139.188 62.8303 138.93 61.1552 139.18 59.7665C139.3 58.98 139.625 58.239 140.122 57.6175C140.939 56.6623 142.856 55.7848 143.677 57.3615C143.87 57.7326 144.431 57.4044 144.238 57.0334V57.0334Z" fill="black"/>
<path d="M142.764 58.1284C141.925 57.8443 140.998 58.1084 140.435 58.792C139.886 59.452 139.716 60.3487 139.985 61.164C140.125 61.5552 140.753 61.3866 140.612 60.9912C140.377 60.4046 140.494 59.7359 140.912 59.2629C141.331 58.7899 141.981 58.5935 142.592 58.7552C142.762 58.7958 142.934 58.6942 142.981 58.5252C143.027 58.3563 142.932 58.1808 142.764 58.1284V58.1284Z" fill="black"/>
<path d="M162.935 51.0776C161.933 51.3215 160.905 51.4459 159.874 51.4481C153.718 51.6301 147.881 52.0331 142.025 56.0176V56.0176C140.273 54.008 139.535 51.3092 140.018 48.6878C140.502 46.0664 142.155 43.8087 144.508 42.5561C144.334 42.3457 144.24 42.0813 144.241 41.8086C144.238 41.1499 144.763 40.61 145.422 40.5941C146.08 40.5782 146.63 41.0921 146.659 41.7501C150.55 40.8727 154.543 42.7353 156.37 46.2806C157.8 46.5211 159.23 46.7681 160.66 47.0086C161.338 47.0972 162.009 47.2318 162.669 47.4116C163.572 47.6846 164.463 48.1656 164.56 48.9066C164.697 49.9921 164.138 50.7071 162.935 51.0776Z" fill="black"/>
<path d="M154.201 71.047C154.771 70.9928 155.333 71.2054 155.724 71.6226C155.993 71.8829 156.577 72.8679 155.732 72.8445C155.396 72.8351 154.986 72.4744 154.718 72.2985C154.357 72.0622 153.281 71.3743 154.201 71.047C154.593 70.9079 154.424 70.2796 154.029 70.4202C153.617 70.5346 153.309 70.8762 153.237 71.2973C153.165 71.7183 153.342 72.1431 153.692 72.3877C154.272 72.85 155.233 73.636 156.031 73.4826C156.913 73.313 156.965 72.3079 156.583 71.6522C156.052 70.7708 155.049 70.2873 154.029 70.4202C153.617 70.4925 153.792 71.119 154.201 71.047Z" fill="black"/>
<path d="M147.195 122.456C147.077 121.283 147.459 120.115 148.247 119.238C149.035 118.362 150.156 117.858 151.334 117.85C152.022 117.865 152.708 117.919 153.39 118.011C156.808 118.413 159.398 119.272 162.804 119.987C165.646 120.583 167.01 119.91 167.522 118.099C168.516 114.58 170.099 106.388 170.902 103.43C171.28 102.038 172.004 99.536 170.405 97.893C169.628 97.0934 168.138 96.6485 167.071 96.3239C158.078 93.6803 149.241 90.5364 140.599 86.9066C140.333 86.797 140.03 86.8294 139.793 86.9927C138.795 87.6666 136.799 88.4973 135.097 87.8073C132.874 86.9061 131.815 86.019 131.055 84.9528C130.909 84.7442 130.678 84.6111 130.425 84.5891C130.171 84.5672 129.921 84.6588 129.741 84.8393C125.786 88.8738 119.772 92.9743 115.079 97.0119C86.509 120.223 74.2381 158.959 80.4592 189.846C82.9694 198.359 110.473 200.599 121.605 200.44C129.424 200.329 152.929 202.07 159.696 193.775C166.681 185.532 165.606 174.22 162.489 162.881C158.847 149.632 148.469 136.136 147.195 122.456Z" fill="black"/>
<path d="M118.004 166.283C120.667 170.656 123.579 175.387 126.915 180.535C130.419 185.944 139.847 197.655 145.163 201.3C151.186 205.43 168.864 211.705 193.706 212.694C196.245 213.005 197.248 213.31 203.154 217.587C205.572 219.338 210.434 221.188 213.15 221.399L219.271 222.122C220.154 222.19 223.613 222.543 224.669 222.145C225.307 221.967 225.652 220.524 222.926 220.251C214.795 219.439 215.099 218.183 215.099 218.183C215.2 217.494 217.413 217.872 218.099 217.944C220.421 218.188 221.991 218.291 224.24 218.562C225.983 218.772 227.468 218.944 227.623 217.909C227.662 217.308 227.357 217.02 226.184 216.876C222.883 216.472 219.976 216.224 216.701 215.648C216.176 215.546 215.871 214.953 216.245 214.586C216.921 213.988 224.494 215.423 226.981 215.645C227.372 215.68 228.169 215.717 228.396 215.072C228.483 214.816 228.456 214.534 228.323 214.298C228.19 214.061 227.963 213.893 227.698 213.834C227.051 213.663 225.821 213.473 225.076 213.362C222.226 212.938 219.476 212.808 216.614 212.477C216.381 212.466 216.188 212.291 216.155 212.059C216.123 211.828 216.26 211.607 216.482 211.533C217.221 211.341 222.286 211.882 224.797 211.99C225.26 212.031 225.725 211.934 226.134 211.711C226.861 211.34 226.746 210.464 226.113 209.985C225.718 209.782 225.286 209.66 224.843 209.626C220.821 209.044 213.456 209.111 209.851 208.515C209.657 208.482 209.517 208.314 209.519 208.118C209.521 207.922 209.666 207.757 209.86 207.729C211.291 207.52 212.356 207.692 214.397 207.382C216.239 207.103 216.804 206.799 216.742 206.182C216.658 205.345 215.529 205.258 215.126 205.221C213.54 205.103 211.947 205.158 210.374 205.384C209.033 205.547 207.53 205.888 206.015 206.21C202.873 206.877 199.093 205.779 195.047 204.874C177.655 200.525 161.836 193.275 156.727 189.492C150.652 184.993 146.696 178.246 143.17 171.559C140.555 166.601 138.18 161.864 135.985 157.164L118.004 166.283Z" fill="white"/>
<path fill-rule="evenodd" clip-rule="evenodd" d="M219.605 222.472C220.749 222.57 221.944 222.655 222.93 222.655C223.545 222.685 224.161 222.617 224.755 222.454C225.198 222.316 225.483 221.886 225.438 221.424C225.405 221.045 225.098 220.138 222.958 219.925C216.658 219.295 215.61 218.418 215.446 218.207C215.576 218.109 216.061 218.014 217.738 218.224C217.867 218.241 217.978 218.255 218.065 218.264C219.011 218.363 219.831 218.439 220.624 218.512L220.66 218.516C221.802 218.622 222.884 218.722 224.2 218.881L224.201 218.881C226.021 219.101 227.74 219.309 227.946 217.927C228.01 216.968 227.303 216.683 226.222 216.55C225.375 216.446 224.554 216.353 223.746 216.262L223.51 216.235C221.242 215.979 219.1 215.737 216.762 215.325C216.603 215.298 216.471 215.188 216.415 215.037C216.389 214.968 216.402 214.891 216.449 214.835C216.956 214.537 220.99 215.131 223.431 215.491L223.472 215.497C224.916 215.711 226.164 215.895 226.952 215.965C227.902 216.051 228.488 215.784 228.702 215.177C228.817 214.844 228.788 214.477 228.622 214.166C228.446 213.84 228.14 213.604 227.781 213.516C227.291 213.387 226.422 213.23 225.123 213.038C223.416 212.783 221.716 212.632 220.071 212.485L220.047 212.483L220.024 212.481C218.924 212.383 217.787 212.282 216.656 212.152C216.56 212.151 216.48 212.076 216.474 211.979C216.464 211.918 216.503 211.859 216.564 211.844C218.14 211.823 219.716 211.899 221.283 212.072C222.544 212.17 223.848 212.271 224.782 212.312C225.301 212.353 225.822 212.244 226.281 211.997C226.66 211.821 226.916 211.456 226.954 211.039C226.977 210.519 226.734 210.024 226.309 209.723C225.873 209.478 225.387 209.333 224.888 209.301C222.902 209.014 220.093 208.882 217.375 208.755L217.353 208.754C214.582 208.625 211.719 208.491 209.903 208.191C209.885 208.19 209.868 208.182 209.857 208.168C209.846 208.154 209.841 208.136 209.843 208.119C209.841 208.101 209.846 208.082 209.858 208.069C209.87 208.055 209.888 208.047 209.906 208.047C210.5 207.97 211.098 207.928 211.697 207.921C212.617 207.908 213.535 207.834 214.445 207.7C215.941 207.474 217.17 207.201 217.064 206.146C216.956 205.057 215.617 204.935 215.154 204.894C213.546 204.774 211.93 204.829 210.333 205.057C209.159 205.2 207.895 205.471 206.557 205.758L206.555 205.758L205.946 205.888C203.305 206.45 200.128 205.712 196.765 204.931L196.75 204.928C196.211 204.802 195.666 204.676 195.125 204.555C177.094 200.047 161.668 192.743 156.919 189.227C150.765 184.669 146.743 177.637 143.457 171.404C140.74 166.252 138.392 161.548 136.278 157.023L136.136 156.719L117.543 166.149L117.725 166.449C120.351 170.76 123.248 175.47 126.641 180.708C130.046 185.963 139.593 197.873 144.978 201.564C148.47 203.958 154.781 206.481 162.293 208.485C172.556 211.125 183.076 212.643 193.666 213.013C196.116 213.313 197.083 213.589 202.962 217.847C205.414 219.621 210.352 221.504 213.112 221.718L219.245 222.442L219.605 222.472ZM127.187 180.356C123.876 175.245 121.038 170.635 118.463 166.411L135.832 157.602C137.913 162.044 140.221 166.662 142.882 171.707C146.202 178.004 150.269 185.111 156.533 189.749C161.323 193.297 176.851 200.656 194.975 205.188C195.465 205.297 195.952 205.41 196.433 205.522L196.603 205.561L196.611 205.563C200.05 206.361 203.298 207.115 206.081 206.524L206.691 206.394C208.015 206.11 209.266 205.842 210.412 205.702C211.971 205.48 213.549 205.427 215.119 205.543C215.698 205.596 216.369 205.719 216.418 206.211C216.444 206.465 216.306 206.761 214.348 207.058C213.463 207.188 212.571 207.259 211.678 207.272C211.054 207.278 210.431 207.323 209.812 207.404C209.46 207.455 209.197 207.755 209.193 208.111C209.189 208.467 209.446 208.773 209.797 208.832C212.302 209.149 214.821 209.34 217.345 209.405L217.367 209.406C220.061 209.532 222.846 209.662 224.811 209.946C225.194 209.979 225.568 210.078 225.917 210.241C226.161 210.408 226.307 210.686 226.307 210.982C226.287 211.175 226.163 211.343 225.985 211.418C225.627 211.618 225.217 211.703 224.81 211.662C223.887 211.622 222.589 211.521 221.334 211.424C218.587 211.21 216.885 211.089 216.4 211.215C216.039 211.308 215.797 211.647 215.825 212.019C215.849 212.428 216.168 212.758 216.576 212.797C217.728 212.93 218.878 213.032 219.99 213.13C221.633 213.276 223.331 213.427 225.028 213.68L225.047 213.683C225.535 213.756 226.932 213.964 227.614 214.145C227.799 214.186 227.957 214.305 228.048 214.47C228.128 214.621 228.143 214.799 228.088 214.961C227.982 215.261 227.638 215.376 227.01 215.318C226.241 215.249 224.942 215.058 223.566 214.854C218.66 214.131 216.525 213.898 216.016 214.351C215.782 214.576 215.696 214.914 215.792 215.225C215.919 215.609 216.245 215.893 216.644 215.965C218.992 216.378 221.132 216.62 223.394 216.876L223.437 216.881L223.523 216.891C224.378 216.987 225.246 217.086 226.143 217.195C227.332 217.341 227.316 217.605 227.301 217.856L227.301 217.858C227.199 218.537 226.039 218.448 224.278 218.236C222.952 218.076 221.865 217.975 220.717 217.869L220.684 217.866L220.554 217.854C219.803 217.784 219.024 217.711 218.133 217.618L217.82 217.579L217.816 217.579C216.659 217.434 214.912 217.214 214.782 218.103C214.753 218.266 214.797 218.433 214.902 218.561C215.507 219.415 218.27 220.11 222.893 220.571C224.247 220.707 224.762 221.146 224.79 221.48C224.806 221.64 224.707 221.79 224.553 221.837C223.679 222.167 220.759 221.918 219.66 221.824L213.175 221.072C210.496 220.863 205.719 219.04 203.343 217.32C197.335 212.969 196.324 212.684 193.718 212.366C168.921 211.378 151.204 205.045 145.346 201.029C140.027 197.382 130.566 185.571 127.187 180.356Z" fill="black"/>
<path d="M104.007 150.546C106.964 155.401 109.779 160.387 112.9 165.138C113.856 166.592 115.043 167.541 116.866 167.295C119.078 166.997 121.291 165.598 123.268 164.638C125.642 163.486 127.986 162.277 130.301 161.01C132.201 159.97 134.629 158.992 136.108 157.355C137.545 155.766 136.943 153.958 136.306 152.14C135.359 149.437 134.407 146.736 133.451 144.037L127.001 125.73C126.863 125.338 126.235 125.507 126.374 125.903L132.507 143.309C133.564 146.31 134.629 149.309 135.679 152.312C136.32 154.147 136.837 155.925 135.159 157.369C134.037 158.214 132.835 158.949 131.571 159.562C129.094 160.955 126.581 162.281 124.033 163.541C122.669 164.216 121.295 164.872 119.912 165.508C118.194 166.298 116.03 167.457 114.335 165.935C113.271 164.979 112.598 163.399 111.868 162.202L109.545 158.389L104.568 150.218C104.35 149.861 103.788 150.187 104.007 150.546L104.007 150.546Z" fill="white"/>
<path d="M124.189 209.203C126.83 218.261 126.914 233.864 126.914 233.864C126.914 233.864 132.343 231.6 130.856 216.565" stroke="black" stroke-linecap="round" stroke-dasharray="6"/>
<path d="M85.6504 199.547C98.6474 204.224 112.402 206.439 126.21 206.079C147.658 205.442 149.02 203.59 149.02 203.59" stroke="black" stroke-linecap="round" stroke-dasharray="6"/>
<path fill-rule="evenodd" clip-rule="evenodd" d="M105.49 375.101C105.505 375.103 105.52 375.104 105.535 375.104H105.535C105.705 375.104 105.847 374.972 105.859 374.801C105.87 374.631 105.748 374.481 105.579 374.457C104.315 374.298 103.074 373.991 101.883 373.541C101.718 373.472 101.528 373.549 101.458 373.713C101.388 373.878 101.464 374.068 101.628 374.139C102.872 374.615 104.168 374.938 105.49 375.101ZM107.462 375.281C107.766 375.295 108.08 375.302 108.402 375.302C109.409 375.302 110.415 375.23 111.412 375.087C111.527 375.07 111.624 374.994 111.668 374.886C111.711 374.778 111.693 374.655 111.621 374.564C111.549 374.473 111.434 374.427 111.319 374.443C110.052 374.623 108.77 374.686 107.49 374.632C107.312 374.627 107.162 374.764 107.152 374.942C107.148 375.028 107.178 375.112 107.236 375.176C107.295 375.24 107.376 375.277 107.462 375.281Z" fill="black"/>
<path fill-rule="evenodd" clip-rule="evenodd" d="M157.692 375.17C157.702 375.171 157.711 375.172 157.72 375.172V375.172C157.894 375.171 158.037 375.034 158.044 374.86C158.052 374.687 157.921 374.538 157.748 374.523C156.478 374.43 155.223 374.188 154.009 373.801C153.84 373.739 153.654 373.826 153.592 373.995C153.53 374.163 153.617 374.35 153.786 374.412C155.053 374.821 156.364 375.076 157.692 375.17ZM159.342 374.923C159.343 375.103 159.489 375.248 159.668 375.247H159.671C160.992 375.236 162.309 375.102 163.606 374.846C163.782 374.811 163.896 374.64 163.861 374.464C163.827 374.288 163.656 374.174 163.48 374.209C162.223 374.457 160.946 374.587 159.666 374.597C159.486 374.598 159.341 374.744 159.342 374.923Z" fill="black"/>
<path d="M285.461 368.346C283.875 373.715 280.489 383.264 278.896 388.633C278.799 388.971 278.682 389.38 278.545 389.822C278.252 390.994 277.778 392.112 277.141 393.137C276.518 393.872 275.59 394.278 274.627 394.237C273.664 394.197 272.774 393.714 272.214 392.929C271.454 391.72 271.87 389.348 272.175 387.976C272.26 387.586 272.331 387.274 272.37 387.099C274.125 379.136 276.478 368.236 278.233 360.273L285.461 368.346Z" fill="white"/>
<path fill-rule="evenodd" clip-rule="evenodd" d="M274.6 394.565C274.669 394.568 274.736 394.57 274.804 394.57C275.811 394.582 276.768 394.129 277.396 393.342C278.072 392.291 278.565 391.135 278.856 389.92C278.992 389.48 279.109 389.073 279.208 388.727C279.997 386.07 281.248 382.316 282.459 378.685L282.466 378.666C283.699 374.968 284.974 371.147 285.774 368.44L285.825 368.266L278.053 359.586L277.916 360.205C277.039 364.187 276.011 368.903 274.984 373.619L274.943 373.807C273.93 378.46 272.919 383.103 272.053 387.031L271.858 387.908C271.298 390.426 271.324 392.126 271.939 393.104C272.544 393.986 273.532 394.528 274.6 394.565ZM275.799 372.935C276.713 368.738 277.62 364.575 278.415 360.965L285.099 368.43C284.298 371.12 283.05 374.86 281.843 378.48C280.63 382.115 279.376 385.875 278.581 388.555L278.577 388.569C278.482 388.901 278.368 389.299 278.234 389.73C277.941 390.858 277.487 391.938 276.888 392.937C276.347 393.617 275.503 393.984 274.637 393.915C273.78 393.886 272.985 393.458 272.49 392.758C271.978 391.944 271.979 390.359 272.493 388.047L272.688 387.171C273.566 383.19 274.593 378.474 275.62 373.757L275.62 373.757L275.799 372.935Z" fill="black"/>
<path d="M301.048 375.175C299.319 380.531 297.915 386.199 296.648 390.469C296.518 390.905 296.329 391.594 296.089 392.367C295.653 393.797 295.036 395.507 294.308 396.358C293.066 397.821 290.297 397.067 289.53 395.715C288.841 394.512 289.043 392.699 289.231 391.626C289.283 391.366 289.329 391.152 289.361 391.002C290.512 385.789 291.825 379.517 293.222 372.945L301.048 375.175Z" fill="white"/>
<path fill-rule="evenodd" clip-rule="evenodd" d="M292.045 397.464C292.17 397.476 292.292 397.482 292.413 397.482C293.227 397.515 294.013 397.181 294.555 396.572C295.177 395.845 295.78 394.501 296.4 392.466C296.556 391.964 296.69 391.498 296.801 391.112L296.808 391.091L296.96 390.564C297.438 388.953 297.935 387.146 298.462 385.232C299.315 382.128 300.282 378.609 301.358 375.276L301.462 374.956L292.977 372.539L291.876 377.731C290.864 382.509 289.908 387.023 289.045 390.935C289.012 391.086 288.966 391.302 288.912 391.572C288.58 393.459 288.694 394.908 289.249 395.877C289.887 396.809 290.918 397.394 292.045 397.464ZM292.512 377.865L293.469 373.355L300.637 375.397C299.602 378.635 298.67 382.022 297.844 385.025L297.835 385.06C297.31 386.97 296.813 388.774 296.337 390.378L296.182 390.911C296.072 391.297 295.937 391.767 295.779 392.275C295.444 393.659 294.862 394.972 294.061 396.15C293.555 396.675 292.827 396.924 292.106 396.817C291.191 396.763 290.348 396.3 289.813 395.556C289.342 394.732 289.252 393.394 289.551 391.692C289.602 391.434 289.648 391.221 289.68 391.074C290.543 387.16 291.5 382.645 292.512 377.865Z" fill="black"/>
<path d="M341.551 372.772C342.773 378.271 344.43 385.575 345.301 389.956C345.366 390.294 345.444 390.697 345.548 391.132C345.753 392.38 346.252 393.561 347.004 394.577C348.152 395.822 350.088 395.912 351.346 394.779C352.419 393.583 352.048 390.898 351.944 390.099C351.925 389.949 351.905 389.8 351.886 389.644C351.151 383.696 350.274 375.981 349.429 368.844L341.551 372.772Z" fill="white"/>
<path fill-rule="evenodd" clip-rule="evenodd" d="M349.293 395.894H349.298C350.152 395.917 350.978 395.591 351.587 394.992C352.743 393.705 352.388 390.986 352.266 390.054L352.207 389.601C351.735 385.776 351.213 381.298 350.66 376.556C350.358 373.969 350.052 371.349 349.751 368.803L349.697 368.344L341.178 372.591L341.988 376.226C343.063 381.038 344.281 386.492 344.986 390.036L344.986 390.037C345.051 390.374 345.129 390.774 345.23 391.2C345.433 392.506 345.96 393.74 346.762 394.791C347.408 395.505 348.33 395.907 349.293 395.894ZM342.622 376.083L341.923 372.946L349.16 369.338C349.428 371.603 349.698 373.921 349.966 376.218L350.014 376.632C350.567 381.374 351.09 385.854 351.563 389.681L351.627 390.178C351.914 392.377 351.738 393.851 351.104 394.557C350.62 395.021 349.968 395.269 349.298 395.244H349.294C348.515 395.256 347.769 394.932 347.244 394.356C346.52 393.385 346.045 392.251 345.864 391.054C345.766 390.649 345.693 390.272 345.627 389.929L345.619 389.889C344.917 386.358 343.698 380.899 342.622 376.083Z" fill="black"/>
<path d="M324.326 376.726C325.36 381.66 326.309 385.235 327.082 389.135C327.219 389.817 327.518 391.338 327.921 392.82C328.171 393.942 328.588 395.019 329.156 396.018C330.254 397.591 331.964 397.344 333.069 396.655C334.317 395.882 334.317 393.912 334.167 392.554C334.115 392.014 334.037 391.579 334.011 391.345C333.433 386.678 332.835 381.53 332.159 375.719L324.326 376.726Z" fill="white"/>
<path fill-rule="evenodd" clip-rule="evenodd" d="M328.889 396.202C329.418 397.021 330.327 397.515 331.302 397.513C331.989 397.501 332.66 397.299 333.239 396.929C334.318 396.261 334.739 394.775 334.49 392.52C334.456 392.167 334.411 391.857 334.376 391.617C334.358 391.492 334.343 391.386 334.333 391.302C333.77 386.752 333.196 381.822 332.532 376.111L332.531 376.105L332.443 375.352L323.936 376.447L324.008 376.791C324.503 379.154 324.971 381.176 325.425 383.131C325.906 385.206 326.36 387.167 326.763 389.196L326.779 389.277C326.921 389.988 327.216 391.466 327.606 392.903C327.858 394.063 328.291 395.176 328.889 396.202ZM326.058 382.984C325.628 381.129 325.183 379.212 324.716 377.001L331.873 376.08L331.885 376.181L331.895 376.268C332.556 381.944 333.127 386.852 333.687 391.378C333.697 391.462 333.713 391.571 333.732 391.702L333.733 391.711C333.767 391.942 333.81 392.241 333.844 392.587C333.995 393.955 333.953 395.722 332.896 396.377C331.902 396.996 330.396 397.225 329.42 395.828C328.871 394.862 328.471 393.818 328.234 392.733C327.849 391.317 327.557 389.853 327.417 389.15L327.4 389.069C326.996 387.03 326.541 385.065 326.058 382.984Z" fill="black"/>
<path d="M286.126 101.448C286.704 99.4396 288.763 97.2873 290.311 95.8837C290.969 96.3467 291.848 96.3426 292.501 95.8735C293.051 95.334 293.266 94.539 293.062 93.7961C292.824 93.0401 292.292 92.4119 291.585 92.0539C290.849 91.6431 289.944 91.6863 289.251 92.1654C288.284 92.8762 288.36 93.9706 289.174 94.8206C287.445 97.1364 284.368 98.2014 281.482 98.0426L284.076 100.503L286.126 101.448Z" fill="white"/>
<path fill-rule="evenodd" clip-rule="evenodd" d="M285.991 101.746C286.034 101.766 286.08 101.776 286.127 101.776L286.127 101.776C286.272 101.776 286.4 101.68 286.439 101.541C286.967 99.7066 288.823 97.6994 290.357 96.2865C291.108 96.7096 292.041 96.6419 292.724 96.1144C293.364 95.4942 293.614 94.5741 293.377 93.715C293.114 92.8706 292.521 92.1682 291.733 91.7676C290.887 91.3028 289.852 91.3566 289.059 91.9066C288.592 92.2223 288.287 92.7282 288.228 93.2891C288.197 93.8534 288.386 94.4076 288.754 94.836C287.174 96.7822 284.415 97.8746 281.501 97.721C281.365 97.7118 281.237 97.7904 281.185 97.9165C281.131 98.0417 281.161 98.1872 281.26 98.2809L283.853 100.741C283.878 100.766 283.908 100.786 283.94 100.801L285.991 101.746ZM285.932 101.003L284.261 100.233L282.311 98.3837C285.073 98.3995 287.694 97.1617 289.435 95.0182C289.531 94.8912 289.52 94.7139 289.41 94.5993C289.06 94.2773 288.866 93.8209 288.875 93.3456C288.921 92.972 289.129 92.6374 289.444 92.4303C290.038 92.0225 290.812 91.9899 291.438 92.3465C292.064 92.6613 292.537 93.2157 292.749 93.8839C292.92 94.5104 292.741 95.1805 292.28 95.6384C291.737 96.0022 291.025 95.9929 290.49 95.6149C290.367 95.5339 290.204 95.5467 290.094 95.646C288.561 97.0355 286.643 99.0585 285.932 101.003Z" fill="black"/>
<path d="M294.854 99.7323C293.037 100.755 291.369 102.023 289.899 103.502C288.816 104.827 288.536 106.637 289.17 108.227C289.597 109.788 290.95 110.918 292.562 111.059C294.15 111.098 295.726 110.777 297.172 110.118C301.703 108.227 303.902 110.045 304.495 112.336C305.221 115.142 303.756 117.658 301.347 118.053C298.546 118.512 297.718 117.224 294.854 115.859C292.579 114.774 289.593 114.905 289.158 117.155C286.215 138.613 289.603 218.722 289.785 239.138C289.853 246.769 289.939 254.523 292.153 261.826C294.973 271.129 300.821 278.671 307.537 285.759C318.263 296.569 338.444 304.856 348.21 316.54C355.001 324.666 357.647 330.525 358.97 340.919C360.862 355.788 355.568 368.89 338.844 374.054C325.132 378.287 312.473 376.891 300.189 374.938C291.544 373.563 284.832 368.764 279.404 361.897C271.786 352.259 271.519 335.422 272.667 326.224C274.657 310.289 275.654 299.748 277.643 283.813C280.058 268.461 279.892 252.833 279.656 237.293C279.372 218.657 281.708 141.588 279.063 121.557C278.33 117.073 277.592 116.574 272.623 114.533C271.744 114.131 271.267 113.168 271.481 112.226C271.593 111.822 271.759 110.249 270.175 110.116C269.773 110.09 269.376 110.221 269.068 110.482C268.763 110.829 268.57 111.259 268.514 111.717C268.344 112.565 266.211 110.547 265.584 109.964C262.539 107.134 260.347 103.276 261.856 99.1817C262.447 97.6296 263.49 96.2904 264.85 95.3367C268.502 92.7283 273.197 93.0397 277.061 94.8053C279.585 95.9952 281.84 97.6891 283.685 99.7827C285.09 101.297 287.325 101.704 289.174 100.783C290.675 100.061 292.075 99.1445 293.337 98.0564C293.249 97.8674 293.187 97.6676 293.152 97.4622C293.081 96.7599 293.4 96.075 293.983 95.677C294.948 94.929 296.326 95.0446 297.154 95.9433C297.649 96.3549 297.95 96.955 297.984 97.5983C298.017 98.2416 297.78 98.8696 297.33 99.3303C296.615 99.8502 295.696 99.9995 294.854 99.7323Z" fill="white"/>
<path fill-rule="evenodd" clip-rule="evenodd" d="M300.138 375.26C306.611 376.407 313.166 377.038 319.739 377.146C326.243 377.195 332.717 376.257 338.94 374.365C354.213 369.649 361.441 357.757 359.293 340.879C357.976 330.534 355.344 324.569 348.461 316.333C343.155 309.984 334.731 304.593 326.583 299.379L326.574 299.373C319.74 294.999 312.675 290.476 307.773 285.537C301.888 279.325 295.468 271.639 292.465 261.733C290.247 254.415 290.178 246.647 290.111 239.136C290.066 234.079 289.83 225.565 289.531 214.787L289.53 214.749L289.529 214.735C288.63 182.306 287.271 133.311 289.477 117.217C289.58 116.619 289.966 116.107 290.515 115.846C291.549 115.326 293.236 115.448 294.715 116.153C295.489 116.522 296.118 116.889 296.673 117.213L296.688 117.222C298.182 118.095 299.263 118.727 301.4 118.374C302.563 118.185 303.589 117.51 304.224 116.518C305.006 115.241 305.219 113.696 304.81 112.255C304.537 111.053 303.75 110.031 302.656 109.461C301.216 108.745 299.328 108.865 297.048 109.819C295.65 110.458 294.125 110.772 292.588 110.736C291.107 110.605 289.864 109.562 289.479 108.125C288.882 106.648 289.133 104.963 290.136 103.725C291.552 102.306 293.15 101.08 294.889 100.081C295.81 100.334 296.796 100.143 297.556 99.5646C298.036 99.1034 298.309 98.4674 298.312 97.8018C298.304 97.0078 297.968 96.2522 297.384 95.7141C296.445 94.6934 294.879 94.5649 293.786 95.4189C293.109 95.8879 292.743 96.6896 292.831 97.5086C292.855 97.664 292.895 97.8165 292.95 97.9637C291.753 98.965 290.437 99.8141 289.032 100.491C287.312 101.342 285.237 100.966 283.926 99.5652C282.05 97.4399 279.761 95.7199 277.197 94.5106C272.712 92.4603 268.025 92.6704 264.661 95.073C263.246 96.0617 262.162 97.4549 261.552 99.0701C259.739 103.989 263.162 108.157 265.363 110.203L265.427 110.262C267.135 111.852 267.957 112.381 268.465 112.22C268.66 112.157 268.803 111.988 268.833 111.784C268.875 111.396 269.031 111.028 269.282 110.728C269.524 110.527 269.834 110.424 270.149 110.441C270.487 110.441 270.805 110.598 271.011 110.866C271.228 111.266 271.282 111.735 271.161 112.174C270.917 113.266 271.477 114.379 272.5 114.834C277.381 116.84 278.032 117.263 278.742 121.6C280.587 135.571 280.006 177.245 279.581 207.684L279.581 207.706C279.401 220.571 279.246 231.682 279.331 237.299C279.55 251.701 279.799 268.026 277.322 283.774C276.329 291.723 275.571 298.441 274.838 304.935L274.831 304.999C274.098 311.502 273.339 318.225 272.346 326.185C270.987 337.063 271.955 352.997 279.15 362.099C285.124 369.659 291.99 373.964 300.138 375.26ZM270.203 109.793C270.158 109.789 270.113 109.787 270.068 109.787V109.787C269.623 109.791 269.195 109.95 268.855 110.237C268.502 110.608 268.276 111.082 268.21 111.591C268.003 111.543 267.43 111.239 265.87 109.786L265.806 109.727C263.723 107.791 260.48 103.861 262.162 99.2949C262.727 97.8023 263.73 96.5153 265.04 95.6024C268.21 93.3363 272.655 93.1491 276.927 95.1022C279.411 96.2746 281.628 97.9419 283.445 100.002C284.951 101.615 287.336 102.052 289.316 101.077C290.844 100.341 292.269 99.408 293.553 98.3008L293.73 98.1434L293.635 97.9263C293.56 97.7644 293.506 97.5932 293.475 97.4172C293.422 96.832 293.692 96.2644 294.18 95.9369C295.017 95.289 296.211 95.392 296.925 96.1737C297.381 96.5916 297.648 97.1779 297.662 97.7968C297.659 98.2879 297.458 98.7572 297.104 99.0974C296.475 99.5296 295.683 99.6499 294.954 99.4237L294.827 99.3825L294.708 99.4428C292.856 100.48 291.158 101.772 289.663 103.28C288.494 104.692 288.187 106.629 288.863 108.333C289.327 110.019 290.793 111.238 292.536 111.384C294.176 111.429 295.805 111.099 297.298 110.418C299.37 109.555 301.122 109.424 302.368 110.043C303.292 110.53 303.955 111.398 304.181 112.418C304.544 113.682 304.362 115.04 303.679 116.163C303.144 117.002 302.277 117.572 301.295 117.733C299.387 118.045 298.495 117.524 297.017 116.661L297.016 116.661L297.012 116.658C296.444 116.326 295.799 115.95 294.994 115.566C293.318 114.767 291.445 114.649 290.222 115.266C289.49 115.622 288.974 116.309 288.836 117.111C286.619 133.278 287.979 182.317 288.88 214.768L288.886 214.975C289.182 225.669 289.416 234.117 289.461 239.142C289.528 246.699 289.598 254.514 291.843 261.921C294.885 271.957 301.365 279.717 307.307 285.99C312.266 290.987 319.366 295.531 326.233 299.926L326.239 299.93C334.342 305.116 342.722 310.48 347.962 316.75C354.753 324.875 357.35 330.758 358.648 340.962C360.751 357.49 353.685 369.132 338.749 373.744C324.946 378.005 312.156 376.512 300.24 374.617C292.26 373.349 285.529 369.122 279.66 361.696C275.241 356.106 270.843 343.472 272.991 326.265C273.983 318.316 274.741 311.6 275.473 305.106L275.477 305.073C276.212 298.56 276.971 291.826 277.965 283.865C280.449 268.075 280.2 251.725 279.982 237.299L279.981 237.289C279.896 231.682 280.051 220.575 280.231 207.715L280.231 207.693C280.656 177.235 281.237 135.533 279.385 121.505C278.637 116.934 277.854 116.331 272.748 114.233C272.017 113.898 271.62 113.098 271.794 112.314C271.96 111.699 271.87 111.042 271.545 110.495C271.23 110.066 270.735 109.807 270.203 109.793Z" fill="black"/>
<path d="M261.368 102.56C263.533 103.687 266.191 103.149 267.747 101.27C269.412 99.1667 269.172 96.1357 267.198 94.3203C267.198 94.3203 264.489 95.1926 263.184 96.8949C261.977 98.5346 261.339 100.524 261.368 102.56V102.56Z" fill="black"/>
<path d="M266.12 97.1966C265.865 97.2534 265.632 97.381 265.447 97.5646C265.144 97.8547 265.604 98.3139 265.906 98.0242C266.012 97.9201 266.147 97.8502 266.293 97.8234C266.701 97.7319 266.528 97.1051 266.12 97.1966H266.12Z" fill="white"/>
<circle cx="278.585" cy="101.606" r="1.02837" fill="black"/>
<path d="M350.765 319.783C362.329 320.321 372.379 327.899 376.078 338.869C376.206 339.265 376.834 339.096 376.705 338.696C372.922 327.448 362.619 319.678 350.765 319.133C350.346 319.119 350.347 319.769 350.765 319.783V319.783Z" fill="black"/>
<path d="M376.245 338.359C374.841 341.63 375.378 345.41 377.637 348.161C378.634 349.341 380.579 350.228 381.606 349.074C382.186 348.424 382.135 347.437 381.976 346.581C381.29 342.878 379.246 340.635 376.245 338.359" fill="black"/>
<path d="M288.104 138.847C289.371 138.484 290.728 138.96 291.492 140.034C292.142 141.075 291.923 142.437 290.98 143.223C290.1 143.772 289.019 143.893 288.039 143.552" fill="black"/>
<path d="M288.039 148.238C289.949 147.427 291.71 148.985 291.409 150.513C291.108 152.041 289.465 152.313 288.039 151.813" fill="black"/>
<path d="M288.151 156.684C289.88 156.196 292.126 157.435 292.126 159.589C292.126 161.59 290.214 162.527 288.064 162.233" fill="black"/>
<path d="M288.225 165.638C290.581 165.262 292.582 166.68 292.362 169.07C292.185 170.979 290.454 171.789 288.389 171.552" fill="black"/>
<path d="M288.398 174.807C291.264 174.104 293.696 177.118 291.766 179.316C290.947 180.006 289.286 180.174 288.398 180.13" fill="black"/>
<path d="M288.514 183.855C289.772 183.643 291.064 183.811 292.226 184.336C293.197 184.992 293.716 186.138 293.569 187.3C293.347 189.201 290.124 189.888 288.514 189.427" fill="black"/>
<path d="M288.875 193.471C289.864 193.378 291.824 193.216 292.88 194.162C294.096 195.203 294.326 196.996 293.411 198.31C292.511 199.471 290.331 200.041 288.875 199.699" fill="black"/>
<path d="M289.152 203.004C290.297 202.783 291.48 202.91 292.552 203.368C293.973 204.169 293.973 205.416 293.39 206.572C292.822 207.698 290.408 208.034 289.152 207.919" fill="black"/>
<path d="M289.152 212.185C290.186 212.185 291.821 211.919 292.953 212.694C294.133 213.616 294.43 215.28 293.642 216.553C292.807 217.791 290.732 217.866 289.582 217.768" fill="black"/>
<path d="M289.381 221.137C292.078 220.626 293.861 221.354 293.86 224.003C293.86 225.941 290.876 225.904 289.581 225.833" fill="black"/>
<path d="M302.023 313.21C300.907 312.826 300.263 310.696 299.912 309.739C299.433 308.437 298.96 307.138 299.564 305.782C300.432 304.026 301.478 302.364 302.687 300.822C304.647 298.142 305.874 301.391 306.509 302.948C307.061 304.293 307.519 305.675 307.88 307.083C308.097 307.934 308.703 309.622 308.212 310.46C307.764 311.224 306.215 311.759 305.461 312.108C304.473 312.566 303.076 313.324 301.937 313.198C301.522 313.152 301.525 313.803 301.937 313.848C302.945 313.96 304.057 313.416 304.96 313.037C306.195 312.609 307.353 311.985 308.389 311.188C309.853 309.854 308.45 306.542 307.959 305.034C307.47 303.531 306.247 298.63 304.092 298.809C302.565 298.936 301.323 301.616 300.64 302.69C299.767 304.062 298.509 305.64 298.598 307.364C298.761 308.631 299.14 309.861 299.72 311C300.152 311.993 300.728 313.451 301.85 313.837C302.247 313.973 302.417 313.345 302.023 313.21Z" fill="black"/>
<path d="M317.911 310.117C317.448 312.425 316.539 315.034 316.579 317.394C316.604 318.82 317.513 319.876 318.663 320.64C321.865 322.769 324.538 320.23 325.288 317.043C325.807 314.839 326.931 311.383 324.345 310.136C322.942 309.525 321.45 309.142 319.925 309.002C318.91 308.892 318.284 309.118 317.911 310.117C317.765 310.51 318.393 310.679 318.538 310.29C319.081 308.833 322.945 310.229 323.919 310.662C326.132 311.646 325.13 314.809 324.709 316.664C324.377 318.127 323.864 319.745 322.422 320.483C320.865 321.279 319.154 320.469 318.059 319.298C316.779 317.928 317.362 316.228 317.688 314.572C317.97 313.145 318.253 311.717 318.538 310.29C318.62 309.882 317.994 309.707 317.911 310.117Z" fill="black"/>
<path d="M282.669 330.755C283.791 332.808 284.781 335.419 286.334 337.176C287.278 338.245 288.659 338.456 290.029 338.294C293.6 337.872 294.273 334.488 292.924 331.622C292.027 329.717 290.523 326.008 287.862 326.526C286.482 326.906 285.17 327.499 283.972 328.283C282.947 328.871 282.243 329.413 282.636 330.678C282.76 331.076 283.388 330.906 283.263 330.505C282.775 328.939 286.942 327.327 288.035 327.152C290.052 326.831 291.327 329.924 292.085 331.395C292.7 332.591 293.275 333.947 292.925 335.324C292.476 337.093 290.713 337.754 289.07 337.69C287.191 337.617 286.458 336.293 285.635 334.799C284.832 333.343 284.03 331.885 283.23 330.427C283.029 330.06 282.468 330.388 282.669 330.755Z" fill="black"/>
<path d="M344.346 318.253C342.252 317.191 339.977 315.609 337.694 315.024C336.35 314.755 334.962 315.185 334.006 316.167C331.219 318.596 332.703 321.832 335.52 323.41C337.52 324.531 340.686 326.645 342.611 324.446C343.575 323.257 344.343 321.922 344.887 320.491C345.265 319.541 345.209 318.879 344.346 318.253C344.007 318.007 343.682 318.571 344.018 318.815C345.264 319.718 342.882 323.109 342.215 323.901C340.638 325.773 337.723 323.877 336.034 322.95C334.79 322.267 333.63 321.43 333.255 319.997C332.803 318.275 333.832 316.882 335.284 316.047C336.946 315.091 338.299 315.934 339.841 316.71C341.234 317.41 342.627 318.111 344.018 318.815C344.39 319.003 344.72 318.443 344.346 318.253Z" fill="black"/>
<path d="M288.882 289.335C291.181 288.913 293.978 288.794 296.127 287.862C297.535 287.252 298.186 285.817 298.392 284.355C298.889 280.842 295.681 279.477 292.687 279.904C290.461 280.221 286.676 280.448 286.462 283.326C286.434 284.789 286.613 286.247 286.994 287.659C287.233 288.701 287.637 289.373 288.795 289.346C288.971 289.34 289.109 289.197 289.109 289.021C289.109 288.846 288.971 288.702 288.795 288.696C287.172 288.734 286.987 284.481 287.112 283.326C287.345 281.167 290.492 280.915 292.223 280.631C293.621 280.401 295.17 280.229 296.433 281.042C297.969 282.031 298.033 283.907 297.45 285.45C296.769 287.253 295.296 287.48 293.614 287.795C291.979 288.101 290.344 288.405 288.709 288.708C288.298 288.783 288.472 289.41 288.882 289.335Z" fill="black"/>
<path d="M346.883 343.161C347.823 341.371 349.219 339.433 349.742 337.474C349.988 336.349 349.658 335.176 348.862 334.344C346.774 331.768 343.879 333.039 342.442 335.537C341.432 337.294 339.628 339.966 341.568 341.654C342.708 342.646 345.608 344.867 346.883 343.161C347.133 342.826 346.569 342.502 346.322 342.833C345.575 343.832 342.77 341.822 342.118 341.261C340.497 339.869 342.089 337.487 342.904 336.042C343.334 335.092 344.052 334.301 344.956 333.781C346.634 333.011 348.237 334.168 348.945 335.657C349.614 337.063 348.612 338.442 347.975 339.666C347.425 340.723 346.874 341.778 346.322 342.833C346.127 343.203 346.688 343.532 346.883 343.161Z" fill="black"/>
<path d="M321.857 336.529C321.133 334.674 322.579 333.601 324.012 332.775C325.196 332.093 326.492 331.225 327.855 330.978C331.733 330.276 331.694 335.989 331.649 338.426C331.645 339.869 331.488 341.308 331.181 342.718C330.999 343.489 330.763 344.465 330.022 344.908C328.691 345.702 327.369 344.225 326.593 343.425C324.649 341.364 323.04 339.011 321.825 336.452C321.639 336.077 321.078 336.406 321.263 336.78C322.206 338.763 323.377 340.63 324.751 342.343C325.786 343.591 327.151 345.463 328.882 345.736C332.718 346.34 332.335 338.881 332.293 336.754C332.238 333.907 331.282 329.503 327.483 330.4C325.607 330.923 323.864 331.837 322.366 333.081C321.192 334.048 320.659 335.239 321.231 336.702C321.381 337.088 322.01 336.92 321.857 336.529Z" fill="black"/>
<path d="M313.554 364.731C313.536 367.631 308.783 367.751 306.684 367.64C302.4 367.413 303.833 362.609 304.872 360.044C305.394 358.714 306.029 357.431 306.77 356.209C307.11 355.517 307.583 354.899 308.161 354.389C309.91 353.213 310.781 354.316 311.425 355.626C312.71 358.497 313.433 361.588 313.554 364.731C313.583 365.146 314.234 365.149 314.204 364.731C314.08 362.41 313.671 360.112 312.986 357.891C312.49 356.374 311.84 353.887 310.114 353.294C306.827 352.164 304.655 358.738 303.855 360.868C302.733 363.853 302.52 368.107 306.684 368.29C309.205 368.401 314.183 368.194 314.204 364.731C314.198 364.556 314.054 364.417 313.879 364.417C313.704 364.417 313.56 364.556 313.554 364.731V364.731Z" fill="black"/>
<path d="M322.29 354.885C321.991 358.294 321.22 362.34 323.789 365.078C324.953 366.318 326.954 368.013 328.66 368.301C330.261 368.572 330.579 367.008 330.903 365.795C331.828 362.329 332.578 357.971 329.332 355.534C327.817 354.397 322.85 351.209 322.302 354.799C322.239 355.208 322.866 355.384 322.929 354.971C323.371 352.072 328.572 355.598 329.641 356.63C331.988 358.897 330.973 363.09 330.213 365.856C330.167 366.218 330.065 366.57 329.91 366.9C329.331 367.541 328.368 367.657 327.653 367.172C327.035 366.819 326.44 366.427 325.872 365.998C324.434 364.946 323.217 363.753 322.821 361.947C322.321 359.67 322.739 357.178 322.94 354.885C322.977 354.468 322.327 354.471 322.29 354.885Z" fill="black"/>
<path d="M340.805 353.57C340.404 356.499 339.969 359.856 342.397 361.986C343.358 362.828 345.209 364.123 346.602 363.814C347.985 363.506 348.565 361.45 348.923 360.331C349.789 357.618 351.25 352.617 347.437 351.565C345.935 351.164 344.367 351.075 342.829 351.304C341.495 351.52 341.015 352.261 340.805 353.57C340.74 353.979 341.366 354.156 341.432 353.743C341.664 352.289 342.414 351.931 343.78 351.879C344.894 351.817 346.01 351.908 347.099 352.149C350.492 352.972 349.106 357.483 348.385 359.878C347.846 361.669 347.024 363.794 344.742 362.744C343.528 362.228 342.488 361.373 341.745 360.283C340.705 358.58 341.174 355.629 341.432 353.743C341.488 353.334 340.862 353.157 340.805 353.57Z" fill="black"/>
<path d="M283.509 357.979C283.5 356.219 283.635 354.462 283.914 352.725C284.029 352.027 284.172 351.333 284.327 350.642C284.525 349.762 284.552 348.887 285.376 348.46C286.55 347.853 288.624 348.383 289.822 348.819C291.575 349.456 292.302 350.784 292.956 352.419C293.432 353.609 293.897 354.815 294.254 356.046C294.441 356.686 294.59 357.337 294.701 357.994C294.832 358.784 294.875 359.814 294.061 360.338C293.769 360.526 292.927 360.402 292.559 360.408C291.071 360.451 289.582 360.351 288.113 360.11C286.882 359.89 283.855 359.348 283.498 357.892C283.398 357.486 282.771 357.658 282.871 358.065C283.238 359.561 285.305 360.071 286.601 360.431C288.738 360.961 290.942 361.169 293.141 361.049C294.753 361.003 295.593 360.416 295.461 358.719C295.297 356.606 294.478 354.543 293.717 352.59C293.156 351.15 292.609 349.682 291.261 348.802C289.632 347.875 287.766 347.449 285.897 347.577C284.095 347.675 283.969 349.229 283.641 350.731C283.12 353.111 282.858 355.542 282.859 357.979C282.865 358.154 283.009 358.293 283.184 358.293C283.36 358.293 283.504 358.154 283.509 357.979Z" fill="black"/>
<path d="M280.349 306.58C280.535 308.56 280.755 310.837 281.687 312.633C282.242 313.703 283.131 313.934 284.293 313.842C286.093 313.699 289.794 312.994 289.838 310.685C289.77 307.815 288.844 305.031 287.177 302.693C286.519 301.863 285.907 301.869 285.01 302.405C283.861 303.178 282.753 304.01 281.689 304.898C280.985 305.427 280.399 305.674 280.349 306.58C280.327 306.998 280.977 306.996 280.999 306.58C281.041 305.816 282.668 304.971 283.204 304.569C283.87 303.977 284.584 303.441 285.338 302.966C286.535 302.359 286.858 303.28 287.34 304.241C288.344 306.127 288.967 308.192 289.173 310.318C289.325 311.039 288.917 311.76 288.22 312C287.181 312.536 286.066 312.909 284.913 313.106C284.271 313.279 283.593 313.27 282.955 313.081C282.42 312.709 282.052 312.142 281.932 311.501C281.429 309.903 281.116 308.251 280.999 306.58C280.961 306.167 280.31 306.163 280.349 306.58Z" fill="black"/>
<path d="M300.552 333.784C300.699 335.829 301.07 337.852 301.659 339.816C301.967 340.771 302.337 341.959 303.323 342.401C305.487 343.373 309.24 341.922 311.072 340.712C312.68 339.65 311.932 337.25 311.539 335.7C310.982 333.506 310.175 330.413 308.517 328.746C307.352 327.576 306.067 328.852 305.035 329.627C303.847 330.519 302.659 331.411 301.471 332.303C300.871 332.753 300.549 333.009 300.552 333.784C300.558 333.959 300.702 334.097 300.877 334.097C301.053 334.097 301.196 333.959 301.202 333.784C301.197 332.793 303.478 331.603 304.175 331.08C305.051 330.422 306.057 329.376 307.134 329.106C307.933 328.906 307.991 329.053 308.446 329.718C308.746 330.177 309.01 330.658 309.236 331.157C310.29 333.366 311.304 336.077 311.367 338.554C311.395 339.676 311.021 340.048 310.041 340.539C308.713 341.207 307.288 341.663 305.819 341.89C305.081 342.069 304.307 342.036 303.586 341.796C302.872 341.448 302.592 340.548 302.35 339.845C301.728 337.877 301.343 335.842 301.202 333.784C301.164 333.37 300.514 333.366 300.552 333.784Z" fill="black"/>
<path d="M272.175 387.977C274.255 388.733 276.383 389.35 278.545 389.823C278.252 390.994 277.778 392.112 277.141 393.138C276.518 393.872 275.59 394.278 274.627 394.238C273.664 394.197 272.774 393.714 272.214 392.93C271.454 391.721 271.87 389.348 272.175 387.977Z" fill="black"/>
<path d="M295.945 392.823C295.637 394.096 295.08 395.296 294.308 396.355C293.066 397.817 290.297 397.063 289.53 395.711C288.841 394.509 289.108 392.377 289.296 391.305C291.484 391.929 293.703 392.436 295.945 392.823Z" fill="black"/>
<path d="M334.11 392.062C334.381 393.678 334.316 395.877 333.068 396.651C331.963 397.34 330.253 397.587 329.155 396.014C328.587 395.015 328.171 393.937 327.92 392.816C329.279 392.722 332.161 392.261 334.11 392.062Z" fill="black"/>
<path d="M351.346 394.778C350.078 395.884 348.164 395.795 347.004 394.576C346.243 393.738 345.759 392.085 345.492 390.889C347.657 390.704 349.806 390.365 351.923 389.875C351.943 390.031 352.623 393.52 351.346 394.778Z" fill="black"/>
</svg>
