<svg width="550" height="580" viewBox="0 0 550 580" fill="none" xmlns="http://www.w3.org/2000/svg">
<rect opacity="0.01" width="550" height="580" fill="white"/>
<path fill-rule="evenodd" clip-rule="evenodd" d="M371.559 164.987L451.915 572.392C452.095 573.302 451.905 574.247 451.388 575.018C450.872 575.789 450.07 576.323 449.159 576.503C448.934 576.547 448.706 576.57 448.477 576.57C446.807 576.568 445.371 575.386 445.048 573.747L367.41 180.12L307.099 428.199L332.549 572.461C332.71 573.375 332.502 574.316 331.97 575.077C331.437 575.837 330.625 576.355 329.711 576.517C329.509 576.552 329.304 576.57 329.098 576.57C327.401 576.568 325.951 575.349 325.656 573.678L302.98 445.141L271.678 573.897C271.382 575.112 270.461 576.077 269.261 576.428C268.061 576.78 266.765 576.465 265.86 575.601C264.956 574.738 264.581 573.457 264.876 572.242L283.725 494.711L170.682 489.141L147.891 573.978C147.568 575.187 146.624 576.131 145.415 576.454C144.206 576.778 142.917 576.431 142.033 575.546C141.149 574.66 140.805 573.37 141.131 572.161L165.351 482L165.358 481.869L165.386 481.871L254.828 148.921C255.33 147.054 257.25 145.947 259.117 146.449C260.984 146.95 262.091 148.871 261.589 150.737L259.513 158.464L259.729 159.688L363.924 164.822L366.524 154.128C366.981 152.249 368.874 151.096 370.752 151.553C372.631 152.009 373.783 153.902 373.327 155.781L371.285 164.182C371.409 164.438 371.501 164.709 371.559 164.987ZM344.307 245.516L362.241 171.747L260.977 166.758L274.24 241.938L344.307 245.516ZM303.349 406.946L290.017 331.373L323.067 332.883L305.041 407.029L303.349 406.946ZM267.067 241.572L255.223 174.435L237.592 240.067L267.067 241.572ZM268.315 248.645L281.605 323.981L215.857 320.977L235.735 246.981L268.315 248.645ZM296.179 406.592L282.852 331.045L213.997 327.899L194.207 401.569L296.179 406.592ZM288.771 324.309L275.487 249.011L342.624 252.44L324.752 325.953L288.771 324.309ZM172.54 482.223L285.409 487.785L299.951 427.969L297.427 413.663L192.348 408.486L172.54 482.223Z" fill="black"/>
<path d="M272.057 467.614C272.817 469.298 272.121 470.891 271.958 472.502C271.693 474.209 272.233 475.943 273.42 477.198C275.106 478.82 277.71 479.116 279.977 479.694C282.784 480.41 286.267 480.903 289.074 481.618C290.173 481.889 291.107 482.61 291.648 483.604C292.166 484.987 292.09 487.387 290.445 487.567C289.305 487.692 283.199 487.659 281.18 487.545C276.08 487.413 273.957 487.472 268.856 487.34C267.942 487.343 267.047 487.071 266.29 486.559C265.78 485.862 265.385 485.088 265.118 484.266C264.396 482.822 262.411 481.74 261.716 483.65C261.088 485.951 260.367 486.441 258.982 486.522C257.541 486.648 256.091 486.42 254.758 485.859C251.756 482.786 255.655 470.883 260.148 466.18L272.057 467.614Z" fill="black"/>
<path d="M215.508 517.867C216.239 519.564 216.022 521.667 215.943 523.284C215.858 525.022 216.125 529.686 225.232 533.584C227.895 534.724 231.091 536.172 233.666 537.499C234.676 538.009 235.425 538.921 235.729 540.012C235.924 541.475 235.311 543.797 233.668 543.604C230.828 543.317 228.005 542.879 225.212 542.292C220.271 541.019 218.192 540.461 213.251 539.188C212.181 538.95 211.173 538.49 210.291 537.838C209.897 537.472 209.839 536.005 209.685 535.064C209.514 533.584 209.277 533.174 208.166 532.986C207.227 532.826 206.66 533.518 206.297 534.952C205.79 537.282 205.095 537.81 203.717 537.963C202.284 538.164 200.824 538.012 199.463 537.522C196.047 535.924 200.94 518.912 203.985 516.758L215.508 517.867Z" fill="black"/>
<path d="M336.054 172.617C340.329 172.647 344.589 172.093 348.714 170.97C353.365 169.562 356.749 167.67 356.74 164.712C356.266 162.916 354.281 161.865 351.467 161.382C350.874 161.301 350.306 161.093 349.801 160.773C349.502 160.533 349.218 160.275 348.951 160.001C348.374 159.492 347.166 158.526 346.133 158.721C339.02 159.291 334.548 166.039 334.557 166.732L336.054 172.617Z" fill="white"/>
<path d="M336.055 173.121C338.943 173.234 341.833 172.992 344.662 172.399C348.148 171.808 352.113 170.88 354.973 168.675C356.491 167.506 357.966 165.441 356.768 163.556C356.154 162.695 355.298 162.037 354.309 161.664C353.421 161.359 352.517 161.105 351.601 160.903C350.686 160.585 349.838 160.102 349.097 159.477C344.601 156.107 338.24 160.758 335.356 164.453C334.627 165.387 334.033 166.105 334.176 167.262C334.529 169.119 334.995 170.953 335.573 172.754C335.654 173.011 335.924 173.158 336.184 173.086C336.443 173.015 336.6 172.75 336.537 172.488L335.556 168.632C335.24 167.388 334.882 166.931 335.428 166.068C337.711 162.465 344.454 156.894 348.598 160.358C350.424 161.884 352.48 161.671 354.475 162.844C358.899 165.447 353.451 168.708 350.914 169.697C346.194 171.569 341.125 172.395 336.055 172.121C335.414 172.067 335.417 173.067 336.055 173.121Z" fill="black"/>
<path d="M196.658 262.727C206.691 342.807 211.685 434.179 203.275 510.479C202.98 512.561 202.346 517.277 205.974 517.858C208.32 518.321 210.704 518.565 213.094 518.584C216.746 518.598 217.427 515.01 218.168 512.827C223.188 494.648 244.174 367.718 244.788 298.712L196.658 262.727Z" fill="black"/>
<path d="M274.29 54.1365C273.438 48.7595 271.662 43.5707 269.039 38.8C264.075 29.4244 258.13 29.1421 254.265 30.0567C249.719 31.1326 245.773 35.3892 244.434 45.884C243.101 56.3311 242.253 64.2632 240.731 77.6991C240.655 78.3655 240.264 80.0788 240.099 80.7289C237.238 92.0159 222.965 95.9196 214.029 103.608C202.79 113.277 191.445 131.829 186.687 145.87C181.018 162.601 176.842 180.052 181.684 193.287C185.54 202.856 193.785 205.335 209.448 207.039C220.752 208.269 240.622 208.48 250.447 203.122C256.692 199.715 261.46 194.124 263.836 187.419C265.72 182.401 265.716 178.144 266.04 172.795C267.02 156.588 258.492 131.506 263.262 123.804C263.964 122.505 265.583 121.621 268.502 121.784C304.49 123.792 316.858 123.916 325.872 123.747C331.111 123.649 339.565 122.803 343.188 117.248C346.297 112.481 344.226 104.793 339.991 98.2704C332.28 86.3956 304.026 62.0811 291.957 54.1364C291.957 54.1364 288.798 51.9016 286.778 54.1329C284.142 57.0433 285.813 58.5702 285.813 58.5702C303.592 75.255 321.453 93.8382 325.253 99.4455C331.015 107.948 319.846 107.239 311.628 105.931C296.905 103.228 288.924 101.474 273.819 98.6031C267.125 97.3309 251.709 93.9861 249.135 86.4649C248.39 84.2859 248.946 78.9055 251.552 77.0303C255.005 74.546 263.08 77.1769 267.915 75.383C273.659 73.2516 274.109 67.5064 274.594 62.3996C274.651 61.7972 274.691 61.1849 274.712 60.5627" fill="white"/>
<path d="M243.105 54.3265C241.519 54.3235 240.703 52.9828 240.277 51.4624C239.838 49.9544 239.561 48.4041 239.45 46.8375C239.254 43.1256 239.746 39.4094 240.9 35.8761C242.583 30.81 246.529 26.8158 251.573 25.0694C256.618 23.3231 262.188 24.0235 266.644 26.9643C268.268 27.9501 269.579 29.3771 270.424 31.0791C271.257 32.8155 271.127 34.8606 270.079 36.4767C268.844 37.9537 266.992 38.7714 265.069 38.6884C263.176 38.5911 261.301 38.2784 259.478 37.7564C257 37.0809 254.401 36.9712 251.875 37.4355C249.316 37.9354 247.181 39.69 246.195 42.1033C245.488 44.1692 245.961 46.423 246.077 48.6034C246.193 50.7839 247.044 54.3337 243.105 54.3265Z" fill="black"/>
<path d="M274.291 54.1328C274.419 55.2706 275.661 56.1517 276.779 56.6179C277.59 56.8859 278.381 57.208 279.148 57.5821C280.395 58.4247 279.875 59.952 278.46 60.5338C277.233 60.8595 275.944 60.8682 274.712 60.5591" fill="white"/>
<path fill-rule="evenodd" clip-rule="evenodd" d="M292.246 53.7242C305.014 62.1295 332.821 86.3067 340.41 97.9938C344.253 103.911 347.11 112.147 343.607 117.517C340.806 121.811 334.843 124.074 325.883 124.243C317.842 124.394 306.115 124.379 268.475 122.279C266.051 122.145 264.397 122.752 263.702 124.037C261.087 128.262 262.647 138.202 264.299 148.725L264.3 148.73C265.612 157.087 266.968 165.729 266.539 172.82C266.498 173.498 266.462 174.158 266.427 174.805L266.427 174.806C266.185 179.277 265.976 183.138 264.304 187.59C261.89 194.41 257.04 200.096 250.687 203.556C244.059 207.171 233.085 208.251 223.318 208.251C218.668 208.255 214.02 208.015 209.394 207.532C193.446 205.796 185.162 203.25 181.221 193.47C176.07 179.392 181.183 160.549 186.213 145.705C191.347 130.554 203.165 112.291 213.703 103.225C216.855 100.682 220.211 98.404 223.737 96.4127L223.737 96.4125C230.941 92.0723 237.746 87.9727 239.614 80.6017C239.794 79.8917 240.165 78.2477 240.234 77.6388L241.141 69.5899C242.159 60.5397 242.893 54.0011 243.938 45.816C245.146 36.3512 248.582 30.8839 254.15 29.566C260.382 28.0909 265.54 31.1173 269.481 38.5616C272.115 43.3548 273.904 48.5658 274.769 53.966C274.77 53.9713 274.773 53.9755 274.775 53.9796C274.778 53.9848 274.781 53.9898 274.782 53.9966C275.068 55.3428 276.386 55.8307 277.67 56.3057C279.027 56.8076 280.344 57.295 280.362 58.7648C280.394 61.3822 277.156 61.3848 275.175 61.1362C275.173 61.1869 275.17 61.2377 275.168 61.2884C275.148 61.676 275.128 62.0636 275.092 62.4425L275.068 62.7013C274.581 67.8297 274.03 73.6427 268.089 75.8473C265.743 76.7174 262.735 76.5914 259.826 76.4689L259.8 76.4678C256.582 76.3344 253.544 76.2085 251.844 77.4317C249.444 79.1588 248.944 84.3561 249.609 86.2984C250.809 89.8072 256 94.7042 273.912 98.1075C280.459 99.3517 285.647 100.382 290.665 101.379C297.203 102.677 303.378 103.903 311.718 105.435C322.014 107.072 325.187 105.824 326.038 104.488C326.69 103.462 326.287 101.858 324.839 99.7218C320.956 93.9923 302.928 75.3126 285.471 58.9308C285.392 58.859 283.471 57.0353 286.407 53.7931C288.238 51.7682 291.028 52.8619 292.246 53.7242ZM325.863 123.243C334.472 123.081 340.161 120.97 342.769 116.971C346.01 112.002 343.242 104.192 339.572 98.5386C332.044 86.9444 304.399 62.9214 291.682 54.5498C291.555 54.4605 288.845 52.5923 287.148 54.4639C284.91 56.9356 286.104 58.1514 286.156 58.2022C303.656 74.6245 321.75 93.3814 325.667 99.1607C327.359 101.658 327.767 103.631 326.882 105.024C325.391 107.369 320.373 107.825 311.55 106.42C303.19 104.886 297.012 103.659 290.471 102.359L290.43 102.351C285.427 101.358 280.25 100.33 273.726 99.0899C258.966 96.2857 250.534 92.0909 248.662 86.6226C247.878 84.3302 248.421 78.6626 251.26 76.6202C253.241 75.1952 256.448 75.328 259.845 75.4688L259.868 75.4698L259.87 75.4698C262.677 75.5875 265.585 75.7093 267.741 74.9097C273.094 72.9235 273.591 67.6794 274.072 62.6075L274.072 62.6065L274.097 62.3477C274.153 61.7549 274.191 61.1529 274.212 60.5415L274.222 60.5418C274.239 60.3945 274.315 60.2605 274.433 60.1708C274.551 60.0811 274.701 60.0435 274.847 60.0666C274.902 60.0757 274.958 60.0852 275.016 60.0949C276.225 60.299 278.012 60.6007 278.925 59.6386C280.11 58.389 278.344 57.7348 277.388 57.386C275.859 56.828 274.168 56.0104 273.799 54.2677C273.797 54.2466 273.797 54.2254 273.798 54.2043L273.796 54.2046C272.953 48.8838 271.194 43.7493 268.597 39.0293C264.896 32.0391 260.112 29.1841 254.381 30.5391C249.259 31.751 246.079 36.9336 244.93 45.9429C243.886 54.1202 243.152 60.6558 242.135 69.7017L241.228 77.751C241.148 78.4595 240.74 80.2285 240.584 80.8472C238.615 88.6172 231.313 93.0157 224.253 97.2691C220.776 99.2324 217.465 101.478 214.355 103.982C203.935 112.947 192.244 131.022 187.16 146.026C182.183 160.715 177.116 179.341 182.154 193.111C185.899 202.404 193.958 204.846 209.503 206.538C219.915 207.67 240.208 208.132 250.208 202.678C256.349 199.332 261.036 193.833 263.367 187.239C264.986 182.93 265.191 179.14 265.428 174.751C265.464 174.102 265.5 173.44 265.541 172.76C265.963 165.775 264.615 157.186 263.311 148.88L263.31 148.876C261.629 138.165 260.042 128.05 262.837 123.536C263.445 122.411 264.938 121.08 268.531 121.281C306.133 123.379 317.841 123.395 325.863 123.243Z" fill="black"/>
<path d="M264.058 49.9138C265.317 48.399 267.195 47.5372 269.165 47.5705C269.569 47.5563 269.889 47.2247 269.889 46.8205C269.889 46.4162 269.569 46.0846 269.165 46.0705C266.668 46.0548 264.305 47.1941 262.762 49.1567C262.174 49.9215 263.477 50.6692 264.058 49.9138H264.058Z" fill="black"/>
<circle cx="268.492" cy="51.9042" r="0.9745" fill="black"/>
<path d="M285.261 57.1614C282.259 54.5532 279.236 50.685 276.627 48.5914C274.666 46.807 272.336 45.4757 269.803 44.6919C267.891 44.3613 265.943 44.2897 264.012 44.4791C261.344 44.5435 258.951 44.4804 258.251 43.7247C257.817 43.2556 257.563 41.9484 259.144 41.3367C263.689 39.5633 264.815 38.8798 269.55 38.6218C273.645 38.3988 276.305 39.2332 280.114 40.6272C284.471 42.2212 288.809 46.4952 291.153 52.6277C289.642 52.3173 288.078 52.7993 287.004 53.906C286.081 54.7706 285.469 55.9145 285.261 57.1614Z" fill="white"/>
<path d="M285.614 56.8102C281.397 53.0366 278.059 48.1914 272.993 45.4399C270.87 44.3127 268.481 43.7836 266.081 43.9092C264.551 43.9437 263.019 44.0536 261.487 43.9824C260.708 44.0736 259.919 43.9613 259.196 43.6564C257.826 42.6585 259.131 41.8278 261.176 41.07C266.563 39.0739 271.946 38.4653 277.495 40.242C283.608 42.1182 288.485 46.7539 290.67 52.7629L291.285 52.1478C289.75 51.9186 288.188 52.3236 286.957 53.2696C285.727 54.2156 284.934 55.6213 284.761 57.1637C284.71 57.8053 285.71 57.8019 285.761 57.1637C286.112 54.6031 288.454 52.7988 291.019 53.1121C291.351 53.1805 291.788 52.8797 291.634 52.497C289.149 46.3046 284.917 41.7047 278.561 39.5454C272.035 37.3286 266.097 38.0469 259.824 40.5369C258.544 41.0449 256.688 42.0334 257.648 43.7315C258.676 45.5487 262.344 45.0206 264.011 44.9814C266.167 44.7592 268.346 44.9042 270.454 45.4101C272.599 46.2124 274.573 47.4124 276.273 48.9472C279.402 51.5335 281.884 54.8117 284.907 57.5172C285.385 57.9453 286.095 57.2404 285.614 56.8102Z" fill="black"/>
<path d="M237.534 122.891C241.805 137.897 247.414 158.864 251.862 162.342C254.576 164.465 259.5 165.716 263.374 166.069C293.248 168.795 309.251 167.919 335.633 165.592C335.647 165.591 335.661 165.588 335.675 165.586C335.847 165.554 337.074 165.446 337.725 168.571C338.612 172.828 336.243 173.362 336.243 173.362C310.702 181.024 285.217 182.928 258.35 181.566C251.079 181.197 242.061 179.43 237.576 175.777C234.44 173.223 230.47 166.473 228.722 163.517C220.411 149.459 218.02 142.647 211.82 127.539" fill="white"/>
<path d="M273.907 182.473C268.853 182.473 263.668 182.337 258.324 182.066C251.2 181.704 241.926 179.964 237.26 176.165C234.093 173.585 230.218 167.03 228.356 163.881L228.292 163.772C221.024 151.479 218.218 144.579 213.568 133.147C212.88 131.455 212.15 129.659 211.358 127.729C211.29 127.563 211.315 127.375 211.425 127.233C211.534 127.092 211.71 127.019 211.887 127.043C212.064 127.067 212.215 127.184 212.283 127.349C213.076 129.281 213.806 131.077 214.495 132.77C219.126 144.159 221.922 151.034 229.152 163.263L229.217 163.371C230.906 166.23 234.863 172.923 237.892 175.389C242.37 179.037 251.409 180.714 258.375 181.067C287.816 182.56 312.514 179.959 336.1 172.883C336.203 172.856 338.001 172.346 337.235 168.673C336.767 166.435 336.006 166.039 335.764 166.078C308.863 168.455 292.985 169.273 263.328 166.568C259.738 166.24 254.5 165.041 251.554 162.736C247.35 159.449 242.466 142.168 238.156 126.921L237.053 123.027C236.977 122.762 237.131 122.485 237.397 122.41C237.662 122.334 237.939 122.488 238.015 122.754L239.118 126.649C243.175 141.001 248.224 158.863 252.17 161.948C254.945 164.119 259.964 165.256 263.419 165.571C292.996 168.271 308.838 167.455 335.59 165.094C336.026 165.015 337.495 165.022 338.214 168.469C339.191 173.154 336.47 173.823 336.353 173.85C316.967 179.667 296.811 182.473 273.907 182.473Z" fill="black"/>
<path d="M193.527 157.597L197.009 160.504C197.5 160.913 198.211 160.209 197.716 159.796L194.234 156.889C193.743 156.48 193.032 157.184 193.527 157.597Z" fill="black"/>
<path d="M252.777 117.376L248.633 119.223C248.047 119.485 248.555 120.347 249.138 120.087L253.281 118.24C253.868 117.978 253.36 117.116 252.777 117.376Z" fill="black"/>
<path d="M266.208 145.439L262.065 147.286C261.478 147.547 261.986 148.409 262.57 148.149L266.713 146.302C267.3 146.041 266.792 145.179 266.208 145.439Z" fill="black"/>
<path d="M286.79 173.184L289.871 176.513C290.309 176.987 291.015 176.278 290.578 175.806L287.497 172.477C287.059 172.003 286.353 172.712 286.79 173.184Z" fill="black"/>
<path d="M229.522 109.175L226.67 105.647C226.266 105.147 225.562 105.858 225.963 106.354L228.815 109.882C229.219 110.383 229.923 109.671 229.522 109.175Z" fill="black"/>
<path d="M280.422 101.502L278.872 97.2389C278.654 96.6389 277.687 96.8979 277.908 97.5047L279.458 101.768C279.676 102.368 280.643 102.109 280.422 101.502Z" fill="black"/>
<path d="M299.864 116.119L303.993 114.241C304.578 113.975 304.07 113.113 303.488 113.378L299.359 115.256C298.774 115.522 299.282 116.384 299.864 116.119Z" fill="black"/>
<path d="M337.042 108.021L337.619 103.522C337.7 102.886 336.7 102.891 336.619 103.522L336.042 108.021C335.96 108.658 336.961 108.652 337.042 108.021Z" fill="black"/>
<path d="M323.08 81.3533L325.237 77.3624C325.543 76.7961 324.679 76.2906 324.373 76.8576L322.217 80.8486C321.911 81.4148 322.774 81.9203 323.08 81.3533Z" fill="black"/>
<path d="M329.299 121.622L332.478 124.858C332.93 125.318 333.637 124.61 333.185 124.151L330.006 120.915C329.555 120.455 328.848 121.162 329.299 121.622H329.299Z" fill="black"/>
<path d="M197.359 189.55L193.38 191.729C192.815 192.038 193.319 192.902 193.885 192.592L197.863 190.414C198.428 190.105 197.924 189.241 197.359 189.55Z" fill="black"/>
<path d="M213.37 171.371L217.449 169.388C218.028 169.106 217.521 168.244 216.944 168.524L212.865 170.508C212.286 170.789 212.793 171.652 213.37 171.371Z" fill="black"/>
<path d="M235.219 193.401L238.524 196.508C238.992 196.949 239.701 196.243 239.231 195.801L235.926 192.694C235.457 192.253 234.749 192.959 235.219 193.401Z" fill="black"/>
<path d="M233.31 153.013L237.839 152.759C238.478 152.723 238.483 151.723 237.839 151.759L233.31 152.013C232.67 152.049 232.666 153.049 233.31 153.013Z" fill="black"/>
<path d="M257.915 179.764L255.057 183.287C254.656 183.783 255.359 184.494 255.765 183.994L258.622 180.471C259.024 179.976 258.321 179.264 257.915 179.764V179.764Z" fill="black"/>
<path d="M315.819 175.629L314.436 179.949C314.24 180.563 315.205 180.826 315.401 180.215L316.784 175.895C316.98 175.28 316.015 175.017 315.819 175.629Z" fill="black"/>
<path d="M191.625 127.167L194.93 130.274C195.399 130.715 196.107 130.009 195.637 129.567L192.332 126.46C191.864 126.019 191.155 126.725 191.625 127.167Z" fill="black"/>
<path d="M218.203 195.979L217.154 192.031C217.073 191.773 216.803 191.626 216.543 191.698C216.283 191.769 216.127 192.034 216.19 192.296L217.239 196.245C217.319 196.502 217.589 196.649 217.849 196.578C218.109 196.506 218.266 196.241 218.203 195.979Z" fill="black"/>
<path d="M177.913 178.203L181.997 178.288C182.267 178.278 182.48 178.057 182.48 177.788C182.48 177.518 182.267 177.297 181.997 177.288L177.913 177.203C177.643 177.212 177.43 177.434 177.43 177.703C177.43 177.973 177.643 178.194 177.913 178.203Z" fill="black"/>
<path d="M265.46 66.683C266.144 68.1087 267.464 69.4564 269.164 69.3051C269.8 69.2485 269.806 68.2479 269.164 68.3051C267.803 68.4262 266.862 67.3009 266.324 66.1783C266.046 65.5983 265.183 66.1049 265.46 66.683Z" fill="black"/>
<path d="M247.64 49.2399C247.031 47.8591 245.083 47.5729 243.763 48.3062C242.283 49.1288 241.677 50.5271 241.809 52.4792C241.963 54.0832 242.889 55.5114 244.29 56.3069C245.704 57.1789 247.523 57.0103 248.753 55.8937L247.64 49.2399Z" fill="white"/>
<path d="M248.072 48.9909C247.231 47.584 245.478 47.0172 243.972 47.6654C242.391 48.3178 241.344 49.8427 241.305 51.5528C241.031 55.5635 245.665 59.2646 249.106 56.2505C249.591 55.8257 248.881 55.1208 248.399 55.5434C245.791 57.8275 242.284 54.9447 242.291 52.0061C242.214 50.8254 242.728 49.6836 243.664 48.9589C244.191 48.5232 244.879 48.3328 245.556 48.4352C246.233 48.5376 246.833 48.9233 247.208 49.4956C247.521 50.0583 248.385 49.5545 248.072 48.9909H248.072Z" fill="black"/>
<path d="M249.29 40.5625C249.559 40.5532 249.773 40.3321 249.773 40.0625C249.773 39.7929 249.559 39.5718 249.29 39.5625C249.02 39.5718 248.807 39.7929 248.807 40.0625C248.807 40.3321 249.02 40.5532 249.29 40.5625Z" fill="black"/>
<path d="M252.508 40.0234C252.778 40.0141 252.991 39.793 252.991 39.5234C252.991 39.2539 252.778 39.0328 252.508 39.0234C252.239 39.0328 252.025 39.2539 252.025 39.5234C252.025 39.793 252.239 40.0141 252.508 40.0234Z" fill="black"/>
<path d="M250.711 43.4219C250.981 43.4125 251.194 43.1914 251.194 42.9219C251.194 42.6523 250.981 42.4312 250.711 42.4219C250.442 42.4312 250.229 42.6523 250.229 42.9219C250.229 43.1914 250.442 43.4125 250.711 43.4219Z" fill="black"/>
<path d="M247.479 43.75C247.748 43.7407 247.962 43.5196 247.962 43.25C247.962 42.9804 247.748 42.7593 247.479 42.75C247.21 42.7593 246.996 42.9804 246.996 43.25C246.996 43.5196 247.21 43.7407 247.479 43.75Z" fill="black"/>
<path d="M245.373 49.6454C244.645 49.8159 244.038 50.3162 243.732 50.9983C243.426 51.6804 243.455 52.4663 243.811 53.1237C243.955 53.3518 244.254 53.4248 244.487 53.2886C244.72 53.1525 244.803 52.8563 244.675 52.619C244.472 52.2301 244.464 51.7684 244.654 51.373C244.844 50.9775 245.209 50.6947 245.639 50.6096C246.268 50.4766 246.002 49.5125 245.373 49.6454Z" fill="black"/>
<path d="M245.441 52.3357C245.88 52.7727 246.023 53.4255 245.808 54.0059C245.578 54.6077 246.544 54.8681 246.772 54.2718C247.115 53.2578 246.784 52.1377 245.946 51.4723C245.417 51.1036 244.916 51.9701 245.441 52.3357Z" fill="black"/>
<path d="M255.2 91.1103C255.632 89.4893 255.8 87.8091 255.697 86.1346C255.622 84.8651 255.24 83.6328 254.584 82.5434C252.726 79.8518 248.765 80.3907 247.576 80.2302C244.054 79.7547 240.915 79.1204 238.265 77.5702C237.112 76.6241 235.392 77.0638 235.173 77.9375C234.742 80.1874 233.894 82.3371 232.674 84.2761C231.803 85.6113 230.939 86.8822 231.191 88.4565C231.51 90.4514 234.254 91.5751 236.243 91.9343C239.759 92.5696 242.567 93.0493 246.125 93.3857C249.291 93.6851 254.457 94.3895 255.2 91.1103Z" fill="white"/>
<path d="M255.683 91.2394C256.304 88.3446 256.801 84.767 254.938 82.1861C253.327 79.9531 250.67 79.9251 248.189 79.7627C246.074 79.6143 243.984 79.2242 241.958 78.5998C240.327 78.0989 238.788 76.7747 237.133 76.5649C233.991 76.1663 234.12 80.4846 233.133 82.4783C232.031 84.7046 229.512 87.2292 231.234 89.8086C232.958 92.3919 237.03 92.6034 239.736 93.0446C243.347 93.7799 247.023 94.1495 250.709 94.148C252.868 94.0546 254.975 93.4831 255.683 91.2394C255.877 90.6243 254.912 90.361 254.718 90.9736C253.91 93.5356 250.474 93.2353 248.331 93.084C245.543 92.8871 242.759 92.5306 240.001 92.0803C237.702 91.7049 234.482 91.5755 232.683 89.8752C230.164 87.494 233.448 84.3748 234.418 82.0423C234.671 80.9884 235.009 79.9564 235.427 78.9563C236.825 76.8126 238.764 78.4814 240.21 79.0513C242.576 79.9497 245.055 80.5135 247.577 80.7264C249.417 80.8944 251.359 80.6607 253.004 81.7126C255.966 83.6071 255.336 88.0968 254.718 90.9736C254.584 91.6011 255.547 91.8693 255.683 91.2394Z" fill="black"/>
<path d="M249.031 82.6028C248.704 85.5682 249.09 88.5688 250.156 91.355C250.381 91.952 251.348 91.6934 251.121 91.0892C250.086 88.3878 249.712 85.4781 250.031 82.6028C250.097 81.9634 249.097 81.968 249.031 82.6028H249.031Z" fill="black"/>
<path d="M243.767 82.057C243.287 84.8918 243.094 87.7821 242.441 90.5858C242.295 91.2119 243.259 91.4792 243.405 90.8517C244.058 88.0484 244.251 85.1569 244.731 82.3228C244.838 81.6933 243.874 81.4228 243.767 82.057Z" fill="black"/>
<path d="M283.678 58.6148C284.221 55.8014 287.589 52.6339 291.201 51.2639C291.702 51.0417 292.256 50.9665 292.797 51.047C294.413 51.3839 296.309 54.1826 296.422 54.4053C296.775 54.9351 296.675 55.645 296.191 56.0573C295.765 56.4587 291.039 59.9744 289.037 61.8555C288.601 62.2334 288.109 62.5418 287.579 62.7695C286.013 63.1987 283.258 60.7874 283.678 58.6148Z" fill="white"/>
<path fill-rule="evenodd" clip-rule="evenodd" d="M286.795 53.2783C288.274 52.0543 290.734 50.2608 292.796 50.5459C295.457 50.9136 297.689 54.2765 296.628 56.0641C296.104 56.9482 295.112 57.6503 294.203 58.2943C293.887 58.5184 293.58 58.7356 293.307 58.9509C292.705 59.4249 292.12 59.9368 291.535 60.4494C290.708 61.1736 289.879 61.8992 288.997 62.5215C286.28 64.4401 282.976 61.6811 283.177 58.6136C283.18 58.5965 283.185 58.5796 283.19 58.563C283.192 58.5506 283.192 58.539 283.192 58.5273C283.192 58.5125 283.192 58.4976 283.195 58.4807C283.524 56.0712 285.129 54.656 286.795 53.2783ZM292.423 58.5406C293.37 57.8948 294.317 57.2491 295.131 56.464H295.132C297.391 54.2864 293.986 50.7919 291.333 51.7449C288.501 52.7624 284.177 56.6018 284.177 58.6889C284.175 60.7915 286.091 62.9621 288.087 61.9376C288.902 61.3895 289.658 60.7591 290.344 60.0566C291 59.5117 291.712 59.0261 292.423 58.5406Z" fill="black"/>
<path d="M335.982 163.105C338.448 165.787 339.754 169.336 339.613 172.977C339.611 173.525 339.453 174.061 339.158 174.522C338.19 175.859 334.861 176.445 334.611 176.457C333.984 176.562 333.376 176.181 333.199 175.57C333.006 175.017 331.731 169.267 330.833 166.671C330.579 166.1 330.427 165.488 330.385 164.865C330.828 163.339 334.734 161.936 335.982 163.105Z" fill="white"/>
<path fill-rule="evenodd" clip-rule="evenodd" d="M336.335 162.75C338.289 164.354 339.149 166.752 339.722 169.118C340.128 170.795 340.651 173.362 339.512 174.874C338.296 176.488 333.816 178.148 332.716 175.701C332.172 174.093 331.76 172.444 331.484 170.77C331.333 170.184 331.089 169.53 330.837 168.854C330.382 167.63 329.899 166.334 329.895 165.245C329.884 162.732 334.282 161.471 336.155 162.628L336.162 162.632C336.173 162.639 336.184 162.644 336.195 162.65C336.209 162.657 336.222 162.663 336.234 162.671C336.241 162.676 336.245 162.681 336.25 162.687C336.253 162.691 336.257 162.696 336.262 162.7C336.272 162.707 336.282 162.714 336.292 162.72C336.306 162.729 336.32 162.737 336.335 162.75ZM334.887 175.908C336.069 175.829 337.207 175.426 338.176 174.744C339.686 173.023 339.063 170.118 338.42 168.187C337.841 166.448 337.062 164.549 335.674 163.51C334.574 162.834 331.874 163.345 331.166 164.529C330.75 165.226 331.147 166.267 331.469 167.112C331.562 167.356 331.648 167.584 331.707 167.782C332.204 169.45 332.616 171.143 333.028 172.834C333.136 173.279 333.245 173.724 333.355 174.169C333.372 174.24 333.389 174.309 333.405 174.377C333.608 175.227 333.747 175.805 334.887 175.908Z" fill="black"/>
<path d="M306.1 325.437C306.1 338.607 301.97 358.276 299.4 370.486C292.612 402.716 284.022 434.539 273.67 465.806C272.26 469.406 269.12 469.077 265.59 468.397C262.07 467.707 259.01 466.637 259.26 463.517C260.45 449.097 268.56 392.877 269.26 360.387C269.53 348.057 268.41 336.647 266.66 330.477C262.96 317.257 244.87 299.897 224.44 285.577C209.43 275.047 192.05 260.957 184.04 246.527C175.92 231.937 177.15 209.797 185.2 198.977C189.86 203.987 197.49 205.737 209.45 207.037C220.75 208.267 240.62 208.477 250.45 203.117C265.11 229.587 277.45 249.747 295.81 289.037C299.99 297.976 306.1 313.276 306.1 325.437Z" fill="black"/>
<path d="M214.983 210.803C214.866 219.532 215.235 228.555 218.911 236.629C222.261 243.986 227.952 249.922 233.803 255.359C247.303 267.907 261.181 280.008 271.79 295.24C276.329 301.466 280.143 308.19 283.158 315.28C286.258 323.134 287.827 331.508 287.78 339.951C287.777 350.062 285.927 360.069 284.219 370C282.576 379.549 280.829 389.081 279.037 398.603C275.069 419.688 270.859 440.727 267.036 461.839C266.922 462.468 267.885 462.738 268 462.105C271.425 443.191 275.163 424.336 278.755 405.454C280.57 395.91 282.333 386.357 284.044 376.794C285.719 367.32 287.563 357.808 288.397 348.215C290.3 332.219 286.545 316.062 277.784 302.545C268.565 287.404 256.391 274.675 243.394 262.74C236.233 256.165 228.376 249.907 222.926 241.747C216.733 232.475 215.837 221.662 215.983 210.803C215.973 210.534 215.752 210.32 215.483 210.32C215.213 210.32 214.992 210.534 214.983 210.803V210.803Z" fill="white"/>
<path d="M238.538 210.66C239.154 218.217 244.617 223.821 246.907 230.802C249.875 239.848 243.74 249.652 235.753 253.827C235.182 254.126 235.687 254.989 236.257 254.691C243.377 250.969 249.634 242.405 248.664 234.063C247.67 225.52 240.242 219.295 239.538 210.66C239.486 210.023 238.486 210.017 238.538 210.66Z" fill="white"/>
<path d="M238.308 81.0556C238 83.9325 237.018 86.6964 235.443 89.123C235.094 89.6661 235.959 90.1681 236.306 89.6278C237.967 87.0463 238.996 84.1093 239.308 81.0556C239.377 80.4166 238.376 80.4214 238.308 81.0556Z" fill="black"/>
<path d="M344.621 162.71C346.206 161.838 347.95 161.295 349.749 161.112C350.383 161.048 350.39 160.047 349.749 160.112C347.774 160.306 345.858 160.896 344.116 161.847C343.551 162.155 344.055 163.019 344.621 162.71Z" fill="black"/>
<path d="M344.621 166.098C347.583 164.198 350.968 163.059 354.475 162.782C355.117 162.759 355.12 161.759 354.475 161.782C350.79 162.061 347.232 163.247 344.116 165.234C343.888 165.378 343.815 165.677 343.951 165.91C344.087 166.143 344.384 166.226 344.621 166.098H344.621Z" fill="black"/>
<path d="M348.967 167.744C351.118 166.337 353.627 165.575 356.197 165.547C356.467 165.538 356.68 165.316 356.68 165.047C356.68 164.777 356.467 164.556 356.197 164.547C353.449 164.571 350.765 165.38 348.462 166.881C347.935 167.243 348.435 168.11 348.967 167.744Z" fill="black"/>
<path d="M92.206 386.058C88.0781 379.697 88.3262 371.358 92.0608 364.863C93.8551 361.651 96.5648 359.045 99.8447 357.378C103.664 355.509 110.455 354.917 112.166 359.992C113.768 364.739 109.667 369.2 105.282 370.169C100.69 371.183 95.6656 369.608 91.6209 367.455C84.9964 363.791 79.8091 357.99 76.905 350.998C73.4773 343.259 73.1991 334.489 76.1294 326.548C76.3604 325.947 75.394 325.687 75.1651 326.282C68.7658 342.938 77.9797 363.768 94.8071 369.971C99.3221 371.636 105.026 372.424 109.273 369.606C112.345 367.568 114.346 363.353 113.131 359.726C111.896 356.041 107.913 354.718 104.35 355.059C100.262 355.584 96.5137 357.603 93.8267 360.728C87.5712 367.66 86.1991 378.637 91.3425 386.563C91.6916 387.101 92.5577 386.6 92.206 386.058V386.058Z" fill="black"/>
<path d="M459.099 297.578C457.817 293.337 458.466 288.76 463.196 285.606C467.566 282.693 475.108 283.37 475.813 287.846C476.019 290.236 473.887 291.513 471.489 291.414C469.105 291.316 467.071 289.377 466.629 285.606C466.277 282.86 466.526 280.07 467.36 277.43" stroke="black" stroke-linecap="round"/>
<path d="M105.688 69.6037C112.564 66.2695 118.504 57.3086 113.318 54.1957C109.647 52.0989 105.948 55.9541 107.303 59.4967C108.468 62.546 112.519 64.9047 115.774 64.6515C119.094 64.4851 122.256 63.1828 124.731 60.9627" stroke="black" stroke-linecap="round"/>
<path d="M541.697 333.266L546.261 329.154C546.74 328.722 546.031 328.016 545.554 328.446L540.989 332.559C540.51 332.991 541.219 333.696 541.697 333.266Z" fill="black"/>
<path d="M375.981 359.208L370.784 355.931C370.238 355.587 369.735 356.452 370.279 356.794L375.476 360.071C376.022 360.416 376.525 359.551 375.981 359.208Z" fill="black"/>
<path d="M147.704 306.732L153.117 309.638C153.684 309.942 154.19 309.079 153.622 308.775L148.209 305.869C147.642 305.564 147.136 306.427 147.704 306.732Z" fill="black"/>
<path d="M190.925 0.927495L196.338 3.83332C196.905 4.13764 197.411 3.27465 196.843 2.96985L191.429 0.064015C190.862 -0.240305 190.357 0.622685 190.925 0.927495Z" fill="black"/>
<path d="M150.411 436.467L155.824 439.372C156.391 439.677 156.897 438.814 156.329 438.509L150.916 435.603C150.349 435.299 149.843 436.162 150.411 436.467Z" fill="black"/>
<path d="M426.289 150.459V157.76C426.298 158.03 426.519 158.243 426.789 158.243C427.059 158.243 427.28 158.03 427.289 157.76V150.46C427.28 150.19 427.059 149.977 426.789 149.977C426.519 149.977 426.298 150.19 426.289 150.46L426.289 150.459Z" fill="black"/>
<path d="M93.6336 246.291L99.4469 241.494C99.9437 241.084 99.2328 240.38 98.7398 240.786L92.9265 245.584C92.4297 245.994 93.1407 246.698 93.6336 246.291Z" fill="black"/>
<path d="M482.893 37.1135L488.201 38.7352C488.818 38.9237 489.082 37.9587 488.467 37.771L483.158 36.1493C482.542 35.9608 482.278 36.9258 482.893 37.1135Z" fill="black"/>
<path d="M467.043 415.684L472.352 417.306C472.969 417.494 473.232 416.529 472.618 416.341L467.309 414.72C466.692 414.531 466.428 415.496 467.043 415.684Z" fill="black"/>
<path d="M29.6045 63.9682L33.5264 56.4432C33.8234 55.8732 32.9608 55.367 32.6629 55.9385L28.741 63.4635C28.4439 64.0335 29.3066 64.5397 29.6045 63.9682Z" fill="black"/>
<path d="M25.2076 172.767L20.4047 165.771C20.0427 165.244 19.1757 165.743 19.5412 166.276L24.3441 173.271C24.7061 173.799 25.5731 173.299 25.2076 172.767V172.767Z" fill="black"/>
<path d="M19.7163 404.386L18.9139 410.105C18.8256 410.734 19.789 411.006 19.8782 410.37L20.6805 404.652C20.7688 404.022 19.8054 403.75 19.7163 404.386Z" fill="black"/>
<circle cx="528.68" cy="164.075" r="3.22298" stroke="black" stroke-width="1.17797"/>
<circle cx="390.855" cy="25.5876" r="2.73604" stroke="black"/>
<circle cx="5.57346" cy="266.761" r="2.17502" stroke="black" stroke-width="0.79495"/>
<circle cx="112.334" cy="154.111" r="2.73604" stroke="black"/>
</svg>
