<svg width="442" height="432" viewBox="0 0 442 432" fill="none" xmlns="http://www.w3.org/2000/svg">
<rect opacity="0.01" x="-58" width="500" height="432" fill="white"/>
<path d="M29.3659 330.183C27.9645 329.757 26.4429 330.087 25.3433 331.057C24.2736 332.022 23.3785 333.165 22.6977 334.436C20.7946 337.548 19.092 340.42 16.9469 343.369C15.8255 344.911 15.8511 345.754 16.4498 346.295C17.7454 347.45 19.1062 348.53 20.5255 349.529C22.239 350.66 24.3283 347.153 26.4731 344.651C27.3147 343.67 29.1084 344.343 29.6614 345.269C29.9104 345.684 30.0546 346.154 30.0815 346.638C30.0719 347.847 29.6111 349.008 28.7899 349.893C27.6583 351.237 25.9745 352.495 26.7772 354.485C27.0587 355.134 27.5208 355.688 28.1081 356.08C30.6425 357.859 33.3236 359.419 36.1222 360.742C37.0014 361.29 38.0594 361.473 39.0709 361.251C39.7914 360.913 40.3854 360.353 40.7667 359.653C41.7255 358.439 42.1941 356.908 42.0794 355.364C41.6655 352.948 39.0773 351.698 37.1676 350.166C36.2504 349.544 35.6124 348.587 35.3899 347.5C35.3512 346.899 35.4449 346.297 35.6641 345.736C36.2989 343.877 37.4481 342.214 37.9571 340.316C38.4662 338.418 38.1004 336.036 36.3878 335.079L29.3659 330.183Z" fill="black"/>
<path d="M61.71 282.398C48.9989 301.12 35.5008 319.623 30.8232 326.537C29.3012 328.779 28.1169 331.352 30.4682 333.368C32.8271 335.374 34.9087 336.092 37.4993 333.983C45.8817 325.637 54.2444 316.539 63.8564 305.736" fill="white"/>
<path d="M34.4212 335.674C32.8216 335.538 31.322 334.838 30.1891 333.698C27.5284 331.417 28.9398 328.543 30.4665 326.294C32.2774 323.618 35.3746 319.255 39.2956 313.731C45.3149 305.251 53.5584 293.637 61.3533 282.156L62.0663 282.642C54.2665 294.131 46.0196 305.749 39.9981 314.232C36.0801 319.751 32.9854 324.112 31.18 326.78C29.1852 329.718 29.0564 331.59 30.7486 333.04C33.3234 335.231 35.0804 335.396 37.2271 333.649C44.7096 326.196 52.5869 317.754 63.5345 305.449L64.1777 306.024C53.2179 318.342 45.3301 326.796 37.803 334.291C36.8734 335.137 35.6759 335.627 34.4212 335.674Z" fill="black"/>
<path d="M355.709 280.644C359.62 356.306 300.499 427.978 208.704 427.978C127.529 427.959 61.7344 362.001 61.7344 280.644C61.7344 199.288 127.529 133.33 208.704 133.31C208.704 133.31 347.926 130.099 355.709 280.644Z" fill="white"/>
<path fill-rule="evenodd" clip-rule="evenodd" d="M61.2676 280.644C61.2676 362.122 127.407 428.41 208.704 428.41C251.694 428.41 290.543 412.394 318.094 383.315C344.226 355.722 357.971 318.622 356.139 280.622C354.36 246.203 345.502 217.015 329.812 193.869C317.255 175.343 300.32 160.63 279.481 150.136C244.315 132.429 209.626 132.866 208.719 132.878L208.704 132.878C127.407 132.878 61.2676 199.165 61.2676 280.644ZM208.714 133.742C208.736 133.741 208.914 133.738 209.236 133.738C213.721 133.738 246.21 134.342 279.124 150.923C299.824 161.352 316.642 175.97 329.11 194.372C344.703 217.383 353.507 246.416 355.278 280.666C357.098 318.43 343.439 355.299 317.468 382.721C290.082 411.627 251.456 427.546 208.704 427.546C127.883 427.546 62.1296 361.646 62.1296 280.644C62.1296 199.642 127.883 133.742 208.714 133.742Z" fill="black"/>
<path d="M115.076 326.515C109.798 323.908 103.621 324.844 98.1716 322.618C92.7444 320.299 88.0559 316.532 84.6166 311.727C76.8169 301.108 76.1913 287.62 79.7115 275.328C80.5949 272.739 80.8794 269.982 80.5437 267.266C80.0029 263.959 78.4681 260.909 77.9159 257.602C76.7032 250.342 79.203 243.161 82.0957 236.607C84.7356 230.459 87.9864 224.593 91.799 219.097C94.0362 215.949 98.2978 210.958 101.703 215.661C103.513 218.16 103.644 221.455 105.405 223.997C108.275 228.14 116.091 230.526 115.172 236.671C114.493 241.215 109.085 238.443 106.388 237.889C104.402 237.475 102.336 237.717 100.498 238.578C96.3205 240.543 94.5713 245.241 95.4922 249.629C96.2599 253.287 99.6244 258.091 103.861 255.872C108.672 253.35 109.3 243.299 116.435 246.421C119.45 247.74 121.75 250.451 123.771 252.969C126.47 256.33 128.979 260.086 125.527 264.051C123.684 266.168 121.053 267.474 118.982 269.354C117.071 271.081 115.44 273.094 114.146 275.323C111.536 279.826 110.616 285.115 111.55 290.238C112.02 292.851 112.999 295.345 114.432 297.578C115.954 299.914 119.004 302.17 118.694 305.224C118.644 305.87 118.333 306.466 117.832 306.875C117.332 307.284 116.686 307.47 116.046 307.389C115.189 307.279 114.342 307.1 113.513 306.853C112.1 306.509 110.65 306.335 109.195 306.333C107.066 306.296 105.039 307.251 103.711 308.92C101.067 312.45 103.548 316.4 107.348 317.471C110.253 318.289 113.315 317.419 116.244 318.072C119.809 318.867 123.804 322.513 123.483 326.449C123.492 327.663 122.743 328.754 121.608 329.179C120.395 329.696 119.508 329.33 118.392 328.689C117.242 328.028 116.249 327.142 115.075 326.515C114.586 326.253 114.15 326.999 114.64 327.261C116.65 328.335 118.797 330.81 121.315 330.335C123.054 329.896 124.298 328.364 124.373 326.569C124.795 321.33 119.201 317.252 114.499 316.959C111.11 316.748 107.008 317.715 104.451 314.79C102.976 312.968 103.218 310.3 104.996 308.774C106.911 306.94 109.698 307.035 112.132 307.455C114.037 307.784 116.964 309.236 118.617 307.583C119.878 306.321 119.775 304.211 119.123 302.689C117.916 299.865 115.341 297.863 114.012 295.065C112.546 291.95 111.878 288.517 112.069 285.078C112.444 278.054 116.538 272.012 122.092 267.963C124.296 266.356 126.656 264.795 127.705 262.148C128.715 259.601 127.932 257.283 126.454 255.126C123.742 251.168 119.033 244.542 113.519 244.957C107.318 245.424 107.667 255.628 101.622 255.482C97.3185 255.379 95.7153 249.245 96.224 245.785C96.6915 242.267 99.3281 239.429 102.797 238.712C106.108 238.033 108.776 240.133 111.977 240.166C113.804 240.288 115.464 239.104 115.947 237.334C117.317 232.106 111.808 228.782 108.523 226.022C107.262 225.028 106.214 223.788 105.443 222.378C104.573 220.675 104.229 218.763 103.464 217.017C102.653 215.167 101.197 213.101 99.0622 212.74C96.3409 212.281 94.0105 214.915 92.4676 216.791C90.4738 219.342 88.6846 222.047 87.1167 224.881C83.4749 230.889 80.534 237.296 78.3517 243.977C77.2813 247.265 76.7354 250.702 76.7342 254.161C76.7955 257.674 77.8592 260.855 78.8812 264.175C80.0343 267.855 79.9967 271.805 78.7738 275.462C77.8485 278.505 77.2107 281.629 76.8687 284.791C76.2126 291.29 77.081 297.853 79.4047 303.956C83.461 314.395 92.6796 323.453 104.028 325.106C107.642 325.632 111.295 325.608 114.64 327.261C115.136 327.506 115.574 326.761 115.076 326.515V326.515Z" fill="black"/>
<path fill-rule="evenodd" clip-rule="evenodd" d="M204.356 409.823C206.98 411.096 211.648 411.72 217.564 411.72C238.95 411.72 276.636 403.572 292.936 388.566C294.231 387.468 295.301 386.127 296.084 384.618C296.945 383.056 296.683 381.113 295.439 379.835C292.1 376.197 291.92 373.917 292.778 370.182C293.099 368.979 293.544 367.813 294.105 366.703C294.502 365.879 294.856 365.035 295.167 364.175C296.519 360.231 295.631 355.625 292.793 351.856C290.238 348.229 286.057 346.106 281.629 346.186C278.802 346.334 275.525 347.845 275.012 350.813C274.597 353.217 276.139 355.145 277.631 357.011C278.793 358.463 279.995 359.966 280.251 361.667C280.412 362.935 280.049 364.215 279.246 365.209C278.326 366.428 276.961 367.23 275.45 367.44C272.535 367.605 269.782 366.086 268.362 363.53C267.965 362.815 267.615 362.076 267.312 361.317C266.366 358.709 264.637 356.458 262.363 354.874C261.444 354.123 260.578 353.31 259.771 352.439C258.453 350.803 257.343 349.01 256.466 347.099C255.609 345.259 254.554 343.518 253.321 341.907C251.516 339.763 248.86 338.523 246.061 338.519C244.461 338.527 242.965 339.312 242.048 340.626C240.222 343.278 241.466 346.34 242.669 349.3C243.429 350.932 243.954 352.663 244.229 354.443C244.419 356.5 243.754 358.622 243.11 360.674L243.109 360.676C242.282 363.315 241.427 366.042 242.357 368.705C243.019 370.599 244.45 372.008 245.835 373.372L245.835 373.372C246.641 374.126 247.389 374.939 248.073 375.805C249.161 377.31 249.493 379.234 248.973 381.017C248.711 381.836 248.04 382.458 247.204 382.653C245.923 382.942 244.723 382.208 243.453 381.432L243.452 381.432C242.634 380.878 241.745 380.437 240.81 380.121C239.4 379.822 237.943 379.835 236.538 380.159C235.471 380.381 234.377 380.451 233.291 380.367C231.639 380.129 230.172 379.186 229.269 377.78C227.707 375.356 227.188 372.404 227.829 369.591C228.625 366.797 229.811 364.13 231.352 361.668C232.29 360.065 233.141 358.412 233.902 356.717C237.206 348.957 236.292 340.039 231.483 333.114C226.569 326.335 217.596 322.777 209.668 324.462C208.691 324.669 207.72 324.95 206.779 325.223C205.092 325.793 203.339 326.147 201.563 326.276C200.012 326.264 198.466 326.084 196.953 325.738C195.08 325.281 193.147 325.121 191.224 325.264C186.72 325.832 181.344 330.12 179.764 340.451C179.254 343.788 178.365 347.266 175.642 347.741C174.222 347.984 172.789 347.254 171.36 346.519C165.811 343.669 159.929 341.524 153.85 340.134C150.204 339.301 143.679 338.576 140.933 343.083C138.511 347.059 141.025 352.023 143.914 355.065C144.735 355.929 145.629 356.76 146.494 357.564L146.494 357.564L146.496 357.566C148.697 359.613 150.973 361.73 152.093 364.481C152.667 366.078 153.04 367.741 153.203 369.431C153.352 370.676 153.578 371.911 153.879 373.128C156.266 381.981 165.504 386.568 175.132 390.207L175.176 390.224C181.268 392.526 188.185 395.139 195.192 394.949C198.065 394.8 200.923 394.44 203.744 393.873C209.45 392.872 214.839 391.926 219.731 394.299C221.953 395.377 223.373 397.061 223.528 398.803C223.637 399.967 223.211 401.117 222.37 401.928C220.78 403.565 217.578 404.582 214.582 404.39C213.764 404.338 212.812 404.225 211.805 404.104L211.789 404.102C208.463 403.704 204.699 403.254 202.946 404.71C202.36 405.199 202.009 405.914 201.982 406.678C201.887 407.954 202.686 409.012 204.356 409.823ZM203.497 405.375C204.541 404.742 205.761 404.461 206.976 404.576C208.558 404.614 210.136 404.743 211.703 404.962L211.703 404.962C212.723 405.084 213.685 405.2 214.528 405.252C217.262 405.429 220.933 404.647 222.988 402.53C224.001 401.537 224.515 400.14 224.387 398.725C224.204 396.679 222.604 394.733 220.106 393.521C214.963 391.027 209.183 392.041 203.595 393.022C200.816 393.581 198 393.937 195.17 394.085C188.308 394.263 181.489 391.686 175.468 389.411L175.435 389.399C166.023 385.841 156.997 381.38 154.711 372.902C154.42 371.719 154.201 370.52 154.057 369.31C153.883 367.55 153.491 365.818 152.891 364.155C151.7 361.227 149.353 359.044 147.083 356.934L147.08 356.932L147.069 356.921C146.217 356.129 145.337 355.31 144.539 354.47C141.648 351.425 139.639 346.863 141.668 343.534C144.225 339.337 150.904 340.348 153.658 340.976C159.683 342.355 165.513 344.483 171.012 347.311L171.024 347.317C172.461 348.056 174.089 348.892 175.79 348.591C179.051 348.022 180.059 344.223 180.616 340.582C181.559 334.415 184.932 326.929 191.332 326.121C193.165 325.988 195.008 326.145 196.792 326.587C198.367 326.943 199.975 327.128 201.588 327.14C203.437 327.007 205.262 326.642 207.019 326.053C207.945 325.785 208.901 325.508 209.846 325.307C217.455 323.694 226.067 327.111 230.786 333.622C235.42 340.3 236.298 348.898 233.109 356.378C232.361 358.044 231.523 359.668 230.601 361.244C229.017 363.776 227.801 366.52 226.989 369.395C226.298 372.446 226.865 375.648 228.562 378.273C229.602 379.882 231.287 380.959 233.181 381.224C234.348 381.317 235.523 381.246 236.671 381.013C237.952 380.71 239.283 380.689 240.573 380.951C241.432 381.249 242.249 381.659 243.003 382.169L243.003 382.169C244.364 383.001 245.77 383.861 247.393 383.497C248.519 383.247 249.428 382.417 249.782 381.317C250.407 379.258 250.03 377.025 248.763 375.287C248.053 374.386 247.276 373.54 246.439 372.756L246.437 372.754C245.063 371.401 243.766 370.123 243.171 368.42C242.335 366.027 243.111 363.553 243.932 360.933L243.933 360.933C244.602 358.8 245.294 356.594 245.088 354.364C244.808 352.499 244.263 350.683 243.467 348.974C242.299 346.099 241.196 343.385 242.756 341.117C243.528 340.035 244.771 339.39 246.098 339.382C248.628 339.396 251.024 340.52 252.656 342.457C253.849 344.02 254.869 345.709 255.699 347.493C256.606 349.469 257.757 351.322 259.125 353.011C259.958 353.912 260.853 354.755 261.804 355.531C263.976 357.028 265.625 359.17 266.519 361.655C266.835 362.448 267.202 363.221 267.618 363.967C269.198 366.832 272.291 368.521 275.55 368.299C277.292 368.06 278.868 367.137 279.932 365.734C280.877 364.554 281.301 363.038 281.103 361.538C280.812 359.606 279.538 358.013 278.305 356.47L278.304 356.47C276.868 354.675 275.513 352.98 275.861 350.959C276.274 348.571 279.098 347.184 281.674 347.048C285.816 346.986 289.721 348.98 292.106 352.375C294.77 355.916 295.61 360.222 294.353 363.895C294.05 364.727 293.707 365.543 293.323 366.34C292.737 367.505 292.273 368.727 291.938 369.988C291.048 373.865 291.246 376.543 294.805 380.421C295.807 381.445 296.01 383.011 295.301 384.257C294.565 385.661 293.564 386.909 292.353 387.93C271.74 406.907 216.693 414.855 204.731 409.045C203.412 408.405 202.776 407.63 202.842 406.739C202.854 406.211 203.093 405.714 203.497 405.375Z" fill="black"/>
<path fill-rule="evenodd" clip-rule="evenodd" d="M163.376 404.08C165.017 405.294 167.015 405.924 169.053 405.871H169.053C169.126 405.871 169.2 405.871 169.274 405.869C171.157 405.833 173.359 404.919 173.745 402.998C174.034 401.564 173.234 400.065 171.37 398.543C168.016 395.8 164.18 393.711 160.059 392.383C159.049 391.98 157.953 391.842 156.875 391.983C155.638 392.161 154.682 393.161 154.557 394.408C154.555 396.105 155.691 397.25 156.52 398.086L156.52 398.086C158.039 399.615 162.164 403.124 163.376 404.08ZM163.91 403.402C162.743 402.481 158.601 398.957 157.131 397.477C156.368 396.708 155.417 395.749 155.419 394.408C155.42 393.62 156.244 392.988 157.041 392.831C157.976 392.726 158.922 392.854 159.795 393.204C163.814 394.5 167.555 396.538 170.825 399.213C172.422 400.516 173.12 401.733 172.9 402.827C172.608 404.281 170.807 404.976 169.257 405.005C167.343 405.105 165.454 404.538 163.91 403.402Z" fill="black"/>
<path d="M304.204 283.749C307.149 280.846 312.592 281.68 316.345 281.871C320.546 281.984 324.698 282.81 328.623 284.315C332.648 285.971 337.252 288.788 339.125 292.895C340.267 295.402 339.976 297.894 337.824 299.719C336.407 300.921 334.915 301.806 334 303.489C332.197 306.807 332.578 312.214 328.291 313.57C324.249 314.848 319.848 312.135 315.661 312.849C311.189 313.61 307.626 316.595 303.446 318.123C300.796 319.092 297.873 319.187 295.844 316.928C294.091 314.834 293.522 311.989 294.333 309.379C295.24 306.697 296.84 304.305 298.969 302.445C300.37 301.093 301.934 299.8 302.905 298.078C305.538 293.407 300.756 288.003 304.204 283.749C304.551 283.321 303.944 282.706 303.594 283.138C302.315 284.6 301.756 286.559 302.071 288.478C302.451 291.555 303.816 294.695 302.16 297.642C300.905 299.877 298.655 301.373 296.97 303.25C295.218 305.08 293.968 307.332 293.341 309.789C292.552 313.393 294.012 317.8 297.648 319.243C302.351 321.11 307.407 316.993 311.448 315.143C314.224 313.774 317.359 313.31 320.411 313.817C322.846 314.227 325.436 315.069 327.921 314.551C332.196 313.659 332.785 309.4 333.946 305.887C334.334 304.514 335.05 303.257 336.033 302.225C336.9 301.362 338.012 300.785 338.89 299.932C340.254 298.656 340.905 296.789 340.63 294.939C340.035 290.501 335.966 287.322 332.373 285.215C327.85 282.727 322.816 281.314 317.661 281.087C313.382 280.777 306.986 279.795 303.594 283.138C303.198 283.529 303.808 284.14 304.204 283.749Z" fill="black"/>
<path fill-rule="evenodd" clip-rule="evenodd" d="M136.827 318.614C138.267 319.7 140.029 320.272 141.831 320.237C143.291 320.234 144.733 319.907 146.052 319.279C147.251 318.806 148.225 317.893 148.777 316.726C149.47 314.986 148.621 313.121 147.594 311.956C146.839 311.158 146.001 310.444 145.093 309.827L145.081 309.818C144.687 309.53 144.293 309.242 143.914 308.936C143.462 308.539 143.051 308.097 142.687 307.618C141.796 306.53 140.786 305.297 139.05 305.297C136.658 305.297 135.128 307.205 134.629 310.813C134.215 313.801 134.094 316.451 136.827 318.614ZM135.482 310.931C135.784 308.755 136.648 306.161 139.05 306.161V306.161C140.379 306.161 141.176 307.135 142.021 308.166C142.422 308.692 142.875 309.175 143.374 309.609C143.766 309.927 144.176 310.226 144.584 310.525C145.442 311.105 146.234 311.776 146.947 312.528C147.765 313.456 148.525 315.029 147.977 316.406C147.501 317.367 146.682 318.115 145.682 318.498C142.839 319.852 139.495 319.625 137.361 317.935C135.19 316.218 135.025 314.23 135.482 310.931Z" fill="black"/>
<path d="M55.0265 355.66C53.6902 355.06 52.1391 355.195 50.9258 356.016C49.7427 356.838 48.7103 357.858 47.8743 359.033C45.5933 361.877 43.5413 364.511 41.0407 367.164C39.7335 368.551 39.6523 369.39 40.1779 370.003C41.3169 371.313 42.5303 372.557 43.812 373.728C45.3687 375.067 47.8844 371.854 50.3281 369.645C51.2871 368.778 52.9812 369.674 53.4127 370.662C53.6071 371.106 53.6908 371.591 53.6563 372.074C53.494 373.272 52.8902 374.365 51.9637 375.139C50.6713 376.328 48.842 377.363 49.3867 379.438C49.5839 380.117 49.9723 380.725 50.5053 381.189C52.7944 383.276 55.2567 385.163 57.8656 386.831C58.6684 387.486 59.6948 387.802 60.7262 387.71C61.4836 387.466 62.1436 386.987 62.6102 386.341C63.7148 385.258 64.3731 383.799 64.4545 382.253C64.3494 379.804 61.94 378.236 60.2393 376.474C59.4082 375.74 58.8962 374.71 58.813 373.603C58.8506 373.002 59.0196 372.417 59.3079 371.888C60.1726 370.125 61.5229 368.62 62.2676 366.803C63.0124 364.985 62.9507 362.576 61.3729 361.409L55.0265 355.66Z" fill="black"/>
<path d="M183.592 158.452V158.46C183.583 159.48 183.566 160.491 183.557 161.51C181.48 182.264 180.686 205.609 173.161 233.412C172.152 237.145 171.023 240.964 169.747 244.86C165.937 256.854 160.131 268.115 152.574 278.168C145.79 287.283 128.712 303.716 120.635 310.844C95.9795 332.617 79.1864 347.719 62.6089 360.472C59.7727 362.235 57.7985 361.258 55.7208 358.96C53.6347 356.662 55.1433 354.26 56.9278 352.23C65.1865 342.855 96.3244 310.231 113.557 288.104C120.1 279.705 125.574 271.938 128.583 265.683C132.695 257.164 136.764 244.48 136.462 226.673C136.281 215.64 134.436 202.645 129.876 187.448C125.333 172.276 117.686 156.611 119.661 137.621C121.074 124.03 128.514 109.325 146.505 102.482C146.526 102.48 146.547 102.474 146.566 102.464C147.747 102.015 148.98 101.6 150.255 101.22C155.056 99.6489 159.999 98.5578 165.014 97.963C169.936 97.2927 174.901 96.9894 179.867 97.0558C179.747 97.1941 179.626 97.3323 179.514 97.4705C178.48 98.7287 177.685 100.167 177.169 101.713C175.54 106.543 177.255 113.394 178.523 118.319C179.79 123.252 181.531 128.125 181.755 133.214C181.962 137.767 180.161 142.649 180.092 147.202C180.031 151.393 180.367 155.143 183.454 158.305C183.497 158.357 183.54 158.4 183.592 158.452Z" fill="white"/>
<path d="M183.454 158.303C182.911 163.262 182.471 168.377 182.014 173.682C180.506 191.299 178.816 210.929 172.695 233.454C171.704 237.134 170.592 240.893 169.333 244.729C165.529 256.671 159.747 267.887 152.23 277.906C145.376 287.117 128.083 303.688 120.35 310.522L112.195 317.728C91.7728 335.786 77.0142 348.841 62.3849 360.099C60.0313 361.559 58.3072 361.179 56.0401 358.673C54.5401 357.023 54.9021 355.182 57.2555 352.513C59.3763 350.102 62.9884 346.18 67.5659 341.212C80.9194 326.714 101.092 304.803 113.902 288.369C121.471 278.649 126.256 271.504 128.971 265.871C134.497 254.423 137.161 241.402 136.937 226.913C136.764 214.722 134.549 201.523 130.29 187.316C129.316 184.067 128.221 180.862 127.066 177.466C122.876 165.189 118.549 152.497 120.092 137.662C120.963 129.264 125.661 108.951 150.402 101.624C157.635 99.0756 169.238 97.46 178.376 97.46C178.756 97.46 179.135 97.46 179.514 97.4686C179.626 97.3304 179.747 97.1921 179.868 97.0539L179.885 97.0366C179.635 97.0107 174.29 96.5009 165.014 97.9611C159.999 98.5558 155.056 99.6469 150.256 101.218C148.98 101.599 147.747 102.013 146.566 102.463C146.547 102.472 146.527 102.478 146.506 102.48C143.36 103.491 140.341 104.859 137.506 106.558C137.467 106.575 137.432 106.598 137.402 106.627C123.169 116.019 119.954 130.707 119.238 137.575C117.669 152.592 122.032 165.379 126.256 177.751C127.402 181.13 128.497 184.327 129.471 187.567C133.644 201.494 135.842 214.454 136.066 226.447C136.35 240.988 133.73 254.043 128.195 265.491C125.506 271.072 120.747 278.166 113.221 287.834C100.437 304.241 80.2728 326.135 66.9366 340.624C62.3504 345.592 58.7383 349.523 56.609 351.943C54.8073 353.982 53.0488 356.66 55.4022 359.252C56.6004 360.574 58.0229 361.792 59.8763 361.792C60.9491 361.755 61.9894 361.413 62.8763 360.807C77.5659 349.506 92.3332 336.451 112.764 318.376L120.919 311.17C128.678 304.319 146.031 287.678 152.919 278.425C160.494 268.33 166.32 257.029 170.152 244.997C171.445 241.022 172.603 237.134 173.626 233.333C179.687 210.886 181.368 191.325 182.876 173.76C183.075 171.427 183.276 169.135 183.48 166.882C183.514 165.094 183.531 163.297 183.557 161.508C183.566 160.489 183.583 159.478 183.592 158.458V158.45C183.54 158.398 183.497 158.355 183.454 158.303Z" fill="black"/>
<path d="M183.591 158.45V158.458C183.582 159.478 183.565 160.489 183.556 161.508C183.53 163.297 183.513 165.094 183.479 166.882C183.177 186.279 182.375 205.417 179.254 224.649C178.72 227.941 177.746 231.76 174.668 233.03C174.333 233.17 173.983 233.271 173.625 233.333C173.471 233.367 173.316 233.393 173.16 233.41C173.004 233.428 172.849 233.445 172.694 233.454C171.758 233.492 170.821 233.449 169.892 233.324C160.6 232.312 151.377 230.742 142.272 228.624C140.435 228.254 138.645 227.68 136.936 226.913C136.78 226.835 136.617 226.758 136.461 226.671C136.332 226.593 136.194 226.524 136.065 226.446C135.47 226.089 134.915 225.669 134.41 225.194C132.005 222.904 131.16 219.457 130.444 216.217C125.565 194.124 122.444 174.131 119.349 151.728C119.349 151.728 113.892 120.909 137.401 106.627C137.431 106.598 137.466 106.575 137.505 106.558C140.34 104.859 143.359 103.491 146.504 102.48C146.526 102.478 146.546 102.472 146.565 102.463C152.585 100.473 158.754 98.9677 165.013 97.9611C174.289 96.5009 179.634 97.0107 179.884 97.0366L179.867 97.0539C179.746 97.1921 179.625 97.3304 179.513 97.4686C178.479 98.7268 177.684 100.165 177.168 101.711C175.539 106.541 177.255 113.392 178.522 118.317C179.789 123.25 181.53 128.123 181.755 133.212C181.961 137.766 180.16 142.647 180.091 147.2C180.03 151.391 180.367 155.141 183.453 158.303C183.496 158.355 183.539 158.398 183.591 158.45Z" fill="black"/>
<path d="M327.386 198.795C325.783 201.828 322.464 207.971 311.515 205.958C307.54 205.325 303.809 203.63 300.714 201.05C299.905 201.464 299.055 201.795 298.179 202.035C297.219 202.31 296.186 202.008 295.524 201.257C294.61 200.134 295.421 198.553 296.257 197.369C295.688 196.894 295.283 196.531 295.188 196.436C291.722 193.136 288.679 189.654 290.559 184.703C292.145 180.547 299.421 175.087 299.765 171.423C300.033 168.667 296.49 164.624 294.386 162.542C289.964 158.55 287.214 157.167 281.472 154.843C280.892 154.667 280.302 154.525 279.705 154.42C279.869 154.083 279.99 153.72 280.119 153.375C281.352 150.057 283.929 146.955 287.412 146.143C287.671 146.081 287.922 145.991 288.162 145.875C293.412 150.679 297.955 156.131 303.171 161.176C303.834 161.894 305.567 163.544 305.955 163.967C313.809 172.607 315.852 173.661 321.869 180.478C327.921 187.321 329.274 195.227 327.386 198.795Z" fill="white"/>
<path fill-rule="evenodd" clip-rule="evenodd" d="M300.65 201.564C304.943 204.888 310.196 206.723 315.62 206.795C323.644 206.795 326.361 201.657 327.766 199.001C329.8 195.156 328.272 187.07 322.19 180.195C319.192 176.798 317.13 174.781 314.947 172.646L314.935 172.633C312.721 170.468 310.21 168.012 306.271 163.678C306.095 163.486 305.646 163.044 305.141 162.548L305.135 162.542C304.53 161.948 303.848 161.277 303.469 160.869C301.164 158.639 298.957 156.293 296.822 154.023L296.803 154.003L296.787 153.987C294.125 151.157 291.373 148.232 288.451 145.559L288.233 145.359L287.968 145.492C287.759 145.593 287.539 145.672 287.313 145.726C284.014 146.495 281.173 149.299 279.715 153.226L279.625 153.47C279.535 153.73 279.432 153.985 279.316 154.235L279.066 154.752L279.632 154.849C280.199 154.949 280.759 155.082 281.31 155.247C286.909 157.514 289.633 158.837 294.082 162.852C295.383 164.14 299.609 168.562 299.335 171.386C299.162 173.227 296.943 175.74 294.797 178.17L294.795 178.173C292.885 180.335 290.911 182.571 290.155 184.553C288.176 189.765 291.409 193.438 294.882 196.744C294.968 196.83 295.257 197.092 295.68 197.452C294.552 199.175 294.387 200.548 295.189 201.534C295.948 202.4 297.131 202.761 298.242 202.466C299.076 202.257 299.884 201.954 300.65 201.564ZM300.991 200.724L300.775 200.54L300.52 200.666C299.754 201.065 298.947 201.381 298.114 201.611C297.305 201.864 296.423 201.62 295.857 200.988C295.279 200.277 295.532 199.145 296.607 197.622L296.837 197.296L296.532 197.041C295.955 196.559 295.57 196.213 295.484 196.127C292.077 192.882 289.169 189.579 290.96 184.861C291.661 183.026 293.583 180.849 295.442 178.744L295.443 178.742L295.447 178.738C297.785 176.09 299.994 173.588 300.194 171.468C300.495 168.353 296.443 163.975 294.674 162.224C290.129 158.121 287.21 156.703 281.595 154.433C281.142 154.298 280.718 154.187 280.31 154.1C280.353 153.989 280.394 153.877 280.434 153.766L280.522 153.529C281.57 150.706 283.956 147.395 287.515 146.565C287.707 146.518 287.894 146.459 288.078 146.387C290.896 148.985 293.567 151.823 296.153 154.571L296.176 154.596L296.18 154.601C298.326 156.882 300.546 159.241 302.854 161.473C303.214 161.863 303.887 162.525 304.492 163.12L304.539 163.165C305.028 163.646 305.465 164.075 305.636 164.261C309.59 168.613 312.11 171.078 314.332 173.252L314.345 173.264C316.611 175.48 318.568 177.394 321.545 180.768C327.301 187.276 328.86 195.089 327.005 198.596L327.002 198.601C325.471 201.495 322.291 207.506 311.593 205.536C307.693 204.911 304.032 203.249 300.991 200.724Z" fill="black"/>
<path d="M306.653 201.788C306.443 201.788 306.264 201.636 306.228 201.429C305.924 199.187 307.341 197.071 309.526 196.503C309.676 196.469 309.833 196.518 309.937 196.632C310.042 196.745 310.078 196.906 310.032 197.053C309.986 197.2 309.865 197.312 309.715 197.346C307.968 197.8 306.836 199.491 307.079 201.283C307.1 201.409 307.065 201.538 306.983 201.635C306.9 201.732 306.78 201.788 306.653 201.788Z" fill="black"/>
<path d="M308.276 197.65C308.163 197.65 308.055 197.606 307.975 197.527C307.602 197.164 307.294 196.74 307.063 196.273C306.957 196.059 307.044 195.8 307.257 195.693C307.471 195.587 307.73 195.675 307.835 195.889C308.023 196.268 308.273 196.613 308.576 196.908C308.702 197.031 308.741 197.217 308.675 197.38C308.609 197.543 308.451 197.65 308.276 197.65Z" fill="black"/>
<path d="M306.892 199.017C306.856 199.017 306.82 199.012 306.785 199.003C306.348 198.891 305.93 198.711 305.548 198.47C305.417 198.388 305.34 198.242 305.346 198.087C305.352 197.933 305.44 197.793 305.576 197.721C305.713 197.65 305.877 197.656 306.008 197.739C306.314 197.932 306.649 198.076 306.999 198.166C307.21 198.22 307.347 198.423 307.32 198.639C307.293 198.855 307.11 199.017 306.892 199.017H306.892Z" fill="black"/>
<path d="M306.237 200.87L306.214 200.87L304.929 200.801C304.692 200.787 304.512 200.584 304.524 200.347C304.537 200.11 304.737 199.927 304.974 199.938L306.26 200.007C306.493 200.019 306.674 200.216 306.668 200.45C306.661 200.684 306.47 200.87 306.237 200.87V200.87Z" fill="black"/>
<path d="M292.541 193.627C292.391 193.627 292.253 193.55 292.174 193.423C292.096 193.296 292.088 193.137 292.154 193.003C293.128 191.094 295.077 189.884 297.215 189.859H297.261C297.499 189.86 297.691 190.054 297.69 190.293C297.689 190.532 297.496 190.724 297.258 190.723C297.244 190.721 297.229 190.721 297.215 190.723C295.403 190.744 293.752 191.77 292.927 193.387C292.854 193.534 292.704 193.627 292.541 193.627Z" fill="black"/>
<path d="M330.851 206.616C327.032 211.636 320.118 215.74 313.903 213.467C312.308 212.953 310.986 211.821 310.23 210.322C309.494 208.699 309.796 206.791 310.998 205.475C315.48 201.579 320.575 198.684 322.136 193.31C322.645 191.618 322.439 189.791 321.567 188.256C320.835 187.193 319.815 186.363 318.627 185.862C320.211 185.645 321.447 184.379 321.627 182.787C321.607 180.64 319.989 178.848 317.86 178.614C316.663 178.455 315.458 178.834 314.567 179.65C313.853 178.784 313.567 177.641 313.791 176.54C314.214 174.586 315.979 173.222 317.972 173.309C321.549 173.551 325.515 176.298 328.343 179.158C330.62 181.438 332.455 184.121 333.756 187.072C336.524 193.198 334.92 201.268 330.851 206.616Z" fill="black"/>
<path fill-rule="evenodd" clip-rule="evenodd" d="M336.764 197.04C336.84 197.044 336.915 197.045 336.99 197.045C338.3 197.081 339.551 196.502 340.373 195.479C341.321 194.161 341.591 192.192 341.174 189.627C341.047 188.007 340.273 186.507 339.028 185.466C337.998 184.716 336.716 184.399 335.456 184.582C334.327 184.649 333.273 185.169 332.533 186.026L332.416 186.179L334.199 195.614L334.25 195.752C334.817 196.58 335.763 197.065 336.764 197.04ZM336.805 196.177C336.122 196.198 335.467 195.902 335.031 195.374L333.337 186.408C333.936 185.833 334.72 185.491 335.548 185.441C336.573 185.285 337.618 185.529 338.469 186.123C339.561 187.03 340.232 188.347 340.324 189.765C340.696 192.063 340.472 193.864 339.675 194.974C338.965 195.811 337.899 196.258 336.805 196.177Z" fill="black"/>
<path d="M340.681 188.812C346.971 189.181 354.017 193.32 358.811 198.527C369.407 210.038 375.853 229.631 376.301 247.258C376.427 252.203 376.19 257.245 374.545 261.909C372.9 266.573 369.681 270.86 365.167 272.861C359.991 275.155 346.478 274.758 340.339 266.521C335.271 259.721 334.355 250.628 336.628 242.451C338.9 234.275 343.247 226.805 345.64 218.664C348.032 210.522 346.983 200.884 340.823 193.735L340.681 188.812Z" fill="black"/>
<path d="M318.299 186.319C317.858 186.321 317.422 186.224 317.023 186.037C316.807 185.936 316.715 185.678 316.816 185.462C316.917 185.246 317.174 185.153 317.39 185.255C318.145 185.576 319.01 185.497 319.696 185.045C320.537 184.573 321.096 183.72 321.194 182.76C321.163 180.842 319.714 179.248 317.812 179.038C316.743 178.892 315.665 179.229 314.869 179.959C314.111 180.684 313.835 181.78 314.159 182.779C314.213 182.923 314.186 183.086 314.088 183.205C313.991 183.324 313.837 183.382 313.685 183.357C313.533 183.332 313.406 183.227 313.352 183.083C312.901 181.763 313.259 180.301 314.267 179.339C315.25 178.429 316.585 178.004 317.912 178.18C320.274 178.431 322.064 180.432 322.055 182.813C321.937 184.059 321.221 185.169 320.136 185.788C319.582 186.127 318.948 186.311 318.299 186.319Z" fill="black"/>
<path d="M318.661 183.746C318.489 183.746 318.334 183.644 318.266 183.485C318.197 183.327 318.229 183.144 318.347 183.018C318.605 182.641 318.587 182.138 318.302 181.78C317.98 181.348 317.466 181.105 316.929 181.132C316.814 181.141 316.701 181.104 316.614 181.028C316.528 180.952 316.476 180.844 316.47 180.729C316.462 180.615 316.5 180.502 316.575 180.416C316.651 180.33 316.757 180.277 316.871 180.269C317.706 180.224 318.506 180.603 319.002 181.277C319.533 181.967 319.522 182.932 318.975 183.61C318.894 183.697 318.78 183.746 318.661 183.746Z" fill="black"/>
<path d="M232.323 184.202C227.259 194.656 222.448 205.828 219.287 217.009C218.149 221.033 217.264 225.283 218.133 229.374C219.097 233.908 222.088 237.7 224.991 241.309C234.816 253.529 246.55 269.488 256.68 282.305C258.984 285.227 261.91 287.596 265.244 289.241C266.852 290.031 268.465 290.796 269.801 291.607C271.394 292.527 272.883 293.617 274.242 294.859C274.582 295.181 275.342 295.908 274.899 296.43C274.587 296.797 272.836 296.037 272.394 295.848C270.765 295.126 269.183 294.301 267.659 293.378C267.462 293.264 267.212 293.312 267.07 293.489C266.928 293.666 266.936 293.92 267.089 294.088C269.945 297.212 276.478 302.91 279.723 306.319C280.066 306.698 280.368 307.113 280.623 307.556C280.742 307.76 280.749 308.012 280.642 308.223C280.534 308.433 280.326 308.575 280.091 308.597C279.751 308.651 279.309 308.439 278.675 307.895C276.468 305.999 274.506 304.427 272.308 302.519C272.131 302.366 271.162 301.634 270.715 301.805C270.36 301.94 270.151 302.25 270.415 302.542C272.783 304.893 275.325 306.721 277.615 309.148C278.327 309.817 278.98 310.547 279.568 311.328C279.791 311.667 279.74 312.118 279.446 312.399C278.883 312.955 278.136 312.451 277.806 312.14C275.701 310.157 273.628 308.155 271.522 306.172C270.595 305.298 269.095 303.863 268.573 304.203C268.286 304.47 268.5 304.814 268.772 305.175C271.34 308.044 273.714 310.204 276.288 313.068C276.851 313.694 277.204 314.466 276.686 314.841C276.24 315.215 274.935 314.236 273.499 312.797C271.646 310.94 270.34 309.494 268.253 307.664C267.652 307.137 266.421 306.12 266.025 306.6C266.025 306.6 265.237 306.66 271.596 313.095C272.724 314.236 272.716 314.979 272.454 315.238C271.917 315.69 270.599 314.734 269.845 314.04L264.697 308.936C262.508 306.75 260.482 304.404 258.638 301.918C256.198 298.911 253.269 294.748 252.875 289.235C252.815 288.392 252.465 287.595 251.885 286.98C239.936 274.272 226.569 259.55 214.697 246.951C210.491 242.487 206.16 237.818 204.269 231.977C202.462 226.397 203.083 220.346 203.932 214.541C205.799 201.802 208.667 189.231 212.509 176.945" fill="white"/>
<path d="M272.1 315.771C271.204 315.771 270.076 314.836 269.553 314.354L264.393 309.239C262.642 307.55 261.029 305.722 259.57 303.774C259.153 303.249 258.734 302.718 258.303 302.187C255.627 298.887 252.838 294.772 252.444 289.263C252.39 288.518 252.081 287.815 251.571 287.272C245.761 281.093 239.512 274.326 233.47 267.782C227.085 260.866 220.482 253.716 214.384 247.244C210.367 242.982 205.814 238.151 203.858 232.107C201.994 226.35 202.699 219.987 203.505 214.474C205.378 201.714 208.251 189.121 212.097 176.812L212.92 177.071C209.087 189.335 206.224 201.884 204.359 214.6C203.529 220.264 202.871 226.26 204.678 231.84C206.575 237.699 211.056 242.455 215.01 246.651C221.112 253.126 227.716 260.278 234.103 267.195C240.144 273.738 246.39 280.503 252.199 286.68C252.845 287.368 253.235 288.258 253.305 289.2C253.68 294.47 256.38 298.447 258.971 301.642C259.405 302.176 259.827 302.709 260.245 303.238C261.681 305.153 263.266 306.951 264.987 308.614L270.147 313.729C271.202 314.699 272.04 315.014 272.175 314.904C272.194 314.866 272.228 314.346 271.289 313.395C265.28 307.314 265.477 306.786 265.594 306.47L265.691 306.211L265.831 306.19C265.951 306.104 266.092 306.053 266.239 306.043C266.747 306.014 267.467 306.399 268.536 307.336C270.09 308.698 271.231 309.866 272.439 311.102C272.872 311.545 273.318 312.003 273.802 312.488C275.852 314.54 276.451 314.483 276.448 314.485C276.482 314.455 276.502 314.413 276.505 314.368C276.45 313.977 276.26 313.618 275.968 313.354C274.701 311.945 273.461 310.684 272.261 309.465C271.029 308.213 269.756 306.918 268.451 305.46C268.204 305.135 267.681 304.439 268.278 303.883C269.077 303.36 270.217 304.344 271.748 305.789L271.817 305.854C272.888 306.862 273.953 307.873 275.012 308.888C276.039 309.868 277.069 310.846 278.1 311.822C278.211 311.927 278.79 312.436 279.143 312.087C279.297 311.948 279.32 311.716 279.198 311.549C278.786 310.973 278.319 310.439 277.802 309.956C277.623 309.774 277.451 309.6 277.301 309.441C276.066 308.174 274.768 306.971 273.41 305.837C272.32 304.893 271.192 303.918 270.111 302.846C269.91 302.648 269.825 302.361 269.886 302.086C269.982 301.758 270.235 301.5 270.56 301.398C271.324 301.105 272.539 302.145 272.589 302.189C273.77 303.213 274.882 304.141 276 305.073C276.965 305.877 277.934 306.685 278.955 307.563C279.614 308.129 279.91 308.186 280.023 308.166C280.125 308.151 280.216 308.091 280.27 308.003C280.281 307.979 280.319 307.905 280.239 307.749C280.003 307.343 279.725 306.963 279.411 306.614C277.874 304.999 275.553 302.828 273.307 300.729C270.835 298.417 268.278 296.026 266.77 294.377C266.474 294.052 266.459 293.559 266.733 293.216C267.008 292.872 267.492 292.781 267.872 293L268.224 293.202C269.622 294.042 271.07 294.791 272.562 295.447C273.198 295.778 273.886 295.997 274.596 296.095C274.622 295.98 274.534 295.726 273.946 295.169C272.608 293.949 271.144 292.877 269.577 291.972C268.443 291.284 267.123 290.638 265.726 289.954L265.053 289.625C261.664 287.948 258.689 285.538 256.342 282.569C251.714 276.714 246.669 270.095 241.791 263.695C235.988 256.083 229.99 248.212 224.654 241.577C221.871 238.115 218.716 234.191 217.711 229.46C216.806 225.198 217.79 220.713 218.872 216.888C221.609 207.206 225.759 196.759 231.934 184.01L232.71 184.387C226.557 197.089 222.423 207.491 219.702 217.123C218.595 221.034 217.691 225.213 218.554 229.28C219.516 233.809 222.603 237.648 225.326 241.035C230.668 247.679 236.67 255.554 242.475 263.17C247.352 269.567 252.394 276.183 257.017 282.033C259.285 284.901 262.159 287.229 265.433 288.849L266.104 289.178C267.52 289.87 268.857 290.525 270.023 291.233C271.643 292.169 273.156 293.278 274.537 294.541C274.883 294.869 275.939 295.867 275.226 296.706C274.851 297.144 274.044 297.02 272.251 296.253C270.719 295.58 269.231 294.811 267.795 293.952L267.443 293.749C268.891 295.416 271.435 297.796 273.896 300.097C276.15 302.205 278.481 304.385 280.034 306.017C280.406 306.426 280.732 306.874 281.005 307.354C281.186 307.674 281.198 308.063 281.038 308.394C280.859 308.73 280.533 308.962 280.158 309.02C279.673 309.091 279.129 308.85 278.394 308.219C277.375 307.344 276.41 306.539 275.448 305.738C274.326 304.801 273.21 303.871 272.025 302.842C271.692 302.539 271.291 302.322 270.856 302.208C270.803 302.226 270.756 302.258 270.72 302.3C271.777 303.283 272.893 304.249 273.973 305.182C275.353 306.335 276.673 307.559 277.928 308.847C278.073 309.002 278.24 309.171 278.415 309.348C278.981 309.878 279.49 310.466 279.935 311.101C280.263 311.611 280.185 312.283 279.748 312.703C279.419 312.97 278.997 313.094 278.577 313.047C278.156 313 277.772 312.786 277.51 312.453C276.474 311.475 275.443 310.496 274.418 309.515C273.357 308.502 272.293 307.492 271.226 306.483L271.157 306.418C270.485 305.725 269.73 305.117 268.91 304.609C268.972 304.714 269.041 304.815 269.116 304.912C270.384 306.326 271.65 307.613 272.875 308.858C274.081 310.084 275.328 311.351 276.608 312.775C277.067 313.218 277.337 313.821 277.363 314.459C277.334 314.752 277.178 315.019 276.938 315.188C276.528 315.53 275.71 315.621 273.193 313.099C272.706 312.611 272.259 312.152 271.823 311.707C270.627 310.482 269.497 309.326 267.968 307.986C267.57 307.613 267.13 307.289 266.657 307.02C268.264 309.067 270.017 310.994 271.902 312.787C272.532 313.294 272.937 314.029 273.029 314.834C273.05 315.087 272.96 315.337 272.781 315.517C272.602 315.698 272.353 315.791 272.1 315.771L272.1 315.771Z" fill="black"/>
<path d="M190.666 92.3459C201.553 91.3807 215.845 96.4716 225.45 100.315C261.727 114.831 281.649 133.309 288.113 140.836C288.885 141.631 289.395 142.645 289.572 143.74C289.655 144.813 288.877 145.785 287.414 146.146C283.932 146.95 281.351 150.058 280.121 153.373C279.949 154.055 279.615 154.685 279.149 155.211C278.454 155.702 277.616 155.947 276.767 155.907C269.094 156.38 264.748 156.838 258.177 160.704C255.194 162.458 251.698 166.035 248.724 167.803C244.514 170.305 241.38 171.309 235.712 171.784C231.454 171.873 227.2 171.468 223.034 170.578C211.076 167.886 203.804 166.565 193.405 163.601C190.843 162.87 186.34 160.86 184.317 159.123C180.431 155.787 180.027 151.752 180.096 147.198C180.165 142.644 181.963 137.76 181.758 133.211C181.529 128.123 179.791 123.247 178.522 118.317C177.253 113.386 175.541 106.534 177.172 101.711C178.804 96.8884 182.809 93.0426 190.666 92.3459Z" fill="white"/>
<path fill-rule="evenodd" clip-rule="evenodd" d="M222.939 171.003C226.748 171.82 230.633 172.232 234.528 172.233C234.939 172.233 235.347 172.228 235.748 172.218C241.388 171.745 244.594 170.763 248.943 168.179C250.606 167.105 252.19 165.915 253.684 164.616C255.166 163.324 256.741 162.142 258.394 161.08C264.933 157.234 269.201 156.81 276.793 156.342C278.5 156.592 280.103 155.457 280.439 153.761L280.524 153.527C281.573 150.702 283.958 147.391 287.516 146.569C289.13 146.171 290.105 145.048 290 143.71C289.828 142.52 289.281 141.415 288.439 140.558C285.053 136.615 266.111 116.124 225.61 99.9175C215.861 96.0169 201.63 90.9426 190.628 91.9192C181.598 92.7199 178.104 97.6128 176.763 101.576C175.061 106.607 176.892 113.721 178.104 118.428L178.104 118.429C178.404 119.594 178.73 120.757 179.057 121.92L179.058 121.925C180.089 125.599 181.154 129.397 181.327 133.233C181.329 135.733 181.054 138.225 180.507 140.663C180.048 142.814 179.766 144.999 179.664 147.195C179.6 151.444 179.884 155.891 184.036 159.455C186.2 161.314 190.879 163.334 193.286 164.02C200.909 166.193 206.766 167.466 214.181 169.076C216.864 169.659 219.733 170.282 222.939 171.003ZM177.58 101.854C179.41 96.4425 183.826 93.3898 190.704 92.7798L190.704 92.7798C201.522 91.8179 215.623 96.8521 225.29 100.72C265.605 116.852 284.422 137.206 287.786 141.122C288.504 141.843 288.978 142.771 289.142 143.777C289.212 144.686 288.51 145.434 287.317 145.728C283.431 146.626 280.843 150.19 279.716 153.226L279.629 153.468C279.524 154.125 279.157 154.711 278.613 155.09C278.068 155.47 277.392 155.611 276.741 155.48C269.229 155.943 264.654 156.397 257.958 160.335C256.265 161.419 254.653 162.627 253.136 163.948C251.676 165.219 250.128 166.384 248.503 167.435C244.283 169.944 241.166 170.897 235.701 171.355C231.478 171.448 227.258 171.047 223.128 170.161C219.919 169.438 217.049 168.815 214.364 168.232L214.356 168.23C206.96 166.623 201.116 165.354 193.522 163.189C190.823 162.42 186.493 160.427 184.597 158.799C180.726 155.476 180.462 151.42 180.526 147.209C180.628 145.06 180.905 142.924 181.354 140.82C181.916 138.318 182.195 135.76 182.188 133.195C182.011 129.258 180.931 125.409 179.887 121.687L179.886 121.686C179.562 120.529 179.238 119.372 178.939 118.213C177.753 113.605 175.96 106.641 177.58 101.854Z" fill="black"/>
<path fill-rule="evenodd" clip-rule="evenodd" d="M199.709 109.047C199.709 110.924 201.227 112.445 203.1 112.445C204.972 112.443 206.488 110.923 206.491 109.047C206.49 107.17 204.972 105.648 203.1 105.648C201.227 105.648 199.709 107.17 199.709 109.047ZM200.763 108.077C201.155 107.13 202.077 106.513 203.1 106.512C204.495 106.514 205.627 107.648 205.629 109.047C205.629 110.072 205.013 110.996 204.068 111.388C203.123 111.781 202.035 111.564 201.312 110.839C200.589 110.114 200.372 109.024 200.763 108.077Z" fill="black"/>
<path fill-rule="evenodd" clip-rule="evenodd" d="M218.698 128.137C219.223 129.407 220.46 130.235 221.831 130.234C223.703 130.232 225.219 128.712 225.221 126.836C225.221 125.461 224.395 124.222 223.128 123.696C221.861 123.17 220.402 123.461 219.432 124.433C218.463 125.405 218.173 126.867 218.698 128.137ZM219.494 125.866C219.886 124.919 220.808 124.301 221.831 124.302C223.227 124.304 224.357 125.437 224.359 126.836C224.359 127.861 223.743 128.785 222.798 129.178C221.853 129.57 220.765 129.353 220.042 128.628C219.319 127.903 219.103 126.813 219.494 125.866Z" fill="black"/>
<path d="M248.208 113.95C246.992 113.948 245.87 113.295 245.268 112.236C244.665 111.178 244.674 109.878 245.291 108.828L246.034 109.266C245.336 110.472 245.74 112.016 246.938 112.723C248.137 113.43 249.68 113.035 250.393 111.838L251.136 112.277C250.524 113.315 249.41 113.952 248.208 113.95Z" fill="black"/>
<path fill-rule="evenodd" clip-rule="evenodd" d="M190.83 137.391C190.83 139.268 192.348 140.789 194.221 140.789C196.093 140.787 197.61 139.266 197.612 137.39C197.612 135.513 196.093 133.992 194.221 133.992C192.348 133.992 190.83 135.514 190.83 137.391ZM191.885 136.421C192.276 135.474 193.198 134.856 194.221 134.856C195.617 134.858 196.748 135.991 196.75 137.39C196.75 138.416 196.134 139.34 195.189 139.732C194.244 140.124 193.156 139.908 192.433 139.183C191.71 138.458 191.493 137.368 191.885 136.421Z" fill="black"/>
<path fill-rule="evenodd" clip-rule="evenodd" d="M270.327 138.692C270.852 139.962 272.088 140.789 273.46 140.789C275.332 140.787 276.848 139.266 276.85 137.39C276.85 136.016 276.024 134.777 274.757 134.251C273.489 133.725 272.031 134.016 271.061 134.988C270.092 135.96 269.802 137.422 270.327 138.692ZM271.123 136.42C271.515 135.473 272.437 134.856 273.46 134.856C274.855 134.858 275.986 135.992 275.988 137.39C275.988 138.416 275.372 139.34 274.427 139.732C273.482 140.125 272.394 139.908 271.671 139.183C270.948 138.458 270.732 137.367 271.123 136.42Z" fill="black"/>
<path d="M222.673 138.938C217.464 148.353 213.012 158.168 209.357 168.292C208.726 170.039 208.122 171.994 208.844 173.705C209.52 175.307 211.17 176.236 212.725 177.009C217.439 179.352 222.317 181.348 227.321 182.982C230.629 184.063 234.298 184.971 237.512 183.633C240.574 182.358 242.498 179.344 244.157 176.466C249.31 167.527 253.799 158.22 257.589 148.621" fill="white"/>
<path d="M222.301 138.721C218.451 145.7 215.006 152.896 211.984 160.273C210.619 163.612 208.656 167.352 208.17 170.956C207.77 173.929 209.45 175.76 211.922 177.085C215.186 178.783 218.552 180.274 222.001 181.552C225.34 182.834 228.871 184.269 232.452 184.648C239.903 185.437 243.203 179.149 246.332 173.495C250.745 165.5 254.644 157.231 258.005 148.737C258.21 148.221 257.377 147.997 257.174 148.508C254.538 155.163 251.569 161.68 248.279 168.036C246.741 171.002 245.151 173.95 243.45 176.826C241.767 179.672 239.714 182.656 236.349 183.565C232.887 184.5 229.2 183.183 225.939 182.066C222.489 180.885 219.102 179.528 215.79 178.001C214.418 177.412 213.078 176.751 211.776 176.02C209.442 174.626 208.587 172.767 209.234 170.094C210.151 166.941 211.297 163.861 212.662 160.876C215.697 153.439 219.164 146.187 223.045 139.157C223.314 138.67 222.57 138.233 222.301 138.721L222.301 138.721Z" fill="black"/>
<path d="M240.947 181.097C239.926 180.443 239.331 179.291 239.386 178.078C239.442 176.864 240.141 175.772 241.218 175.215C242.295 174.657 243.588 174.719 244.607 175.376L244.143 176.103C243.382 175.614 242.419 175.569 241.616 175.985C240.814 176.4 240.293 177.214 240.251 178.118C240.209 179.023 240.651 179.881 241.412 180.37L240.947 181.097Z" fill="black"/>
<path fill-rule="evenodd" clip-rule="evenodd" d="M218.698 165.918C219.223 167.188 220.46 168.016 221.831 168.016C223.703 168.013 225.219 166.493 225.221 164.617C225.221 163.242 224.395 162.003 223.128 161.477C221.861 160.952 220.402 161.242 219.432 162.215C218.463 163.187 218.173 164.648 218.698 165.918ZM219.494 163.647C219.886 162.7 220.808 162.083 221.831 162.083C223.227 162.085 224.357 163.218 224.359 164.617C224.359 165.642 223.743 166.566 222.798 166.959C221.853 167.351 220.765 167.134 220.042 166.409C219.319 165.684 219.103 164.594 219.494 163.647Z" fill="black"/>
<path fill-rule="evenodd" clip-rule="evenodd" d="M245.975 148.758C245.975 150.635 247.493 152.156 249.365 152.156C251.237 152.154 252.754 150.634 252.756 148.758C252.756 146.881 251.238 145.359 249.365 145.359C247.493 145.359 245.975 146.881 245.975 148.758ZM246.837 148.758C246.837 147.358 247.969 146.223 249.365 146.223V146.223C250.761 146.225 251.892 147.359 251.894 148.758C251.894 150.157 250.762 151.292 249.366 151.292C247.969 151.292 246.837 150.158 246.837 148.758Z" fill="black"/>
<path d="M314.322 32.7269C312.929 30.8244 311.033 29.3494 308.849 28.4679C308.643 28.3518 308.382 28.4203 308.259 28.6229C307.05 31.0933 305.814 33.547 305.473 36.3093H306.335C306.251 33.5296 305.831 30.7923 306.236 28.0162C306.292 27.7871 306.16 27.5541 305.935 27.4848C303.341 26.8364 300.854 25.8138 298.553 24.4491L298.336 25.2541C301.197 25.0573 304.127 25.2242 306.896 24.3592C307.121 24.2899 307.253 24.0569 307.197 23.8278C306.803 20.8444 306.629 17.836 306.674 14.8269L305.828 14.9418C306.675 17.4916 307.6 20.0116 308.604 22.5018C308.642 22.6291 308.736 22.7323 308.859 22.7824C308.982 22.8326 309.121 22.8243 309.237 22.7599C311.979 21.3234 314.126 18.8388 316.608 17.0218L316.018 16.4308C314.487 19.3642 312.805 22.2163 310.98 24.9758C310.451 25.8374 310.059 26.1823 310.357 27.1771C310.988 29.2839 312.539 31.2461 313.578 33.163C313.843 33.6517 314.588 33.2161 314.322 32.7269C313.792 31.7492 313.232 30.7897 312.681 29.8238C312.246 29.0599 311.269 27.8382 311.189 26.9474C311.104 26.0141 311.828 25.2434 312.347 24.3999C313.949 21.9679 315.423 19.4534 316.762 16.8668C316.928 16.5197 316.555 15.9959 316.172 16.2758C313.689 18.0937 311.54 20.579 308.802 22.0139L309.435 22.2721C308.434 19.7791 307.508 17.2591 306.659 14.7121C306.596 14.5094 306.397 14.3818 306.187 14.4102C305.977 14.4387 305.819 14.6149 305.812 14.8269C305.771 17.9132 305.956 20.9984 306.365 24.0575L306.667 23.5261C303.974 24.3672 301.119 24.1987 298.336 24.3901C298.144 24.396 297.979 24.5266 297.929 24.7118C297.879 24.897 297.956 25.0933 298.118 25.1951C300.483 26.599 303.039 27.6509 305.706 28.318L305.405 27.7866C304.987 30.645 305.386 33.4442 305.473 36.3094C305.481 36.5418 305.672 36.7257 305.904 36.7257C306.136 36.7257 306.326 36.5418 306.335 36.3094C306.655 33.7142 307.869 31.377 309.003 29.059L308.414 29.214C310.467 30.0252 312.255 31.3925 313.578 33.163C313.881 33.6264 314.627 33.194 314.322 32.7269Z" fill="black"/>
<path d="M422.992 210.747C421.599 208.845 419.703 207.37 417.518 206.488C417.312 206.372 417.051 206.441 416.929 206.643C415.414 209.833 413.938 213.424 413.553 216.956H414.415C414.265 213.309 414.429 209.656 414.906 206.037C414.963 205.807 414.831 205.574 414.605 205.505C412.103 204.82 409.477 204.749 407.223 203.343L407.005 204.148C409.381 203.899 412.496 203.969 414.572 202.643C414.705 202.566 414.786 202.423 414.786 202.27C414.494 199.086 414.677 195.834 414.635 192.639L413.788 192.754C414.836 195.798 416.327 198.661 417.558 201.63C417.629 201.853 417.86 201.984 418.088 201.932C419.902 201.671 421.587 200.84 423.394 200.501L422.975 199.779C422.096 200.565 421.267 201.408 420.432 202.241C419.995 202.678 418.93 203.393 418.754 204.021C418.577 204.65 419.261 205.721 419.524 206.248C420.364 207.928 421.356 209.531 422.248 211.183C422.512 211.673 423.256 211.237 422.992 210.747C422.285 209.437 421.527 208.155 420.816 206.847C420.46 206.19 419.524 204.749 419.668 204.239C419.823 203.691 421.161 202.731 421.569 202.327C422.231 201.672 422.89 201.011 423.584 200.39C423.932 200.08 423.554 199.595 423.165 199.668C421.358 200.007 419.674 200.838 417.859 201.099L418.389 201.4C417.159 198.432 415.667 195.566 414.619 192.524C414.557 192.322 414.357 192.194 414.148 192.223C413.938 192.251 413.779 192.427 413.773 192.639C413.81 195.446 413.76 198.257 413.857 201.063C413.864 201.261 413.98 201.906 413.879 202.062C413.635 202.435 412.212 202.586 411.803 202.667C410.221 202.978 408.607 203.116 407.005 203.284C406.814 203.29 406.649 203.42 406.599 203.606C406.549 203.791 406.626 203.987 406.788 204.089C409.112 205.539 411.791 205.63 414.376 206.338L414.075 205.807C413.581 209.502 413.406 213.232 413.553 216.956C413.562 217.189 413.752 217.373 413.984 217.373C414.216 217.373 414.407 217.189 414.415 216.956C414.781 213.598 416.235 210.107 417.673 207.08L417.083 207.234C419.137 208.046 420.925 209.413 422.248 211.184C422.55 211.647 423.297 211.214 422.992 210.747Z" fill="black"/>
<path d="M5.56127 146.136C4.16783 144.233 2.27219 142.758 0.087739 141.877C-0.118423 141.761 -0.379042 141.83 -0.501994 142.032C-1.63138 144.245 -2.99972 146.204 -3.32431 148.719H-2.46224C-2.53621 146.258 -2.89766 143.884 -2.52467 141.425C-2.46855 141.196 -2.60065 140.963 -2.82573 140.894C-5.15649 140.301 -7.38515 139.361 -9.437 138.104L-9.65455 138.909C-7.29215 138.746 -5.01854 138.753 -2.7417 138.024C-2.51714 137.954 -2.38533 137.722 -2.44065 137.493C-2.79693 134.446 -2.68274 131.363 -2.10211 128.351H-2.93339C-2.11489 131.024 -1.79687 133.824 -0.812011 136.449C-0.744543 136.675 -0.510687 136.808 -0.281838 136.75C1.75674 136.191 3.75171 135.483 5.68705 134.632L5.09731 134.041C4.36217 135.385 3.47165 136.638 2.44414 137.774C2.10341 138.176 1.08913 138.95 0.946463 139.503C0.761834 140.22 1.47521 141.176 1.81094 141.739C2.78239 143.371 3.89682 144.908 4.81686 146.572C5.08582 147.058 5.83065 146.623 5.56123 146.136C4.73397 144.64 3.75864 143.243 2.85766 141.793C2.57807 141.343 2.31078 140.893 2.06083 140.425C1.53824 139.449 1.69307 140.193 1.9159 139.681C2.24788 138.918 3.33551 138.066 3.86363 137.403C4.62152 136.498 5.28437 135.518 5.84168 134.477C5.93355 134.307 5.90314 134.097 5.76695 133.961C5.63076 133.824 5.42122 133.794 5.25195 133.886C3.38309 134.703 1.45695 135.382 -0.510984 135.917L0.0192394 136.219C-0.965614 133.594 -1.28362 130.795 -2.10213 128.121C-2.21679 127.746 -2.86144 127.674 -2.93341 128.121C-3.54242 131.284 -3.65663 134.524 -3.27194 137.722L-2.97089 137.191C-5.15587 137.747 -7.40032 138.034 -9.65457 138.045C-9.84594 138.051 -10.011 138.182 -10.061 138.367C-10.1111 138.552 -10.0344 138.749 -9.87212 138.85C-7.75702 140.147 -5.45873 141.117 -3.05488 141.727L-3.35593 141.195C-3.74097 143.734 -3.40076 146.175 -3.3243 148.719C-3.31562 148.951 -3.1252 149.135 -2.89326 149.135C-2.66132 149.135 -2.4709 148.951 -2.46223 148.719C-2.16193 146.393 -0.798054 144.507 0.242394 142.468L-0.347339 142.623C1.70599 143.434 3.49394 144.801 4.81692 146.572C5.11952 147.035 5.86628 146.603 5.56127 146.136Z" fill="black"/>
<path d="M77.3077 21.7764C75.9142 19.8739 74.0186 18.3989 71.8341 17.5174C71.628 17.4017 71.3674 17.4702 71.2444 17.6724C70.115 19.886 68.7467 21.845 68.4221 24.3596H69.2842C69.2102 21.899 68.8487 19.5246 69.2217 17.0657C69.2782 16.8366 69.1459 16.6032 68.9207 16.5343C66.1992 15.7433 63.331 15.3014 60.9069 13.745L60.6893 14.55C63.4771 14.3602 66.3075 14.5042 69.0047 13.6649C69.2293 13.5953 69.3612 13.3625 69.3057 13.1335C68.9494 10.0867 69.0636 7.00315 69.6443 3.99126H68.813C69.6315 6.66503 69.9495 9.4642 70.9344 12.0892C71.0019 12.3159 71.2357 12.449 71.4646 12.3909C73.5032 11.8317 75.4982 11.1237 77.4335 10.2723L76.8438 9.68128C76.1086 11.0256 75.2181 12.2785 74.1906 13.4142C73.8499 13.8162 72.8356 14.5902 72.6929 15.144C72.5083 15.8607 73.2217 16.8161 73.5574 17.3799C74.5288 19.0113 75.6433 20.5489 76.5633 22.2125C76.8323 22.6989 77.5771 22.2636 77.3077 21.7764C76.4804 20.2806 75.505 18.8837 74.6041 17.4335C74.3245 16.9834 74.0572 16.5332 73.8073 16.066C73.2847 15.0894 73.4395 15.8337 73.6623 15.3214C73.9943 14.5582 75.082 13.7063 75.6101 13.0436C76.368 12.1389 77.0308 11.1583 77.5881 10.1174C77.68 9.9477 77.6496 9.73769 77.5134 9.6012C77.3772 9.46471 77.1677 9.43423 76.9984 9.52629C75.1295 10.3437 73.2034 11.0227 71.2355 11.5577L71.7657 11.8594C70.7808 9.23448 70.4628 6.43533 69.6443 3.76155C69.5297 3.3871 68.885 3.31511 68.813 3.76155C68.204 6.92511 68.0898 10.1644 68.4745 13.3631L68.7755 12.8317C66.1537 13.6476 63.3979 13.5016 60.6894 13.686C60.4979 13.6918 60.3328 13.8224 60.2827 14.0077C60.2327 14.193 60.3094 14.3892 60.4718 14.491C62.9623 16.0901 65.8941 16.5544 68.6915 17.3675L68.3904 16.8361C68.0054 19.3744 68.3456 21.8154 68.4221 24.3596C68.4307 24.5919 68.6212 24.7758 68.8531 24.7758C69.085 24.7758 69.2755 24.5919 69.2841 24.3596C69.5844 22.0332 70.9483 20.1478 71.9888 18.1085L71.399 18.2635C73.4523 19.0747 75.2403 20.4419 76.5633 22.2125C76.866 22.6759 77.6127 22.2435 77.3077 21.7764Z" fill="black"/>
<ellipse cx="232.556" cy="59.6521" rx="2.10052" ry="2.10522" fill="black"/>
<ellipse cx="49.6357" cy="175.808" rx="2.10052" ry="2.10522" fill="black"/>
<ellipse cx="127.399" cy="74.6599" rx="2.10052" ry="2.10522" fill="black"/>
<ellipse cx="406.446" cy="130.535" rx="2.10051" ry="2.10522" fill="black"/>
<ellipse cx="382.667" cy="46.0974" rx="2.10051" ry="2.10522" fill="black"/>
<ellipse cx="395.03" cy="299.535" rx="2.10052" ry="2.10522" fill="black"/>
<ellipse cx="311.378" cy="102.418" rx="2.81004" ry="2.81633" fill="black"/>
<ellipse cx="141.152" cy="6.69133" rx="2.81004" ry="2.81633" fill="black"/>
<ellipse cx="44.7241" cy="64.3398" rx="2.81004" ry="2.81633" fill="black"/>
<ellipse cx="0.716284" cy="243.23" rx="2.81003" ry="2.81632" fill="black"/>
</svg>
