<svg width="380" height="404" viewBox="0 0 380 404" fill="none" xmlns="http://www.w3.org/2000/svg">
<rect opacity="0.01" width="379.76" height="404" fill="white"/>
<g clip-path="url(#clip0_36_1404)">
<path d="M126.127 91.2578C144.261 105.92 170.51 122.64 192.945 129.006C206.11 132.742 230.011 135.194 245.357 135.665C245.929 135.683 246.472 135.922 246.871 136.333C247.27 136.743 247.494 137.293 247.496 137.865L247.517 142.028C247.518 142.555 247.332 143.065 246.992 143.468C246.651 143.87 246.178 144.138 245.658 144.224C228.794 147.013 227.839 147.302 211.173 147.596C200.216 147.789 186.977 146.572 176.385 143.76C169.816 141.829 163.436 139.308 157.321 136.227" fill="white"/>
<path d="M208.846 148.023C197.531 148.023 185.52 146.605 176.282 144.153C169.687 142.216 163.281 139.686 157.144 136.592L157.499 135.865C163.589 138.936 169.945 141.448 176.489 143.371C186.298 145.975 199.264 147.408 211.166 147.194C226.965 146.915 228.499 146.661 243.167 144.228L245.592 143.827C246.018 143.759 246.406 143.54 246.685 143.211C246.964 142.882 247.116 142.463 247.113 142.032L247.092 137.869C247.092 137.401 246.909 136.951 246.583 136.615C246.256 136.279 245.812 136.084 245.344 136.071C229.589 135.588 205.831 133.084 192.834 129.397C169.906 122.891 143.211 105.592 125.873 91.5738L126.382 90.9453C143.657 104.914 170.244 122.146 193.055 128.619C205.989 132.289 229.662 134.781 245.369 135.263C246.047 135.282 246.69 135.564 247.163 136.05C247.636 136.536 247.9 137.187 247.901 137.865L247.921 142.028C247.926 142.652 247.707 143.257 247.303 143.733C246.9 144.209 246.34 144.525 245.724 144.624L243.299 145.026C228.578 147.467 227.039 147.723 211.18 148.002C210.407 148.016 209.628 148.022 208.846 148.023Z" fill="black"/>
<path d="M247.517 136.901C248.664 136.928 255.927 136.392 258.902 136.274C261.891 136.156 263.68 136.212 265.162 137.696C266.812 139.348 267.591 144.232 266.067 148.134C265.791 148.906 265.332 149.6 264.73 150.156C263.294 151.299 258.865 151.106 257.032 150.843C251.363 150.028 247.18 143.211 247.18 143.211L247.517 136.901Z" fill="white"/>
<path d="M260.198 151.449C259.121 151.45 258.044 151.38 256.975 151.241C251.185 150.408 247.01 143.705 246.836 143.42L246.77 143.313L247.134 136.485L247.527 136.494C248.143 136.512 250.57 136.356 253.147 136.195C255.302 136.061 257.531 135.922 258.887 135.868C261.895 135.75 263.836 135.794 265.448 137.408C267.226 139.189 268.03 144.216 266.445 148.279C266.145 149.118 265.643 149.871 264.983 150.469C264.02 151.236 262.018 151.449 260.198 151.449ZM247.591 143.101C248.141 143.949 252.053 149.716 257.091 150.44C259.049 150.723 263.227 150.834 264.479 149.837C265.024 149.324 265.439 148.689 265.691 147.985C267.143 144.264 266.446 139.551 264.876 137.98C263.544 136.645 261.961 136.556 258.918 136.676C257.573 136.729 255.348 136.868 253.197 137.002C250.982 137.141 248.871 137.273 247.901 137.299L247.591 143.101Z" fill="black"/>
<path d="M376.709 326.951C376.229 326.058 375.5 325.325 374.611 324.838C373.722 324.352 372.711 324.134 371.7 324.211C370.594 324.371 369.502 324.622 368.437 324.961C367.364 325.276 366.308 325.598 365.54 325.764C360.051 326.89 354.356 326.455 349.101 324.508C353.177 317.869 356.669 310.888 359.537 303.645C370.4 275.4 376.676 244.904 375.647 229.006C370.938 233.411 365.575 235.577 359.493 233.439C348.438 229.548 337.557 218.501 330.839 208.903C320.988 194.811 312.75 181.06 314.635 164.106C314.82 162.452 315.298 160.845 316.049 159.359C312 166.122 305.142 172.011 297.184 176.636C294.918 177.953 292.404 178.787 289.799 179.086C287.195 179.384 284.558 179.141 282.052 178.372C279.546 177.603 277.227 176.323 275.239 174.615C273.251 172.906 271.638 170.805 270.501 168.443C267.037 161.185 264.558 153.496 263.128 145.582C262.771 143.557 261.869 134.392 257.204 133.165C254.792 132.531 250.809 133.275 248.157 138.825C247.22 141.511 246.578 144.291 246.243 147.117C245.414 146.506 245.049 141.428 242.335 141.324C238.959 141.202 235.093 145.224 233.409 147.03C226.42 154.508 218.916 170.799 219.797 184.079C219.972 188.716 220.882 193.296 222.494 197.647C202.809 202.176 186.911 207.559 170.219 215.561C158.535 222.166 143.039 233.57 133.039 249.206C129.898 254.107 127.225 259.292 125.056 264.694C123.69 264.02 122.388 263.226 121.164 262.321C121.191 262.308 121.217 262.293 121.242 262.277C124.445 260.68 127.263 257.103 125.596 253.36C123.668 249.014 116.967 249.503 115.318 253.77C114.858 254.922 114.695 256.171 114.842 257.403C114.99 258.634 115.445 259.809 116.164 260.82C113.93 260.837 111.801 259.956 110.754 257.818C109.777 255.855 109.995 253.429 110.484 251.362C110.868 249.721 108.285 249.302 107.901 250.934C107.238 253.752 107.203 256.998 108.73 259.555C110.685 262.818 114.646 263.891 118.241 263.254C119.998 264.838 121.979 266.153 124.122 267.155C123.191 269.707 122.399 272.309 121.749 274.947C120.37 280.812 119.745 286.828 119.89 292.851H119.881C114.515 294.143 108.425 294.797 103.564 292.389C103.076 292.145 97.666 289.37 95.6331 289.187C94.6735 289.14 93.7166 289.323 92.8412 289.719C91.9659 290.114 91.1972 290.713 90.5984 291.464C88.3821 294.44 90.5023 297.581 91.8374 298.994C92.7702 299.965 93.8403 300.794 95.0136 301.455C102.639 305.818 114.602 304.099 120.431 301.42C120.989 306.511 121.911 311.556 123.188 316.515C118.258 319.665 110.17 322.353 103.128 321.663C102.299 321.585 100.973 321.393 99.6205 321.244C98.3071 321.045 96.9763 320.987 95.6505 321.07C93.3207 321.401 91.3574 323.295 91.0347 325.023C90.3541 328.583 93.12 331.157 94.9524 332.09C96.3512 332.793 97.8488 333.278 99.3938 333.53C108.843 335.197 120.911 329.726 125.771 325.075C126.251 326.445 126.748 327.797 127.272 329.115C140.421 362.307 166.694 385.604 202.102 390.167C211.046 391.31 235.442 391.886 244.386 390.752C278.206 386.468 303.528 374.741 324.137 355.405C330.062 360.858 340.882 364.916 349.677 363.834C350.262 363.773 350.829 363.677 351.387 363.563C352.452 363.35 353.495 363.037 354.502 362.63C355.56 362.208 356.439 361.432 356.988 360.434C357.537 359.436 357.723 358.278 357.513 357.159C357.275 356.172 356.755 355.277 356.018 354.58C355.281 353.883 354.357 353.415 353.359 353.232C352.427 353.125 351.487 353.09 350.55 353.128C349.974 353.136 349.389 353.154 348.839 353.171C348.15 353.197 347.513 353.206 347.007 353.189C341.456 352.929 336.091 351.108 331.528 347.936C332.706 346.662 333.858 345.353 335.009 344.027C337.924 340.633 341.117 336.627 343.613 333.102C348.961 336.217 361.849 338.268 370.61 335.327C372.248 334.803 373.791 334.019 375.182 333.006C376.097 332.329 376.749 331.356 377.027 330.252C377.306 329.148 377.193 327.981 376.709 326.951ZM118.023 254.119C119.419 251.999 123.223 252.775 123.432 255.358C123.454 256.047 123.308 256.731 123.007 257.351C122.706 257.971 122.259 258.508 121.705 258.918C120.895 259.551 119.979 260.035 119 260.349C117.368 258.525 116.548 256.353 118.023 254.119Z" fill="white"/>
<path d="M270.886 186.24C262.575 186.24 256.374 181.933 252.413 173.389C249.33 166.739 248.328 160.921 247.169 154.184C247.032 153.392 246.892 152.586 246.749 151.766C246.597 150.899 246.475 150.376 246.349 149.831C246.197 149.175 246.039 148.497 245.814 147.187L246.675 147.039C246.895 148.325 247.049 148.99 247.199 149.634C247.329 150.196 247.452 150.726 247.608 151.615C247.754 152.437 247.892 153.243 248.028 154.036C249.178 160.712 250.171 166.477 253.204 173.022C257.706 182.732 265.218 186.744 275.528 184.944C279.341 184.279 288.915 180.929 294.657 177.395L295.115 178.138C289.196 181.78 279.65 185.111 275.678 185.804C274.096 186.087 272.493 186.233 270.886 186.24Z" fill="black"/>
<path d="M314.637 164.099C312.755 181.057 320.986 194.802 330.843 208.894C337.561 218.498 348.436 229.544 359.491 233.436C369.474 236.95 375.939 230.254 376.759 225.337C378.049 217.596 377.597 212.337 374.215 201.348C369.68 186.615 352.963 163.062 339.153 153.565C329.396 146.856 315.842 153.243 314.637 164.099Z" fill="white"/>
<path d="M314.201 164.102C312.351 182.038 322.154 198.416 332.68 212.135C338.021 219.096 344.408 225.586 351.909 230.218C357.893 233.913 365.688 237.048 372.168 232.674C377.212 229.269 377.915 223.46 377.858 217.797C377.786 210.569 375.651 203.053 372.864 196.431C369.828 189.492 366.054 182.899 361.606 176.768C357.087 170.228 351.904 164.174 346.14 158.7C340.898 153.824 335.075 149.322 327.489 150.638C324.129 151.176 321.029 152.772 318.639 155.193C316.249 157.615 314.694 160.736 314.201 164.102C314.129 164.657 315.002 164.652 315.073 164.102C315.92 157.551 321.313 152.575 327.721 151.48C334.775 150.273 340.222 154.448 345.124 158.949C355.578 168.681 364.145 180.259 370.396 193.102C373.404 199.255 375.477 205.824 376.546 212.59C377.026 215.694 377.106 218.847 376.783 221.972C376.476 224.955 376.006 227.62 373.968 229.937C368.542 236.11 360.311 233.978 354.029 230.456C346.812 226.408 340.643 220.49 335.395 214.15C329.555 207.112 324.55 199.421 320.48 191.232C316.302 182.734 314.095 173.587 315.073 164.102C315.131 163.544 314.258 163.548 314.201 164.102Z" fill="black"/>
<path d="M357.484 191.088C358.833 190.114 358.503 187.354 356.748 184.923C354.993 182.492 352.478 181.311 351.129 182.284C349.781 183.258 350.11 186.018 351.865 188.449C353.62 190.88 356.136 192.061 357.484 191.088Z" fill="black"/>
<path d="M345.067 201.033C346.415 200.059 346.085 197.3 344.33 194.869C342.575 192.438 340.06 191.256 338.711 192.23C337.363 193.203 337.692 195.963 339.447 198.394C341.202 200.825 343.718 202.006 345.067 201.033Z" fill="black"/>
<path d="M296.848 218.829C294.91 218.83 293.019 218.229 291.436 217.109C289.854 215.99 288.657 214.407 288.012 212.579C287.367 210.751 287.305 208.768 287.835 206.903C288.364 205.038 289.459 203.383 290.969 202.167C292.478 200.951 294.328 200.233 296.262 200.112C298.197 199.991 300.122 200.474 301.771 201.493C303.42 202.512 304.712 204.017 305.469 205.802C306.227 207.586 306.412 209.561 305.999 211.456C305.542 213.543 304.385 215.411 302.721 216.752C301.057 218.093 298.985 218.826 296.848 218.829ZM296.846 200.967C295.243 200.967 293.674 201.42 292.318 202.275C290.962 203.129 289.876 204.349 289.184 205.795C288.493 207.241 288.224 208.852 288.409 210.444C288.595 212.036 289.227 213.543 290.232 214.79C291.238 216.038 292.575 216.976 294.091 217.496C295.607 218.016 297.239 218.096 298.799 217.728C300.358 217.36 301.782 216.558 302.905 215.415C304.028 214.272 304.806 212.835 305.147 211.269C305.416 210.029 305.404 208.745 305.112 207.51C304.82 206.275 304.256 205.121 303.46 204.133C302.664 203.145 301.656 202.348 300.512 201.8C299.367 201.252 298.115 200.967 296.846 200.967Z" fill="black"/>
<path d="M297.972 209.846C299.836 209.846 301.348 208.334 301.348 206.47C301.348 204.605 299.836 203.094 297.972 203.094C296.107 203.094 294.596 204.605 294.596 206.47C294.596 208.334 296.107 209.846 297.972 209.846Z" fill="black"/>
<path d="M341.214 268.413C338.753 272.993 333.981 275.681 328.806 277.156C324.958 278.255 320.133 278.7 316.486 277.731C312.455 276.658 308.825 273.604 307.76 269.573C306.696 265.551 308.834 260.691 312.804 259.443C314.465 259.015 316.195 258.926 317.891 259.181C318.275 259.216 318.65 259.26 319.016 259.294C321.189 259.556 323.021 259.896 324.793 260.184C325.761 260.341 326.712 260.481 327.698 260.577C329.513 260.769 331.341 260.792 333.16 260.647C334.312 260.56 335.56 260.403 336.956 260.158C340.289 259.565 341.685 261.423 342.139 263.186C342.489 264.983 342.16 266.845 341.214 268.413Z" fill="black"/>
<path d="M324.793 260.179C324.725 261.124 324.609 262.065 324.444 262.997C324.334 263.678 324.078 264.327 323.693 264.9C323.315 265.319 322.826 265.623 322.283 265.776C321.739 265.929 321.163 265.925 320.622 265.763C320.038 265.65 319.516 265.326 319.154 264.853C318.792 264.38 318.616 263.792 318.659 263.198C318.667 262.736 318.667 262.273 318.72 261.819C318.79 261.191 318.92 260.031 319.016 259.289C320.961 259.441 322.892 259.738 324.793 260.179Z" fill="white"/>
<path d="M333.159 260.64C333.159 261.399 333.327 264.03 332.365 265.125C332.066 265.392 331.715 265.594 331.333 265.717C330.951 265.841 330.548 265.882 330.149 265.841C329.784 265.81 329.431 265.696 329.117 265.509C328.802 265.321 328.535 265.065 328.334 264.759C327.962 264.055 327.773 263.269 327.785 262.472C327.75 262.027 327.723 261.12 327.697 260.57C329.466 260.704 331.311 260.687 333.159 260.64Z" fill="white"/>
<path d="M261.771 183.858C256.387 183.858 249.021 178.656 245.587 171.343C242.154 164.03 241.306 153.451 245.614 146.336C245.614 146.336 247.597 155.733 250.112 166.512C253.033 179.032 261.771 183.858 261.771 183.858Z" fill="black"/>
<path d="M101.532 291.298C99.3589 294.684 97.1862 298.069 95.0136 301.455C93.8403 300.794 92.7702 299.965 91.8374 298.994C90.5023 297.581 88.3821 294.44 90.5984 291.464C91.1972 290.713 91.9659 290.115 92.8412 289.719C93.7166 289.323 94.6735 289.14 95.6331 289.187C97.7132 289.518 99.7135 290.235 101.532 291.298Z" fill="black"/>
<path d="M99.621 321.242C99.5513 325.335 99.4757 329.43 99.3943 333.528C97.8493 333.277 96.3516 332.791 94.9529 332.088C93.1205 331.155 90.3546 328.581 91.0352 325.021C91.3579 323.293 93.3211 321.399 95.651 321.068C96.9768 320.985 98.3076 321.043 99.621 321.242Z" fill="black"/>
<path d="M298.681 206.468C299.275 206.468 299.756 205.988 299.756 205.394C299.756 204.801 299.275 204.32 298.681 204.32C298.088 204.32 297.607 204.801 297.607 205.394C297.607 205.988 298.088 206.468 298.681 206.468Z" fill="white"/>
<path d="M314.527 162.366C310.587 167.712 304.728 172.718 297.389 176.983C295.074 178.328 292.506 179.18 289.847 179.485C287.187 179.79 284.494 179.542 281.935 178.757C279.375 177.971 277.007 176.665 274.977 174.919C272.947 173.174 271.299 171.028 270.138 168.616C266.652 161.327 264.161 153.602 262.732 145.649C262.696 145.45 262.656 145.183 262.607 144.86C262.183 142.053 261.056 134.594 257.102 133.554C254.534 132.88 250.933 133.954 248.523 138.997C247.606 141.642 246.977 144.377 246.646 147.157L246.572 147.858L246.004 147.44C245.544 146.896 245.233 146.243 245.099 145.544C244.58 143.958 243.868 141.785 242.321 141.725C242.276 141.724 242.231 141.723 242.185 141.723C238.91 141.723 235.002 145.914 233.706 147.303C226.547 154.963 219.348 171.19 220.202 184.05C220.369 188.648 221.271 193.19 222.874 197.504L223.034 197.936L222.585 198.039C202.528 202.653 186.92 208.001 170.395 215.923C161.289 221.072 144.338 232.289 133.381 249.422C130.252 254.3 127.591 259.463 125.432 264.841L125.27 265.25L124.876 265.055C123.49 264.369 122.167 263.562 120.922 262.642L120.399 262.25L121.064 261.913C124.276 260.311 126.739 256.914 125.228 253.521C124.818 252.639 124.152 251.901 123.316 251.403C122.48 250.905 121.514 250.67 120.543 250.73C119.51 250.722 118.499 251.02 117.636 251.586C116.773 252.153 116.098 252.963 115.696 253.914C115.261 255.006 115.107 256.191 115.248 257.358C115.389 258.526 115.821 259.639 116.504 260.597L116.909 261.217L116.168 261.222C113.504 261.208 111.407 260.066 110.392 257.994C109.542 256.286 109.441 254.022 110.091 251.266C110.121 251.165 110.129 251.058 110.114 250.954C110.099 250.85 110.062 250.75 110.005 250.661C109.948 250.573 109.873 250.497 109.784 250.441C109.695 250.384 109.595 250.347 109.491 250.332C109.367 250.296 109.237 250.285 109.109 250.301C108.98 250.316 108.857 250.357 108.745 250.422C108.633 250.487 108.536 250.574 108.459 250.677C108.381 250.78 108.326 250.899 108.296 251.024C107.854 252.902 107.368 256.481 109.078 259.344C110.762 262.158 114.332 263.532 118.172 262.854L118.371 262.819L118.518 262.957C120.246 264.511 122.193 265.802 124.298 266.788L124.628 266.946L124.502 267.291C123.577 269.83 122.79 272.417 122.142 275.041C120.77 280.872 120.149 286.855 120.295 292.843L120.302 293.254H119.931C112.888 294.941 107.477 294.775 103.386 292.749L103.281 292.696C99.5798 290.827 96.7796 289.694 95.5976 289.587C94.7073 289.549 93.8204 289.72 93.0085 290.088C92.1966 290.456 91.4825 291.009 90.9238 291.703C88.7095 294.676 91.289 297.821 92.1326 298.714C93.0378 299.656 94.0759 300.46 95.2139 301.101C102.793 305.437 114.641 303.635 120.263 301.051L120.774 300.816L120.834 301.374C121.39 306.446 122.308 311.472 123.581 316.412L123.653 316.696L123.407 316.853C118.545 319.96 110.381 322.777 103.09 322.063C102.656 322.022 102.084 321.95 101.444 321.869C100.862 321.796 100.223 321.715 99.5774 321.644C98.2973 321.453 97.001 321.394 95.7089 321.468C93.4978 321.782 91.713 323.597 91.4331 325.094C90.7789 328.516 93.5696 330.929 95.1369 331.728C96.4991 332.411 97.9574 332.884 99.4617 333.129C108.868 334.79 120.826 329.247 125.492 324.78L125.946 324.346L126.153 324.939C126.675 326.428 127.165 327.744 127.649 328.963C141.232 363.252 168.389 385.412 202.155 389.764C211.36 390.941 235.588 391.458 244.336 390.348C277.434 386.156 302.704 374.958 323.862 355.108L324.136 354.851L324.412 355.105C330.654 360.852 341.497 364.432 349.628 363.43C350.152 363.376 350.699 363.289 351.308 363.165C352.348 362.957 353.367 362.651 354.351 362.253C355.321 361.862 356.127 361.147 356.631 360.23C357.134 359.313 357.306 358.25 357.115 357.221C356.894 356.317 356.415 355.496 355.737 354.858C355.059 354.221 354.211 353.793 353.295 353.628C352.386 353.529 351.471 353.496 350.557 353.53C349.984 353.538 349.4 353.556 348.853 353.573C348.108 353.601 347.481 353.607 346.993 353.59C341.366 353.334 335.927 351.489 331.305 348.27L330.911 348.007L331.232 347.659C332.473 346.318 333.684 344.935 334.705 343.759C337.844 340.104 340.972 336.133 343.284 332.866L343.498 332.565L343.818 332.751C348.765 335.632 361.613 337.919 370.482 334.942C372.079 334.431 373.583 333.668 374.939 332.681C375.778 332.056 376.375 331.16 376.63 330.146C376.886 329.131 376.783 328.06 376.34 327.112C375.9 326.292 375.231 325.619 374.414 325.175C373.597 324.731 372.668 324.535 371.741 324.611C370.659 324.769 369.591 325.016 368.549 325.348L368.06 325.492C367.15 325.76 366.291 326.014 365.626 326.156C360.064 327.294 354.295 326.854 348.97 324.888L348.497 324.723L348.757 324.295C352.829 317.682 356.31 310.722 359.161 303.498C369.697 276.104 376.31 245.481 375.245 229.03L376.052 228.978C377.124 245.534 370.488 276.296 359.915 303.788C357.111 310.902 353.696 317.759 349.709 324.284C354.761 326.069 360.205 326.443 365.454 325.367C366.091 325.23 366.936 324.98 367.831 324.716L368.324 324.572C369.414 324.224 370.531 323.968 371.664 323.806C372.758 323.724 373.852 323.962 374.813 324.491C375.774 325.019 376.561 325.815 377.078 326.783C377.598 327.897 377.717 329.157 377.416 330.349C377.115 331.541 376.412 332.593 375.425 333.327C374 334.366 372.418 335.17 370.739 335.708C361.709 338.739 349.127 336.569 343.733 333.63C341.429 336.859 338.379 340.723 335.317 344.288C334.379 345.368 333.283 346.62 332.149 347.858C336.559 350.839 341.707 352.543 347.024 352.782C347.491 352.8 348.096 352.792 348.825 352.765C349.379 352.747 349.966 352.73 350.544 352.721C351.505 352.686 352.467 352.722 353.422 352.83C354.503 353.029 355.502 353.538 356.299 354.294C357.096 355.05 357.657 356.022 357.912 357.091C358.135 358.3 357.932 359.55 357.339 360.627C356.745 361.705 355.797 362.543 354.655 363.001C353.625 363.419 352.558 363.739 351.468 363.957C350.834 364.086 350.261 364.177 349.72 364.233C341.504 365.247 330.583 361.695 324.143 355.952C302.91 375.765 277.571 386.953 244.437 391.151C239.337 391.634 234.214 391.84 229.091 391.768C219.118 391.768 207.734 391.292 202.052 390.566C167.985 386.176 140.592 363.831 126.897 329.262C126.472 328.193 126.044 327.051 125.595 325.785C120.52 330.285 108.699 335.582 99.3247 333.926C97.7405 333.667 96.2048 333.169 94.7705 332.448C93.0157 331.554 89.8946 328.836 90.6383 324.944C91.0165 322.922 93.2399 321.003 95.5948 320.667C96.9549 320.58 98.3204 320.638 99.6682 320.84C100.316 320.911 100.959 320.993 101.545 321.067C102.175 321.147 102.738 321.218 103.167 321.258C110.142 321.947 117.954 319.298 122.725 316.328C121.526 311.62 120.646 306.837 120.091 302.01C114.133 304.538 102.413 306.151 94.8135 301.803C93.6068 301.123 92.5061 300.271 91.5463 299.272C90.5918 298.261 87.6846 294.698 90.2752 291.22C90.9159 290.414 91.7394 289.773 92.6775 289.349C93.6156 288.925 94.6412 288.73 95.6694 288.782C97.4223 288.94 101.419 290.85 103.646 291.975L103.746 292.025C107.609 293.94 112.76 294.104 119.482 292.529C119.362 286.58 119.992 280.64 121.357 274.848C121.982 272.314 122.737 269.813 123.619 267.356C121.625 266.388 119.773 265.153 118.113 263.684C114.018 264.338 110.213 262.814 108.384 259.76C107.008 257.455 106.697 254.287 107.509 250.839C107.562 250.61 107.661 250.393 107.799 250.203C107.938 250.012 108.114 249.852 108.316 249.731C108.519 249.61 108.743 249.531 108.977 249.499C109.211 249.468 109.448 249.483 109.675 249.545C109.884 249.583 110.082 249.664 110.258 249.782C110.434 249.901 110.583 250.055 110.696 250.234C110.809 250.413 110.884 250.614 110.915 250.823C110.946 251.033 110.934 251.247 110.878 251.451C110.272 254.019 110.353 256.099 111.117 257.636C111.526 258.437 112.142 259.114 112.9 259.597C113.659 260.081 114.533 260.352 115.432 260.384C114.838 259.37 114.485 258.233 114.4 257.06C114.315 255.888 114.5 254.712 114.941 253.623C115.401 252.522 116.177 251.583 117.17 250.925C118.164 250.266 119.331 249.917 120.523 249.922C121.652 249.866 122.773 250.147 123.742 250.729C124.712 251.312 125.486 252.169 125.967 253.193C127.603 256.867 125.228 260.501 121.924 262.37C122.858 263.022 123.834 263.61 124.846 264.132C126.994 258.854 129.623 253.784 132.699 248.986C143.75 231.706 160.826 220.405 170.021 215.206C186.503 207.305 202.055 201.959 221.957 197.354C220.428 193.095 219.564 188.626 219.395 184.104C218.527 171.028 225.841 154.534 233.115 146.752C235.462 144.234 238.939 140.914 242.182 140.914C242.238 140.914 242.295 140.915 242.351 140.917C244.461 140.999 245.274 143.48 245.867 145.292C245.915 145.437 245.967 145.595 246.02 145.752C246.377 143.332 246.97 140.952 247.793 138.648C250.416 133.162 254.428 132.015 257.307 132.772C261.776 133.947 262.96 141.788 263.407 144.74C263.454 145.054 263.493 145.315 263.527 145.509C264.944 153.389 267.412 161.042 270.866 168.264C271.979 170.576 273.557 172.633 275.503 174.305C277.448 175.978 279.719 177.23 282.171 177.983C284.624 178.736 287.206 178.974 289.755 178.682C292.304 178.389 294.764 177.573 296.983 176.284C305.472 171.35 311.946 165.425 315.703 159.15L316.411 159.54L314.527 162.366Z" fill="black"/>
<path d="M261.896 141.086C259.834 146.169 259.305 153.169 261.773 160.697C264.137 167.905 270.574 174.858 276.905 175.895C273.989 173.7 271.645 170.833 270.074 167.538C267.52 161.77 265.474 155.79 263.958 149.666C263.142 145.709 261.896 141.086 261.896 141.086Z" fill="black"/>
<path d="M286.065 333.548C286.02 333.868 285.912 334.175 285.748 334.452C285.583 334.729 285.365 334.97 285.106 335.162C284.847 335.354 284.553 335.493 284.24 335.57C283.927 335.647 283.602 335.66 283.284 335.61L278.893 335.125C278.324 335.036 277.805 334.747 277.43 334.31C277.055 333.873 276.849 333.316 276.848 332.74C276.702 311.476 273.703 289.937 264.777 270.663C259.732 259.756 253.32 248.315 244.516 240.157C235.492 232.105 217.754 219.573 182.713 227.035C168.216 230.124 153.21 236.681 135.585 233.746C122.131 231.498 107.885 222.766 103.349 203.014C102.211 198.674 101.493 194.233 101.207 189.755C111.313 190.418 127.087 188.122 136.515 185.688C142.514 184.136 151.618 179.931 156.655 174.086C173.649 175.881 189.998 179.123 206.742 182.963C217.18 185.365 227.828 187.839 236.996 193.385C246.472 199.109 256.821 207.777 263.685 216.46C290.601 251.533 292.226 289.46 286.065 333.548Z" fill="black"/>
<path d="M68.4618 73.8928C68.272 73.838 68.0727 73.8237 67.8769 73.8508C67.6812 73.8778 67.4933 73.9457 67.3254 74.05C67.1575 74.1543 67.0134 74.2926 66.9024 74.4561C66.7913 74.6196 66.7159 74.8046 66.6808 74.9991C62.0843 100.886 62.2136 128.721 67.9409 154.335C69.8669 162.948 72.4751 171.655 77.8398 178.664C83.1903 185.654 91.2359 188.944 100.539 189.696C110.607 190.51 126.876 188.171 136.513 185.677C143.797 183.792 155.657 178.003 159.272 170.116C162.67 162.357 163.259 153.657 160.937 145.511C155.245 126.716 145.816 111.76 132.754 97.0951C119.966 82.7373 98.924 71.5897 79.677 69.6552C79.366 69.6244 79.0537 69.6991 78.7904 69.8674C78.527 70.0356 78.3278 70.2875 78.225 70.5826C77.1752 73.631 72.9176 74.7989 70.778 74.4299C69.9971 74.2913 69.224 74.112 68.4618 73.8928Z" fill="white"/>
<path d="M104.966 190.259C103.376 190.259 101.878 190.208 100.506 190.097C90.3049 189.272 82.5712 185.508 77.518 178.907C71.9192 171.592 69.3358 162.425 67.5458 154.421C61.9384 129.342 61.5009 101.853 66.2825 74.9266C66.3275 74.6765 66.4244 74.4385 66.5671 74.2282C66.7098 74.0178 66.895 73.8397 67.1108 73.7055C67.3266 73.5712 67.5682 73.4837 67.8199 73.4486C68.0716 73.4135 68.3279 73.4317 68.5722 73.5019C69.3203 73.7179 70.0794 73.8941 70.8462 74.0297C72.6922 74.3482 76.8358 73.372 77.8425 70.4486C77.9753 70.0677 78.2323 69.7424 78.5723 69.5252C78.9122 69.3079 79.3154 69.2113 79.7169 69.2509C98.6229 71.1509 120.059 82.232 133.056 96.8243C147.265 112.776 155.982 127.755 161.324 145.392C163.696 153.63 163.099 162.439 159.639 170.282C155.89 178.461 143.815 184.203 136.613 186.066C127.965 188.305 114.732 190.259 104.966 190.259ZM68.0717 74.2409C67.8811 74.2407 67.6942 74.2941 67.5324 74.3948C67.4134 74.4685 67.3114 74.5666 67.2332 74.6827C67.1549 74.7987 67.1022 74.93 67.0784 75.0679C62.3158 101.889 62.75 129.269 68.3354 154.245C70.1056 162.162 72.6567 171.225 78.1607 178.416C83.0678 184.827 90.6081 188.486 100.571 189.291C110.278 190.076 126.419 187.87 136.411 185.284C143.194 183.528 155.298 177.812 158.904 169.945C162.243 162.274 162.825 153.683 160.551 145.632C155.244 128.108 146.579 113.222 132.453 97.362C119.58 82.9103 98.3553 71.9365 79.6364 70.0554C79.4162 70.0349 79.1955 70.0883 79.0091 70.2072C78.8226 70.3261 78.6811 70.5037 78.6068 70.7119C77.4375 74.1051 72.8406 75.1947 70.7088 74.8263C69.9139 74.6857 69.1269 74.5032 68.3512 74.2796C68.2603 74.2538 68.1662 74.2408 68.0717 74.2409Z" fill="black"/>
<path d="M90.7453 32.2446C90.9232 32.9157 91.0365 33.4089 91.0607 33.5382C91.9257 37.9365 92.3704 42.2459 88.2469 45.0029C84.7867 47.3234 76.2649 47.5416 74.0173 50.1451C72.3193 52.1017 72.8449 57.1063 73.3219 59.8391C74.1342 63.8636 75.7274 67.6899 78.0112 71.1017C76.6853 73.7697 72.7963 74.7804 70.775 74.4327C70.0607 74.3092 69.3536 74.1473 68.6566 73.9476C67.5329 68.0778 66.9994 62.1272 65.8673 56.12C65.7461 55.2144 65.3095 53.0153 65.2447 52.4736C63.9189 41.6234 62.9163 39.7072 62.0026 31.2421C61.0891 22.7366 62.3423 15.7429 66.5465 12.4119C69.5218 10.051 75.2784 8.07826 82.5632 15.557C85.6421 18.8256 87.9539 22.7393 89.3303 27.0136C89.3303 27.0136 91.5295 27.054 92.2815 27.1349C94.1409 27.3289 94.917 28.1293 94.9415 29.4149C94.9657 31.3148 92.5807 31.8242 90.7453 32.2446Z" fill="white"/>
<path d="M71.6343 74.9047C71.3235 74.9064 71.0132 74.8819 70.7065 74.8313C69.9779 74.7051 69.2565 74.54 68.5455 74.3366L68.3063 74.2683L68.2597 74.0239C67.6912 71.0528 67.2656 68.0079 66.8543 65.0632C66.4484 62.1624 66.0292 59.1628 65.4702 56.1953C65.4031 55.6959 65.2499 54.8546 65.1117 54.0911C64.987 53.4042 64.8748 52.7789 64.844 52.5218C64.1753 47.0569 63.5808 43.8138 63.0565 40.9524C62.5409 38.1443 62.0545 35.4918 61.6005 31.2858C60.5986 21.9587 62.2219 15.3225 66.2953 12.0952C68.5779 10.2839 74.7617 6.96813 82.8531 15.2751C85.9036 18.5243 88.2187 22.3922 89.641 26.616C90.275 26.6302 91.7254 26.6689 92.3247 26.7332C94.2986 26.9389 95.3156 27.8386 95.3456 29.4071C95.3724 31.4848 93.074 32.1204 91.2414 32.5456C91.3623 33.0217 91.4381 33.3588 91.4578 33.4634C92.3271 37.8794 92.8127 42.4368 88.4717 45.3392C86.8175 46.4482 84.0888 47.0857 81.4493 47.7024C78.5003 48.3913 75.4502 49.1038 74.3235 50.4094C72.5952 52.401 73.4242 58.0772 73.7195 59.7696C74.5216 63.7436 76.0966 67.5214 78.355 70.8882L78.4742 71.0797L78.3732 71.2818C77.1651 73.7117 73.943 74.9047 71.6343 74.9047ZM69.0074 73.6256C69.6241 73.7938 70.2541 73.9343 70.8432 74.0346C72.7626 74.3615 76.2532 73.3868 77.5457 71.1172C75.2961 67.7217 73.7274 63.9216 72.9268 59.9279C72.5249 57.626 71.804 52.0789 73.7116 49.8804C75.0104 48.3763 78.0487 47.6664 81.2653 46.9152C83.8338 46.3151 86.4899 45.6945 88.0216 44.6677C91.9528 42.0392 91.5146 37.9402 90.6643 33.6166C90.6398 33.4867 90.5284 33.0047 90.3548 32.3482L90.2482 31.9439L90.759 31.827C92.4511 31.4398 94.5568 30.9581 94.5371 29.4201C94.5229 28.655 94.2481 27.7466 92.2394 27.537C91.5123 27.4588 89.3449 27.4186 89.3236 27.4182L89.0157 27.4126L88.9391 27.1146C87.5847 22.9066 85.3074 19.0544 82.2736 15.8392C74.9157 8.28389 69.4188 10.6482 66.7974 12.7287C62.953 15.7752 61.4339 22.162 62.4043 31.1993C62.8551 35.3753 63.317 37.892 63.8515 40.8063C64.3782 43.6791 64.9751 46.9349 65.6462 52.4247C65.6762 52.675 65.7868 53.281 65.9076 53.947C66.0481 54.7239 66.2028 55.5802 66.2684 56.0669C66.8274 59.0318 67.2482 62.0412 67.6549 64.9511C68.0536 67.8046 68.4658 70.7524 69.0074 73.6256Z" fill="black"/>
<path d="M78.4393 24.9972C78.4323 24.262 78.6558 23.543 79.0785 22.9413C79.5012 22.3397 80.1017 21.8855 80.7958 21.6428C81.5298 21.3911 81.2145 20.2192 80.4734 20.4734C79.5258 20.7911 78.7022 21.399 78.1195 22.211C77.5367 23.023 77.2243 23.9978 77.2266 24.9972C77.232 25.1544 77.2983 25.3034 77.4114 25.4126C77.5245 25.5219 77.6757 25.583 77.833 25.583C77.9902 25.583 78.1414 25.5219 78.2545 25.4126C78.3676 25.3034 78.4339 25.1544 78.4393 24.9972Z" fill="black"/>
<path d="M82.3643 25.6935C82.8125 25.6935 83.1759 25.3301 83.1759 24.8819C83.1759 24.4337 82.8125 24.0703 82.3643 24.0703C81.9161 24.0703 81.5527 24.4337 81.5527 24.8819C81.5527 25.3301 81.9161 25.6935 82.3643 25.6935Z" fill="black"/>
<path d="M85.5505 37.0498C86.0199 37.8432 86.7023 38.4891 87.5202 38.9143C88.338 39.3395 89.2587 39.5269 90.1777 39.4555C90.693 39.4146 90.6974 38.6057 90.1777 38.6469C89.4003 38.7176 88.6188 38.5668 87.9235 38.2119C87.2282 37.8571 86.6476 37.3127 86.2486 36.6418C86.1926 36.553 86.1044 36.4895 86.0024 36.4647C85.9005 36.4398 85.7929 36.4555 85.7024 36.5084C85.6118 36.5614 85.5453 36.6474 85.517 36.7484C85.4887 36.8494 85.5007 36.9575 85.5505 37.0498Z" fill="black"/>
<path d="M66.4743 27.8429C67.6095 27.6128 66.6183 25.4703 66.3998 24.3762C65.6901 20.8223 67.242 18.4053 69.4694 16.4653C71.2359 14.9956 73.4402 14.1536 75.7367 14.0716C77.8285 14.1369 79.9062 14.4382 81.9304 14.9699C81.5223 10.7209 80.1789 5.40246 76.5111 2.73673C74.1138 0.994311 71.745 1.47234 70.4449 2.89567C69.6209 3.79784 69.4967 5.16008 68.7432 6.122C67.7099 7.44102 65.842 7.65263 64.2764 8.24942C60.7025 9.61168 58.409 13.4002 58.1385 17.2153C57.8907 21.298 58.964 25.3519 61.1995 28.7771L66.4743 27.8429Z" fill="black"/>
<path d="M66.3599 27.4785C65.8222 27.01 65.1306 26.7563 64.4176 26.7659C63.7045 26.7755 63.02 27.0479 62.4952 27.5307C61.9905 28.0353 61.6042 28.6457 61.3642 29.3178C61.1243 29.99 61.0368 30.7071 61.108 31.4172C61.153 32.7775 61.6758 34.0786 62.5846 35.0919C63.0429 35.589 63.6171 35.9651 64.256 36.1866C64.8948 36.4081 65.5786 36.4681 66.2463 36.3614C66.9104 36.2334 67.5166 35.8977 67.9775 35.4028C68.4385 34.9079 68.7302 34.2793 68.8107 33.6078L66.3599 27.4785Z" fill="white"/>
<path d="M65.5731 36.8262C64.956 36.8159 64.3474 36.6813 63.7836 36.4304C63.2197 36.1794 62.7123 35.8174 62.2916 35.3659C61.3145 34.2845 60.7522 32.8917 60.7046 31.435C60.6256 30.6637 60.7214 29.8845 60.9851 29.1553C61.2488 28.4261 61.6735 27.7658 62.2277 27.2235C62.8289 26.668 63.6159 26.357 64.4344 26.3516C65.2529 26.3462 66.0439 26.6468 66.6524 27.1943C66.7262 27.2718 66.7662 27.3755 66.7637 27.4825C66.7612 27.5895 66.7164 27.6912 66.6391 27.7653C66.5618 27.8393 66.4583 27.8797 66.3513 27.8776C66.2443 27.8755 66.1424 27.8311 66.0681 27.7541C65.6033 27.3604 65.0103 27.1506 64.4013 27.1644C63.7923 27.1782 63.2095 27.4147 62.763 27.8291C62.3046 28.2937 61.9548 28.854 61.7384 29.4698C61.522 30.0856 61.4446 30.7416 61.5115 31.3908C61.5488 32.6558 62.0327 33.8668 62.8775 34.8092C63.2894 35.2564 63.8051 35.5953 64.3791 35.7961C64.953 35.9969 65.5675 36.0533 66.1684 35.9604C66.7463 35.8514 67.2746 35.5616 67.6771 35.1328C68.0795 34.704 68.3354 34.1584 68.4076 33.5747C68.4161 33.4684 68.4663 33.3697 68.5472 33.3002C68.6281 33.2307 68.7332 33.196 68.8396 33.2036C68.946 33.2112 69.0451 33.2605 69.1153 33.3408C69.1855 33.4211 69.2212 33.5259 69.2145 33.6324C69.126 34.3919 68.7983 35.1035 68.2789 35.6646C67.7594 36.2257 67.0751 36.6072 66.3247 36.7539C66.0771 36.8022 65.8253 36.8264 65.5731 36.8262Z" fill="black"/>
<path d="M65.0293 29.2051C62.5565 28.9044 61.8746 32.548 64.0914 33.3824C64.5247 33.5455 64.7119 32.8511 64.2825 32.6894C62.769 32.1197 63.4239 29.7285 65.0293 29.9237C65.4873 29.9794 65.4833 29.2603 65.0293 29.2051Z" fill="black"/>
<path d="M277.791 334.43C275.202 339.085 274.355 344.51 275.402 349.733C275.429 349.906 275.492 350.071 275.588 350.217C275.722 350.344 275.881 350.441 276.055 350.501C276.229 350.562 276.414 350.584 276.597 350.566L279.756 350.7C279.908 350.707 280.06 350.682 280.202 350.628C280.344 350.574 280.474 350.492 280.583 350.386C280.693 350.281 280.78 350.154 280.839 350.014C280.898 349.873 280.927 349.723 280.926 349.57L280.915 348.039C280.91 347.344 280.969 346.525 281.556 346.153C282.471 345.574 283.574 346.683 283.837 347.733C284.101 348.783 284.102 350.032 284.946 350.711C285.675 351.153 286.543 351.31 287.381 351.149L299.113 350.322C299.731 350.279 301.706 350.299 301.951 349.992C302.68 349.075 302.804 345.999 300.638 344.472C299.978 344.034 299.23 343.747 298.446 343.629L289.577 342.021C287.967 341.729 286.052 341.172 285.629 339.591C285.321 338.444 285.624 336.194 284.668 334.982L277.791 334.43Z" fill="black"/>
<path d="M134.328 232.332C134.263 232.332 134.199 232.316 134.141 232.286C134.046 232.236 133.974 232.151 133.942 232.049C133.91 231.946 133.92 231.835 133.969 231.74C134.445 230.817 134.776 229.826 134.95 228.802C134.969 228.697 135.029 228.604 135.117 228.543C135.204 228.482 135.313 228.458 135.418 228.476C135.523 228.495 135.617 228.555 135.678 228.642C135.74 228.729 135.764 228.838 135.746 228.943C135.557 230.048 135.2 231.118 134.686 232.115C134.652 232.18 134.601 232.235 134.537 232.273C134.474 232.312 134.402 232.332 134.328 232.332ZM135.509 226.054C135.406 226.054 135.307 226.014 135.232 225.944C135.157 225.873 135.112 225.776 135.106 225.673C135.037 224.619 134.883 223.572 134.645 222.543C134.633 222.491 134.632 222.438 134.641 222.385C134.65 222.333 134.669 222.283 134.698 222.238C134.726 222.193 134.763 222.154 134.806 222.124C134.849 222.093 134.898 222.071 134.95 222.06C135.002 222.048 135.055 222.046 135.108 222.055C135.16 222.064 135.21 222.084 135.255 222.112C135.3 222.14 135.338 222.177 135.369 222.22C135.4 222.264 135.421 222.313 135.433 222.364C135.681 223.437 135.841 224.528 135.912 225.626C135.916 225.679 135.908 225.732 135.891 225.782C135.874 225.832 135.846 225.879 135.811 225.918C135.776 225.958 135.733 225.99 135.685 226.013C135.638 226.037 135.586 226.05 135.533 226.053L135.509 226.054ZM134.137 219.752C134.053 219.752 133.971 219.726 133.903 219.678C133.835 219.629 133.783 219.561 133.755 219.482C133.421 218.529 133.019 217.53 132.562 216.51C132.518 216.413 132.514 216.301 132.552 216.201C132.59 216.101 132.667 216.02 132.764 215.976C132.862 215.932 132.973 215.929 133.074 215.967C133.174 216.005 133.255 216.081 133.299 216.179C133.766 217.219 134.177 218.24 134.518 219.215C134.536 219.265 134.543 219.318 134.54 219.371C134.537 219.424 134.524 219.476 134.501 219.524C134.478 219.571 134.446 219.614 134.406 219.65C134.366 219.685 134.32 219.712 134.27 219.73C134.227 219.745 134.182 219.753 134.137 219.752ZM131.501 213.841C131.428 213.841 131.356 213.821 131.293 213.783C131.23 213.745 131.179 213.691 131.144 213.626C130.657 212.71 130.124 211.768 129.559 210.829C129.531 210.783 129.513 210.733 129.505 210.68C129.497 210.628 129.499 210.574 129.512 210.522C129.525 210.471 129.548 210.422 129.58 210.379C129.611 210.336 129.651 210.3 129.696 210.273C129.742 210.245 129.793 210.227 129.845 210.219C129.898 210.212 129.952 210.214 130.003 210.227C130.055 210.24 130.103 210.263 130.146 210.295C130.189 210.326 130.225 210.366 130.252 210.412C130.824 211.364 131.365 212.318 131.858 213.247C131.883 213.294 131.899 213.345 131.904 213.398C131.909 213.451 131.903 213.504 131.888 213.555C131.872 213.606 131.847 213.653 131.813 213.694C131.779 213.735 131.738 213.769 131.691 213.794C131.632 213.825 131.567 213.841 131.501 213.841ZM128.174 208.288C128.107 208.288 128.042 208.272 127.983 208.24C127.924 208.209 127.874 208.163 127.838 208.108C127.251 207.226 126.633 206.334 126 205.458C125.969 205.415 125.947 205.366 125.934 205.315C125.922 205.263 125.92 205.209 125.928 205.157C125.937 205.104 125.955 205.054 125.983 205.009C126.011 204.964 126.048 204.924 126.091 204.893C126.134 204.862 126.183 204.84 126.234 204.827C126.286 204.815 126.34 204.813 126.392 204.822C126.445 204.83 126.495 204.849 126.54 204.877C126.585 204.905 126.625 204.941 126.656 204.985C127.294 205.869 127.919 206.769 128.51 207.66C128.551 207.721 128.574 207.792 128.577 207.865C128.581 207.938 128.565 208.01 128.53 208.075C128.496 208.139 128.444 208.193 128.382 208.231C128.319 208.268 128.247 208.288 128.174 208.288ZM104.562 207.757C104.457 207.757 104.356 207.716 104.281 207.642C104.205 207.569 104.161 207.469 104.158 207.364C104.155 207.259 104.193 207.157 104.264 207.08C104.335 207.002 104.434 206.955 104.538 206.949C105.599 206.864 106.655 206.72 107.7 206.518C107.805 206.499 107.914 206.522 108.002 206.583C108.09 206.643 108.15 206.736 108.17 206.841C108.19 206.947 108.167 207.055 108.107 207.144C108.046 207.232 107.953 207.293 107.848 207.313C106.77 207.522 105.681 207.67 104.586 207.756L104.562 207.757ZM110.928 206.593C110.83 206.593 110.736 206.558 110.662 206.493C110.588 206.429 110.54 206.34 110.527 206.243C110.514 206.146 110.537 206.047 110.591 205.966C110.645 205.884 110.727 205.825 110.821 205.799C111.862 205.511 112.886 205.178 113.863 204.81C113.963 204.773 114.074 204.776 114.172 204.82C114.269 204.865 114.345 204.946 114.383 205.046C114.421 205.146 114.417 205.257 114.374 205.354C114.33 205.452 114.249 205.528 114.149 205.566C113.149 205.944 112.102 206.284 111.036 206.578C111.001 206.588 110.965 206.593 110.928 206.593ZM116.968 204.295C116.877 204.295 116.789 204.265 116.717 204.208C116.646 204.152 116.596 204.073 116.575 203.985C116.553 203.896 116.563 203.803 116.601 203.721C116.639 203.638 116.704 203.571 116.785 203.53C117.734 203.053 118.653 202.518 119.536 201.928C119.58 201.899 119.63 201.878 119.682 201.868C119.734 201.857 119.787 201.857 119.839 201.868C119.891 201.878 119.941 201.898 119.985 201.928C120.029 201.957 120.067 201.995 120.097 202.039C120.126 202.083 120.147 202.133 120.157 202.185C120.168 202.237 120.168 202.29 120.158 202.342C120.147 202.394 120.127 202.444 120.097 202.488C120.068 202.532 120.03 202.57 119.986 202.6C119.076 203.208 118.129 203.76 117.15 204.252C117.094 204.28 117.031 204.295 116.968 204.295ZM124.38 203.035C124.319 203.036 124.258 203.022 124.203 202.995C124.148 202.968 124.1 202.929 124.062 202.88C123.152 201.718 122.472 200.914 122.208 200.608C122.147 200.591 122.093 200.557 122.05 200.511C122.012 200.478 121.982 200.437 121.96 200.392C121.939 200.346 121.928 200.297 121.927 200.246C121.925 200.196 121.935 200.146 121.954 200.1C121.974 200.054 122.003 200.012 122.039 199.977L122.309 200.276L122.079 199.942L122.383 199.664L122.695 199.936C122.703 199.945 123.51 200.862 124.698 202.382C124.745 202.442 124.774 202.513 124.782 202.589C124.79 202.664 124.777 202.74 124.743 202.808C124.71 202.876 124.659 202.934 124.594 202.974C124.53 203.014 124.456 203.035 124.38 203.035Z" fill="white"/>
<path d="M282.117 332.744C282.089 332.744 282.062 332.741 282.035 332.735C281.983 332.724 281.934 332.704 281.89 332.674C281.846 332.644 281.808 332.606 281.779 332.561C281.75 332.517 281.73 332.467 281.72 332.415C281.71 332.363 281.711 332.309 281.722 332.257C281.739 332.171 281.756 332.078 281.773 331.981C281.782 331.929 281.801 331.878 281.829 331.833C281.857 331.788 281.894 331.749 281.937 331.718C281.981 331.687 282.03 331.665 282.082 331.653C282.134 331.642 282.187 331.64 282.24 331.649C282.292 331.658 282.342 331.677 282.387 331.706C282.432 331.734 282.471 331.771 282.502 331.814C282.533 331.858 282.555 331.907 282.566 331.959C282.578 332.011 282.579 332.064 282.57 332.117C282.552 332.223 282.533 332.325 282.513 332.422C282.494 332.513 282.444 332.594 282.372 332.653C282.3 332.712 282.21 332.744 282.117 332.744ZM282.495 329.237C282.487 329.237 282.479 329.237 282.47 329.236C282.417 329.232 282.365 329.219 282.317 329.195C282.27 329.172 282.227 329.14 282.192 329.1C282.157 329.06 282.13 329.014 282.113 328.963C282.096 328.913 282.088 328.86 282.092 328.807C282.149 327.88 282.195 326.798 282.228 325.59C282.231 325.484 282.274 325.384 282.35 325.311C282.425 325.237 282.527 325.196 282.632 325.196H282.643C282.696 325.198 282.748 325.21 282.797 325.231C282.845 325.253 282.889 325.284 282.926 325.322C282.962 325.361 282.991 325.406 283.01 325.456C283.029 325.506 283.038 325.559 283.036 325.612C283.003 326.828 282.956 327.92 282.899 328.858C282.892 328.96 282.847 329.056 282.772 329.127C282.697 329.197 282.598 329.237 282.495 329.237ZM282.688 322.771H282.685C282.632 322.77 282.579 322.76 282.53 322.739C282.481 322.718 282.437 322.688 282.4 322.65C282.363 322.612 282.333 322.568 282.313 322.518C282.293 322.469 282.283 322.417 282.284 322.363C282.288 321.755 282.291 321.131 282.291 320.49L282.287 319.134C282.286 319.027 282.328 318.924 282.404 318.848C282.479 318.771 282.582 318.728 282.689 318.727H282.691C282.798 318.727 282.9 318.77 282.976 318.845C283.052 318.92 283.095 319.023 283.095 319.129L283.099 320.49C283.099 321.132 283.097 321.759 283.092 322.37C283.091 322.476 283.048 322.578 282.973 322.654C282.897 322.729 282.795 322.771 282.688 322.771ZM282.656 316.299C282.55 316.299 282.448 316.257 282.373 316.183C282.297 316.108 282.254 316.007 282.252 315.901C282.236 314.848 282.213 313.768 282.186 312.669C282.184 312.616 282.194 312.563 282.213 312.514C282.232 312.464 282.26 312.419 282.297 312.38C282.333 312.342 282.377 312.311 282.426 312.289C282.474 312.268 282.527 312.256 282.58 312.255H282.59C282.695 312.255 282.797 312.296 282.872 312.369C282.948 312.443 282.992 312.543 282.994 312.649C283.022 313.751 283.044 314.833 283.061 315.888C283.062 315.995 283.021 316.099 282.947 316.176C282.872 316.253 282.77 316.297 282.663 316.299H282.656ZM282.498 309.828C282.393 309.828 282.292 309.787 282.216 309.714C282.141 309.641 282.097 309.542 282.093 309.437C282.058 308.371 282.018 307.294 281.973 306.206C281.969 306.099 282.008 305.994 282.08 305.915C282.153 305.836 282.254 305.79 282.361 305.785C282.467 305.784 282.57 305.823 282.648 305.895C282.727 305.967 282.774 306.067 282.782 306.173C282.826 307.261 282.866 308.342 282.902 309.41C282.905 309.517 282.866 309.621 282.793 309.7C282.72 309.778 282.618 309.824 282.511 309.828H282.498ZM282.233 303.36C282.129 303.36 282.03 303.32 281.954 303.249C281.879 303.177 281.835 303.079 281.83 302.976C281.777 301.899 281.72 300.822 281.659 299.746C281.653 299.639 281.69 299.534 281.761 299.454C281.833 299.375 281.933 299.326 282.04 299.32C282.093 299.314 282.147 299.32 282.199 299.336C282.25 299.353 282.297 299.38 282.337 299.416C282.378 299.451 282.41 299.495 282.432 299.544C282.454 299.594 282.466 299.647 282.466 299.701C282.527 300.777 282.584 301.858 282.637 302.936C282.639 302.989 282.632 303.042 282.614 303.092C282.596 303.142 282.568 303.188 282.533 303.228C282.497 303.267 282.454 303.299 282.406 303.321C282.358 303.344 282.306 303.357 282.253 303.359L282.233 303.36ZM281.865 296.897C281.763 296.897 281.664 296.858 281.589 296.787C281.514 296.717 281.468 296.621 281.462 296.519C281.391 295.434 281.316 294.357 281.237 293.294C281.23 293.188 281.265 293.083 281.335 293.002C281.405 292.922 281.504 292.872 281.61 292.864C281.717 292.857 281.822 292.891 281.903 292.96C281.984 293.029 282.035 293.128 282.044 293.234C282.123 294.3 282.198 295.378 282.269 296.467C282.276 296.574 282.24 296.679 282.169 296.759C282.098 296.84 281.998 296.889 281.891 296.896C281.883 296.897 281.874 296.897 281.865 296.897ZM281.384 290.441C281.282 290.441 281.185 290.403 281.111 290.335C281.036 290.267 280.99 290.173 280.982 290.072C280.888 288.974 280.789 287.902 280.686 286.854C280.675 286.747 280.708 286.64 280.776 286.558C280.844 286.475 280.942 286.422 281.049 286.412C281.155 286.404 281.26 286.437 281.343 286.505C281.425 286.572 281.478 286.669 281.491 286.775C281.594 287.824 281.693 288.9 281.787 290.002C281.796 290.109 281.763 290.215 281.694 290.297C281.625 290.379 281.526 290.431 281.419 290.44C281.407 290.441 281.395 290.441 281.384 290.441ZM280.744 284C280.645 284 280.549 283.963 280.475 283.897C280.401 283.831 280.354 283.74 280.343 283.642C280.216 282.525 280.081 281.454 279.941 280.439C279.934 280.387 279.937 280.333 279.95 280.282C279.964 280.23 279.987 280.182 280.019 280.14C280.051 280.098 280.091 280.062 280.137 280.035C280.183 280.008 280.233 279.991 280.286 279.984C280.392 279.971 280.499 279.999 280.584 280.064C280.669 280.128 280.726 280.223 280.742 280.329C280.883 281.35 281.018 282.427 281.147 283.55C281.159 283.657 281.128 283.764 281.061 283.848C280.995 283.932 280.897 283.986 280.791 283.998C280.775 283.999 280.76 284 280.744 284ZM279.847 277.589C279.752 277.589 279.66 277.555 279.587 277.494C279.515 277.433 279.466 277.348 279.45 277.254C279.255 276.137 279.054 275.142 278.851 274.299L278.818 274.165C278.791 274.059 278.806 273.945 278.86 273.849C278.914 273.753 279.003 273.681 279.109 273.649C279.158 273.634 279.21 273.629 279.261 273.635C279.312 273.64 279.362 273.656 279.407 273.681C279.452 273.706 279.491 273.74 279.522 273.781C279.554 273.822 279.577 273.869 279.59 273.918L279.604 273.975L279.635 274.105C279.844 274.97 280.048 275.981 280.246 277.115C280.255 277.168 280.254 277.221 280.242 277.273C280.231 277.325 280.209 277.374 280.179 277.417C280.148 277.461 280.109 277.498 280.064 277.526C280.02 277.554 279.97 277.574 279.917 277.583C279.894 277.587 279.871 277.589 279.847 277.589ZM278.384 271.277C278.295 271.277 278.209 271.248 278.139 271.194C278.069 271.141 278.018 271.066 277.994 270.98C277.736 270.04 277.436 269.001 277.092 267.877C277.076 267.826 277.07 267.772 277.075 267.719C277.08 267.666 277.095 267.614 277.12 267.567C277.145 267.52 277.179 267.478 277.22 267.445C277.261 267.411 277.308 267.385 277.359 267.369C277.41 267.354 277.464 267.348 277.517 267.354C277.57 267.359 277.621 267.374 277.668 267.399C277.715 267.425 277.757 267.459 277.791 267.5C277.825 267.541 277.85 267.589 277.865 267.64C278.211 268.772 278.513 269.819 278.774 270.766C278.788 270.817 278.792 270.87 278.785 270.923C278.779 270.976 278.762 271.027 278.736 271.073C278.71 271.119 278.674 271.16 278.632 271.192C278.591 271.225 278.543 271.249 278.491 271.263C278.456 271.272 278.42 271.277 278.384 271.277ZM276.487 265.075C276.403 265.075 276.32 265.049 276.252 264.999C276.183 264.95 276.131 264.88 276.105 264.8C275.778 263.825 275.422 262.807 275.036 261.752C275.018 261.702 275.01 261.649 275.012 261.596C275.014 261.543 275.027 261.491 275.049 261.443C275.072 261.395 275.103 261.351 275.142 261.315C275.181 261.279 275.227 261.251 275.277 261.233C275.327 261.215 275.38 261.207 275.433 261.209C275.486 261.211 275.538 261.224 275.586 261.246C275.634 261.269 275.678 261.3 275.714 261.339C275.75 261.378 275.778 261.424 275.796 261.474C276.184 262.537 276.542 263.56 276.87 264.542C276.887 264.593 276.894 264.646 276.891 264.699C276.887 264.752 276.873 264.803 276.849 264.851C276.826 264.898 276.793 264.941 276.753 264.976C276.713 265.01 276.667 265.037 276.616 265.054C276.575 265.068 276.531 265.075 276.487 265.075ZM274.264 258.989C274.183 258.989 274.104 258.964 274.037 258.918C273.97 258.873 273.918 258.808 273.888 258.733C273.504 257.759 273.094 256.764 272.66 255.747C272.618 255.649 272.617 255.537 272.657 255.438C272.697 255.338 272.775 255.259 272.874 255.217C272.972 255.175 273.084 255.173 273.183 255.213C273.283 255.253 273.362 255.331 273.404 255.43C273.841 256.452 274.252 257.456 274.64 258.436C274.659 258.485 274.669 258.538 274.668 258.591C274.667 258.644 274.656 258.696 274.635 258.745C274.614 258.794 274.583 258.838 274.545 258.875C274.507 258.912 274.462 258.941 274.413 258.96C274.365 258.979 274.315 258.989 274.264 258.989ZM271.719 253.032C271.642 253.032 271.567 253.01 271.502 252.968C271.436 252.927 271.385 252.868 271.352 252.798C270.909 251.838 270.445 250.868 269.959 249.886C269.936 249.839 269.922 249.787 269.918 249.734C269.914 249.681 269.921 249.628 269.938 249.577C269.955 249.527 269.982 249.48 270.017 249.44C270.052 249.4 270.094 249.367 270.142 249.344C270.189 249.32 270.241 249.306 270.294 249.302C270.347 249.299 270.401 249.306 270.451 249.323C270.501 249.34 270.548 249.367 270.588 249.402C270.628 249.437 270.661 249.479 270.684 249.527C271.174 250.514 271.641 251.491 272.086 252.458C272.115 252.52 272.128 252.587 272.123 252.655C272.118 252.723 272.097 252.789 272.06 252.846C272.024 252.903 271.973 252.95 271.914 252.983C271.854 253.015 271.787 253.032 271.719 253.032ZM268.84 247.232C268.767 247.232 268.695 247.212 268.632 247.174C268.569 247.137 268.517 247.083 268.483 247.018C267.983 246.082 267.462 245.142 266.92 244.198C266.866 244.105 266.852 243.994 266.88 243.891C266.908 243.787 266.976 243.699 267.069 243.646C267.162 243.592 267.272 243.578 267.376 243.606C267.479 243.634 267.567 243.702 267.621 243.795C268.167 244.745 268.692 245.692 269.197 246.637C269.247 246.732 269.258 246.843 269.227 246.945C269.195 247.048 269.125 247.134 269.03 247.185C268.972 247.216 268.906 247.232 268.84 247.232ZM265.61 241.622C265.542 241.622 265.474 241.605 265.414 241.571C265.354 241.538 265.303 241.489 265.267 241.431C264.695 240.509 264.108 239.597 263.522 238.721C263.492 238.677 263.471 238.627 263.46 238.575C263.45 238.523 263.449 238.469 263.46 238.417C263.47 238.364 263.49 238.314 263.52 238.27C263.549 238.225 263.587 238.187 263.632 238.158C263.676 238.128 263.726 238.107 263.778 238.097C263.831 238.087 263.885 238.087 263.937 238.097C263.989 238.108 264.039 238.129 264.083 238.158C264.128 238.188 264.165 238.227 264.195 238.271C264.785 239.155 265.377 240.075 265.954 241.005C265.992 241.066 266.013 241.136 266.015 241.208C266.016 241.28 265.999 241.351 265.964 241.414C265.929 241.477 265.877 241.53 265.815 241.566C265.753 241.603 265.683 241.622 265.61 241.622ZM262.012 236.244C261.949 236.244 261.885 236.228 261.829 236.199C261.772 236.17 261.722 236.128 261.685 236.076C261.052 235.199 260.401 234.333 259.75 233.501C259.717 233.459 259.693 233.411 259.679 233.36C259.664 233.309 259.66 233.255 259.667 233.202C259.673 233.15 259.69 233.099 259.716 233.052C259.742 233.006 259.777 232.965 259.819 232.932C259.861 232.9 259.909 232.875 259.96 232.861C260.011 232.847 260.065 232.843 260.117 232.85C260.17 232.856 260.221 232.873 260.267 232.9C260.314 232.926 260.354 232.961 260.387 233.003C261.044 233.843 261.701 234.717 262.34 235.603C262.384 235.663 262.41 235.734 262.416 235.808C262.421 235.883 262.406 235.957 262.373 236.023C262.339 236.09 262.287 236.145 262.224 236.184C262.16 236.223 262.087 236.244 262.012 236.244ZM258.025 231.147C257.967 231.147 257.909 231.134 257.855 231.11C257.802 231.085 257.755 231.049 257.717 231.004C257.018 230.182 256.301 229.371 255.585 228.594C255.549 228.555 255.521 228.51 255.502 228.46C255.484 228.41 255.476 228.357 255.478 228.304C255.48 228.251 255.493 228.199 255.515 228.151C255.537 228.103 255.569 228.059 255.608 228.023C255.647 227.987 255.692 227.96 255.742 227.941C255.792 227.923 255.845 227.915 255.898 227.917C255.951 227.919 256.003 227.931 256.051 227.954C256.099 227.976 256.142 228.007 256.178 228.046C256.903 228.831 257.628 229.65 258.333 230.481C258.383 230.54 258.415 230.612 258.425 230.688C258.436 230.765 258.424 230.842 258.391 230.912C258.359 230.982 258.307 231.042 258.243 231.083C258.178 231.125 258.102 231.147 258.025 231.147ZM253.638 226.396C253.531 226.396 253.428 226.354 253.353 226.279C252.587 225.52 251.802 224.776 251.019 224.068C250.94 223.996 250.892 223.895 250.887 223.789C250.882 223.682 250.919 223.577 250.991 223.498C251.062 223.419 251.162 223.371 251.269 223.365C251.376 223.36 251.481 223.396 251.56 223.468C252.353 224.185 253.148 224.937 253.923 225.705C253.98 225.761 254.019 225.833 254.035 225.912C254.05 225.99 254.043 226.072 254.012 226.146C253.982 226.22 253.93 226.283 253.863 226.328C253.796 226.373 253.718 226.396 253.638 226.396ZM248.841 222.061C248.747 222.062 248.657 222.029 248.584 221.97C247.755 221.289 246.903 220.624 246.051 219.994C245.965 219.931 245.908 219.835 245.892 219.729C245.876 219.623 245.903 219.516 245.967 219.429C246.031 219.343 246.126 219.286 246.232 219.27C246.337 219.254 246.445 219.28 246.532 219.344C247.395 219.983 248.258 220.656 249.098 221.345C249.162 221.397 249.209 221.469 249.231 221.549C249.253 221.63 249.25 221.715 249.222 221.793C249.194 221.872 249.142 221.94 249.074 221.988C249.006 222.036 248.924 222.062 248.841 222.061ZM243.646 218.218C243.566 218.218 243.489 218.195 243.422 218.151C242.525 217.556 241.609 216.983 240.701 216.447C240.608 216.392 240.541 216.304 240.515 216.2C240.488 216.096 240.503 215.986 240.558 215.893C240.612 215.801 240.701 215.734 240.805 215.707C240.909 215.681 241.019 215.696 241.111 215.751C242.031 216.294 242.959 216.874 243.869 217.477C243.942 217.524 243.997 217.595 244.026 217.676C244.056 217.758 244.058 217.847 244.033 217.93C244.008 218.013 243.957 218.086 243.887 218.138C243.817 218.19 243.733 218.218 243.646 218.218ZM238.079 214.936C238.014 214.936 237.95 214.92 237.893 214.89C236.95 214.4 235.98 213.929 235.007 213.49C234.909 213.446 234.833 213.365 234.795 213.264C234.757 213.164 234.761 213.052 234.805 212.955C234.849 212.857 234.93 212.781 235.031 212.743C235.131 212.705 235.243 212.708 235.34 212.753C236.326 213.198 237.31 213.676 238.266 214.173C238.346 214.215 238.41 214.282 238.447 214.365C238.485 214.447 238.493 214.54 238.472 214.627C238.45 214.715 238.4 214.793 238.329 214.849C238.258 214.905 238.17 214.936 238.079 214.936ZM232.195 212.276C232.145 212.276 232.095 212.267 232.049 212.249C231.047 211.861 230.031 211.499 229.027 211.172C228.976 211.155 228.93 211.129 228.889 211.095C228.849 211.06 228.816 211.018 228.792 210.971C228.768 210.923 228.753 210.872 228.749 210.819C228.745 210.766 228.751 210.712 228.768 210.662C228.784 210.611 228.81 210.564 228.845 210.524C228.88 210.484 228.922 210.451 228.969 210.427C229.017 210.402 229.068 210.388 229.121 210.384C229.174 210.38 229.228 210.386 229.278 210.403C230.295 210.734 231.325 211.102 232.341 211.494C232.429 211.528 232.502 211.592 232.548 211.674C232.594 211.757 232.61 211.853 232.593 211.946C232.575 212.038 232.526 212.122 232.453 212.183C232.381 212.243 232.289 212.276 232.195 212.276ZM226.057 210.273C226.021 210.273 225.986 210.269 225.952 210.26C224.924 209.985 223.874 209.734 222.832 209.513C222.727 209.491 222.636 209.428 222.578 209.338C222.52 209.248 222.499 209.139 222.521 209.034C222.544 208.93 222.606 208.838 222.696 208.78C222.786 208.721 222.895 208.7 222.999 208.722C224.056 208.946 225.119 209.2 226.161 209.479C226.256 209.504 226.338 209.563 226.393 209.644C226.447 209.726 226.47 209.824 226.458 209.922C226.445 210.019 226.397 210.108 226.323 210.173C226.25 210.238 226.155 210.273 226.057 210.273ZM185.991 209.269C185.406 209.269 184.827 209.265 184.255 209.258C184.148 209.258 184.045 209.215 183.97 209.138C183.894 209.062 183.852 208.959 183.853 208.852C183.854 208.745 183.897 208.642 183.973 208.567C184.049 208.491 184.152 208.449 184.26 208.45H184.264C185.317 208.463 186.392 208.464 187.489 208.453H187.493C187.6 208.453 187.703 208.495 187.779 208.57C187.856 208.645 187.899 208.748 187.899 208.855C187.9 208.963 187.858 209.066 187.782 209.142C187.707 209.218 187.604 209.261 187.497 209.262C186.99 209.267 186.488 209.269 185.991 209.269ZM190.727 209.192C190.621 209.192 190.519 209.15 190.443 209.076C190.367 209.002 190.324 208.9 190.322 208.794C190.321 208.688 190.361 208.586 190.434 208.509C190.508 208.432 190.608 208.387 190.714 208.384C191.768 208.35 192.842 208.304 193.937 208.247C194.043 208.242 194.147 208.28 194.226 208.351C194.305 208.423 194.353 208.523 194.359 208.63C194.364 208.736 194.327 208.841 194.256 208.92C194.185 209 194.086 209.048 193.979 209.055C192.879 209.112 191.799 209.158 190.74 209.192L190.727 209.192ZM181.028 209.177L181.013 209.177C179.908 209.136 178.828 209.08 177.774 209.011C177.721 209.008 177.669 208.994 177.621 208.971C177.573 208.948 177.53 208.915 177.494 208.875C177.459 208.835 177.431 208.789 177.414 208.738C177.397 208.688 177.39 208.634 177.393 208.581C177.397 208.528 177.411 208.476 177.434 208.428C177.458 208.38 177.491 208.337 177.531 208.302C177.571 208.267 177.618 208.24 177.669 208.224C177.72 208.207 177.773 208.2 177.826 208.204C178.874 208.273 179.946 208.328 181.043 208.369C181.149 208.373 181.249 208.418 181.322 208.495C181.395 208.572 181.434 208.675 181.432 208.781C181.43 208.887 181.387 208.988 181.311 209.062C181.236 209.136 181.134 209.178 181.028 209.177ZM219.741 208.935C219.72 208.936 219.698 208.934 219.677 208.93C218.631 208.765 217.56 208.623 216.496 208.508C216.443 208.503 216.391 208.487 216.344 208.462C216.297 208.437 216.255 208.402 216.221 208.361C216.187 208.319 216.162 208.272 216.147 208.22C216.132 208.169 216.127 208.115 216.133 208.062C216.138 208.009 216.155 207.957 216.18 207.911C216.206 207.864 216.241 207.822 216.283 207.789C216.325 207.756 216.373 207.731 216.424 207.717C216.476 207.702 216.53 207.698 216.583 207.704C217.66 207.82 218.744 207.964 219.803 208.132C219.904 208.148 219.995 208.201 220.058 208.281C220.121 208.361 220.151 208.461 220.143 208.563C220.136 208.664 220.09 208.759 220.015 208.828C219.941 208.897 219.843 208.935 219.741 208.935ZM197.184 208.854C197.079 208.854 196.979 208.813 196.903 208.74C196.828 208.668 196.784 208.568 196.78 208.464C196.777 208.359 196.814 208.257 196.884 208.179C196.954 208.102 197.052 208.054 197.156 208.047C198.211 207.971 199.283 207.885 200.371 207.788C200.478 207.778 200.584 207.811 200.667 207.88C200.749 207.949 200.801 208.047 200.81 208.154C200.82 208.261 200.787 208.367 200.718 208.45C200.649 208.532 200.551 208.584 200.444 208.593C199.35 208.691 198.273 208.778 197.213 208.853L197.184 208.854ZM174.579 208.754C174.566 208.754 174.553 208.753 174.54 208.752C173.436 208.648 172.361 208.529 171.316 208.395C171.209 208.381 171.113 208.326 171.047 208.241C170.981 208.156 170.952 208.049 170.966 207.942C170.979 207.836 171.035 207.739 171.12 207.674C171.204 207.608 171.312 207.579 171.418 207.592C172.455 207.725 173.521 207.843 174.616 207.947C174.719 207.957 174.815 208.006 174.883 208.085C174.952 208.163 174.987 208.265 174.982 208.368C174.977 208.472 174.933 208.57 174.858 208.642C174.783 208.714 174.683 208.754 174.579 208.754ZM203.63 208.314C203.525 208.314 203.425 208.273 203.349 208.2C203.274 208.128 203.23 208.028 203.226 207.924C203.223 207.819 203.26 207.717 203.33 207.639C203.4 207.562 203.498 207.514 203.602 207.507C204.687 207.429 205.779 207.374 206.848 207.341C206.955 207.34 207.057 207.381 207.135 207.454C207.212 207.527 207.259 207.627 207.264 207.733C207.267 207.841 207.228 207.945 207.154 208.023C207.081 208.101 206.979 208.146 206.872 208.15C205.815 208.181 204.734 208.236 203.659 208.313L203.63 208.314ZM213.32 208.241L213.297 208.241C212.242 208.178 211.162 208.138 210.088 208.124C209.981 208.123 209.878 208.08 209.803 208.003C209.727 207.927 209.686 207.824 209.686 207.717C209.687 207.61 209.73 207.507 209.807 207.432C209.883 207.356 209.986 207.315 210.093 207.315H210.099C211.186 207.33 212.278 207.37 213.344 207.434C213.449 207.44 213.547 207.487 213.618 207.564C213.689 207.642 213.727 207.744 213.724 207.849C213.721 207.954 213.677 208.054 213.601 208.127C213.526 208.2 213.425 208.241 213.32 208.241ZM168.172 207.934C168.15 207.934 168.128 207.932 168.106 207.928C167.034 207.754 165.959 207.557 164.912 207.344C164.86 207.333 164.81 207.313 164.766 207.283C164.722 207.253 164.684 207.215 164.655 207.171C164.625 207.127 164.605 207.077 164.595 207.025C164.585 206.973 164.585 206.919 164.595 206.867C164.606 206.815 164.627 206.765 164.657 206.721C164.686 206.677 164.725 206.639 164.769 206.61C164.813 206.581 164.863 206.561 164.915 206.551C164.968 206.541 165.021 206.541 165.073 206.552C166.111 206.763 167.174 206.958 168.235 207.13C168.336 207.146 168.426 207.2 168.489 207.28C168.551 207.36 168.582 207.46 168.574 207.561C168.565 207.662 168.52 207.757 168.445 207.826C168.371 207.895 168.273 207.933 168.172 207.934ZM161.841 206.642C161.808 206.642 161.775 206.638 161.744 206.63C160.682 206.367 159.627 206.079 158.608 205.774C158.557 205.759 158.51 205.734 158.469 205.701C158.427 205.667 158.393 205.626 158.368 205.579C158.343 205.532 158.327 205.481 158.321 205.428C158.316 205.375 158.321 205.322 158.336 205.271C158.352 205.22 158.377 205.173 158.41 205.131C158.444 205.09 158.485 205.056 158.532 205.031C158.579 205.006 158.63 204.99 158.683 204.985C158.736 204.979 158.79 204.985 158.84 205C159.846 205.3 160.889 205.585 161.938 205.845C162.034 205.869 162.118 205.927 162.174 206.008C162.23 206.089 162.254 206.188 162.242 206.286C162.23 206.384 162.183 206.475 162.109 206.54C162.035 206.606 161.94 206.642 161.841 206.642ZM155.654 204.788C155.608 204.788 155.562 204.78 155.518 204.765C154.482 204.395 153.462 203.999 152.486 203.586C152.437 203.566 152.392 203.536 152.355 203.498C152.317 203.46 152.288 203.415 152.268 203.366C152.247 203.317 152.237 203.264 152.238 203.211C152.238 203.158 152.249 203.105 152.269 203.056C152.29 203.007 152.32 202.963 152.358 202.925C152.396 202.888 152.441 202.859 152.49 202.839C152.54 202.819 152.592 202.809 152.646 202.809C152.699 202.81 152.751 202.821 152.8 202.842C153.763 203.248 154.768 203.639 155.79 204.003C155.879 204.035 155.955 204.097 156.003 204.18C156.051 204.262 156.068 204.359 156.052 204.452C156.036 204.546 155.987 204.631 155.914 204.693C155.841 204.754 155.749 204.788 155.654 204.788ZM149.71 202.268C149.647 202.268 149.585 202.253 149.529 202.225C148.543 201.731 147.581 201.207 146.668 200.666C146.576 200.611 146.509 200.522 146.482 200.418C146.456 200.314 146.471 200.204 146.526 200.112C146.581 200.019 146.67 199.953 146.774 199.926C146.878 199.9 146.988 199.915 147.08 199.97C147.976 200.502 148.922 201.017 149.891 201.502C149.972 201.542 150.038 201.609 150.076 201.692C150.115 201.774 150.124 201.868 150.104 201.956C150.083 202.045 150.032 202.124 149.961 202.18C149.89 202.237 149.801 202.268 149.71 202.268ZM144.162 198.967C144.078 198.967 143.996 198.941 143.928 198.893C143.023 198.252 142.155 197.58 141.346 196.893C141.264 196.824 141.214 196.725 141.205 196.618C141.196 196.511 141.23 196.405 141.299 196.323C141.369 196.242 141.467 196.191 141.574 196.182C141.681 196.173 141.787 196.207 141.869 196.276C142.66 196.948 143.51 197.606 144.395 198.233C144.465 198.282 144.518 198.353 144.545 198.434C144.572 198.515 144.573 198.603 144.547 198.685C144.521 198.767 144.47 198.838 144.4 198.889C144.331 198.939 144.248 198.967 144.162 198.967ZM139.25 194.779C139.196 194.779 139.142 194.768 139.092 194.747C139.042 194.726 138.996 194.695 138.959 194.655C138.199 193.869 137.485 193.041 136.818 192.174C136.786 192.132 136.762 192.084 136.748 192.033C136.735 191.982 136.731 191.928 136.738 191.876C136.745 191.823 136.762 191.772 136.789 191.726C136.815 191.68 136.851 191.64 136.893 191.608C136.935 191.575 136.983 191.552 137.034 191.538C137.085 191.524 137.139 191.521 137.191 191.528C137.244 191.535 137.295 191.552 137.341 191.578C137.387 191.605 137.427 191.64 137.459 191.682C138.108 192.525 138.803 193.33 139.541 194.094C139.596 194.151 139.633 194.223 139.647 194.301C139.662 194.379 139.653 194.46 139.622 194.533C139.591 194.606 139.539 194.668 139.473 194.712C139.407 194.756 139.329 194.779 139.25 194.779ZM135.34 189.646C135.269 189.646 135.199 189.627 135.137 189.591C135.076 189.556 135.025 189.504 134.989 189.442C134.413 188.485 133.948 187.466 133.605 186.403C133.576 186.299 133.589 186.189 133.642 186.096C133.695 186.002 133.783 185.934 133.886 185.905C133.989 185.877 134.099 185.89 134.193 185.943C134.286 185.996 134.354 186.083 134.383 186.187C134.712 187.183 135.151 188.14 135.691 189.04C135.726 189.102 135.744 189.172 135.744 189.242C135.744 189.313 135.725 189.383 135.69 189.444C135.654 189.505 135.603 189.556 135.542 189.592C135.48 189.627 135.411 189.646 135.34 189.646Z" fill="white"/>
<path d="M237.445 152.067C239.461 151.032 241.406 149.864 243.268 148.571C245.71 146.844 247.681 145.871 250.012 146.542C252.256 147.187 253.562 149.508 254.294 151.725C254.834 153.362 255.193 155.054 255.366 156.769C255.512 157.678 255.438 158.609 255.149 159.484C254.332 161.523 251.804 162.261 249.61 162.368C243.166 162.682 238.2 157.499 237.981 156.786L237.445 152.067Z" fill="white"/>
<path d="M249.041 162.784C242.753 162.784 237.904 157.906 237.595 156.903L237.012 151.827L237.269 151.702C239.265 150.675 241.191 149.518 243.034 148.239C245.597 146.428 247.678 145.447 250.124 146.151C252.117 146.724 253.691 148.607 254.678 151.597C255.227 153.262 255.593 154.982 255.768 156.727C255.923 157.701 255.84 158.698 255.525 159.633C254.474 162.256 251.052 162.7 249.63 162.77C249.432 162.779 249.236 162.784 249.041 162.784ZM238.377 156.685C238.748 157.464 243.472 162.264 249.59 161.962C250.857 161.9 253.897 161.52 254.774 159.332C255.037 158.517 255.102 157.652 254.964 156.807C254.794 155.122 254.441 153.459 253.911 151.85C253.284 149.95 252.079 147.555 249.9 146.928C247.757 146.311 245.929 147.183 243.502 148.899C241.701 150.149 239.823 151.285 237.879 152.301L238.377 156.685Z" fill="black"/>
<path d="M375.184 333.006C373.794 334.019 372.25 334.802 370.612 335.327C370.028 331.845 369.303 328.381 368.439 324.961C369.505 324.621 370.596 324.371 371.703 324.21C372.713 324.133 373.724 324.351 374.613 324.838C375.502 325.324 376.231 326.058 376.711 326.95C377.196 327.981 377.308 329.147 377.03 330.251C376.752 331.355 376.099 332.328 375.184 333.006Z" fill="black"/>
<path d="M354.505 362.626C353.498 363.034 352.455 363.346 351.39 363.559C350.831 363.673 350.264 363.769 349.679 363.83C349.593 360.263 349.313 356.704 348.842 353.167C349.391 353.15 349.976 353.132 350.552 353.124C351.49 353.087 352.429 353.122 353.362 353.228C354.36 353.411 355.283 353.879 356.021 354.576C356.758 355.273 357.277 356.169 357.515 357.155C357.725 358.274 357.54 359.432 356.99 360.43C356.441 361.428 355.563 362.204 354.505 362.626Z" fill="black"/>
<path d="M262.879 150.772C261.86 150.827 256.105 150.73 256.105 150.73C254.549 150.663 253.327 150.407 253.485 148.823C253.651 147.953 254.914 147.85 255.796 147.864C262.748 147.977 261.639 146.864 261.639 146.864C261.666 146.372 256.619 146.683 254.472 146.68C253.481 146.755 250.997 146.649 250.909 145.511C250.872 145.03 251.135 144.331 252.643 144.228C255.747 144.018 257.835 144.203 260.93 143.899C261.292 143.813 261.614 143.712 261.605 143.275C261.58 142.836 259.646 142.63 258.621 142.612C256.303 142.569 253.977 142.537 251.651 142.493C251.287 142.49 250.716 142.293 250.727 141.743C250.751 140.546 251.887 140.326 253.574 140.255C256.262 140.142 258.88 140.58 261.56 140.526C261.878 140.492 261.965 140.073 261.829 139.704C261.605 139.117 260.752 139.056 260.559 139.042C258.235 138.864 256.463 138.882 254.132 138.805C253.938 138.802 253.034 138.771 252.893 138.144C252.528 136.583 254.354 136.714 254.663 136.691C256.73 136.573 259.596 136.539 262.327 136.539C265.102 136.539 266.146 138.617 266.766 140.704C267.327 143.614 266.851 146.629 265.421 149.226C265.157 149.673 264.787 150.048 264.344 150.318C263.901 150.587 263.398 150.743 262.879 150.772Z" fill="white"/>
<path d="M261.607 151.19C259.618 151.19 256.279 151.134 256.098 151.131C254.902 151.08 254.005 150.922 253.478 150.313C253.308 150.099 253.185 149.852 253.116 149.587C253.047 149.322 253.035 149.046 253.079 148.776C253.253 147.858 254.172 147.443 255.802 147.45C259.413 147.51 260.673 147.23 261.106 147.055C259.609 146.971 258.109 146.965 256.611 147.039C255.794 147.062 255.049 147.08 254.471 147.082C254.464 147.084 250.642 147.349 250.502 145.536C250.486 145.352 250.506 145.167 250.563 144.991C250.62 144.815 250.712 144.653 250.833 144.514C251.069 144.286 251.349 144.107 251.654 143.987C251.96 143.867 252.287 143.809 252.615 143.816C254.008 143.721 255.202 143.706 256.357 143.691C257.813 143.672 259.19 143.654 260.889 143.487C260.99 143.473 261.087 143.437 261.172 143.379C260.343 143.128 259.48 143.005 258.613 143.014L255.176 142.955C253.999 142.936 252.821 142.916 251.643 142.895C251.26 142.894 250.891 142.747 250.612 142.485C250.515 142.386 250.438 142.267 250.388 142.137C250.338 142.007 250.314 141.868 250.319 141.729C250.354 139.977 252.281 139.896 253.557 139.842C254.98 139.808 256.404 139.851 257.823 139.971C259.018 140.051 260.251 140.134 261.475 140.113C261.491 140.021 261.481 139.926 261.446 139.839C261.364 139.624 261.029 139.478 260.53 139.442C258.942 139.321 257.6 139.291 256.18 139.26C255.525 139.245 254.849 139.23 254.118 139.206C253.24 139.194 252.63 138.828 252.495 138.227C252.427 138.008 252.411 137.777 252.448 137.551C252.484 137.324 252.573 137.11 252.706 136.923C252.947 136.693 253.234 136.516 253.548 136.406C253.863 136.295 254.197 136.252 254.529 136.281L254.632 136.278C256.419 136.176 259.006 136.125 262.327 136.125C265.434 136.125 266.54 138.507 267.156 140.582C267.74 143.601 267.25 146.73 265.771 149.426C265.475 149.932 265.058 150.357 264.557 150.662C264.056 150.966 263.487 151.142 262.901 151.172C262.668 151.185 262.196 151.19 261.607 151.19ZM255.667 148.265C254.995 148.265 253.987 148.356 253.885 148.893C253.858 149.047 253.862 149.205 253.898 149.357C253.934 149.51 254 149.654 254.094 149.779C254.687 150.188 255.404 150.377 256.122 150.316C256.169 150.317 261.862 150.411 262.857 150.358C263.308 150.335 263.747 150.2 264.133 149.965C264.519 149.73 264.84 149.403 265.069 149.013C266.447 146.516 266.909 143.616 266.375 140.814C265.806 138.898 264.88 136.941 262.327 136.941C259.021 136.941 256.45 136.992 254.685 137.092C254.658 137.094 254.607 137.095 254.544 137.097C254.283 137.101 253.591 137.114 253.35 137.424C253.295 137.516 253.26 137.62 253.25 137.728C253.24 137.835 253.253 137.944 253.29 138.045C253.345 138.293 253.78 138.386 254.136 138.391C254.872 138.415 255.546 138.43 256.198 138.445C257.63 138.476 258.982 138.506 260.59 138.629C261.666 138.706 262.064 139.174 262.209 139.553C262.276 139.717 262.306 139.893 262.297 140.07C262.288 140.247 262.24 140.419 262.156 140.575C262.097 140.672 262.016 140.755 261.92 140.815C261.824 140.876 261.715 140.914 261.602 140.925C260.282 140.951 259.006 140.867 257.768 140.784C256.38 140.666 254.985 140.623 253.592 140.657C251.746 140.734 251.149 140.999 251.134 141.745C251.131 141.777 251.136 141.808 251.147 141.838C251.157 141.868 251.175 141.895 251.197 141.918C251.326 142.023 251.489 142.081 251.656 142.079C252.836 142.102 254.014 142.122 255.19 142.14L258.628 142.198C259.87 142.22 261.963 142.383 262.012 143.245C262.028 144.051 261.349 144.212 261.023 144.289C259.235 144.469 257.842 144.487 256.367 144.506C255.223 144.521 254.04 144.536 252.67 144.629C252.224 144.604 251.786 144.754 251.45 145.047C251.399 145.105 251.361 145.173 251.338 145.246C251.315 145.32 251.307 145.397 251.315 145.473C251.364 146.107 253.17 146.364 254.441 146.268C255.029 146.267 255.781 146.247 256.589 146.225C260.331 146.123 261.553 146.149 261.904 146.512L262.029 146.64L262.035 146.717C262.08 146.801 262.106 146.895 262.11 146.991C262.114 147.086 262.097 147.182 262.059 147.27C261.921 147.597 261.592 148.353 255.79 148.266C255.75 148.265 255.709 148.265 255.667 148.265Z" fill="black"/>
<path d="M77.5304 72.461C87.4649 76.6412 97.2407 81.3605 106.136 87.4906C114.377 93.1703 121.692 100.268 128.354 107.713C141.109 121.996 149.21 139.826 151.575 158.829C152.192 165.135 152.418 171.473 152.252 177.807C152.256 177.912 152.3 178.011 152.375 178.084C152.451 178.157 152.551 178.198 152.656 178.198C152.761 178.198 152.862 178.157 152.937 178.084C153.013 178.011 153.057 177.912 153.061 177.807C153.199 172.095 153.041 166.38 152.586 160.685C151.762 152.311 149.792 144.09 146.729 136.253C143.019 126.653 137.783 117.716 131.222 109.787C124.926 102.17 117.795 95.2841 109.965 89.2565C100.15 81.8596 89.0315 76.4303 77.7453 71.6813C77.2664 71.4798 77.0573 72.2619 77.5304 72.461Z" fill="black"/>
<path d="M74.5901 74.4141C87.8469 84.0017 98.5757 97.1425 107.188 110.946C116.265 125.493 122.396 141.562 127.036 158.019C129.672 167.369 131.81 176.853 133.604 186.4C133.7 186.91 134.479 186.694 134.383 186.185C131.053 168.461 126.565 150.851 119.805 134.103C113.643 118.812 105.066 104.609 94.4 92.038C88.6907 85.1749 82.1767 79.0234 74.9982 73.716C74.576 73.4107 74.172 74.1117 74.5901 74.4141Z" fill="black"/>
<path d="M71.2366 74.9604C72.3136 107.917 77.8884 142.021 96.5155 169.955C101.201 176.954 106.587 183.458 112.59 189.366C112.961 189.732 113.533 189.161 113.162 188.795C102.419 178.178 93.7034 165.69 87.4441 151.945C80.8139 137.404 76.8856 121.755 74.6228 105.974C73.1969 95.6909 72.3364 85.3376 72.0451 74.9604C72.0281 74.4414 71.2196 74.4391 71.2366 74.9604Z" fill="black"/>
<path d="M94.9598 100.719L124.689 120.595C144.076 133.556 163.8 144.857 186.719 149.167C200.169 151.696 219.928 151.565 235.253 150.645C235.825 150.611 236.387 150.8 236.822 151.173C237.257 151.545 237.53 152.072 237.583 152.642L237.981 156.786C238.03 157.311 237.89 157.836 237.588 158.267C237.285 158.699 236.839 159.009 236.328 159.141C219.786 163.446 224.904 162.392 207.407 165.196C196.586 166.93 182.365 167.201 171.563 165.359C162.395 163.796 144.399 156.573 136.082 152.412C115.977 142.35 100.966 135.367 81.5879 122.066" fill="white"/>
<path d="M188.417 167.029C182.751 167.068 177.091 166.643 171.495 165.755C162.429 164.21 144.655 157.151 135.902 152.771C133.566 151.603 131.295 150.471 129.088 149.375C112.004 140.88 98.5098 134.17 81.3589 122.398C81.2705 122.337 81.2099 122.244 81.1904 122.138C81.1708 122.033 81.194 121.924 81.2547 121.836C81.3154 121.747 81.4088 121.687 81.5142 121.667C81.6196 121.648 81.7285 121.671 81.8169 121.731C98.9203 133.471 112.393 140.17 129.448 148.651C131.661 149.752 133.933 150.884 136.263 152.048C144.971 156.406 162.639 163.425 171.631 164.959C181.842 166.699 195.859 166.635 207.343 164.795C209.554 164.44 211.405 164.147 212.984 163.897C222.127 162.451 222.127 162.451 230.434 160.266C232.021 159.847 233.912 159.35 236.227 158.748C236.645 158.642 237.011 158.389 237.259 158.036C237.507 157.682 237.62 157.252 237.578 156.823L237.18 152.679C237.139 152.212 236.917 151.78 236.562 151.475C236.206 151.17 235.745 151.016 235.277 151.047C225.991 151.604 202.665 152.575 186.644 149.562C162.983 145.113 142.776 133.171 124.464 120.929L94.7348 101.053C94.6907 101.023 94.6528 100.985 94.6234 100.941C94.5939 100.897 94.5735 100.847 94.5632 100.795C94.5529 100.743 94.5529 100.69 94.5633 100.638C94.5738 100.585 94.5943 100.536 94.6239 100.492C94.6534 100.448 94.6914 100.41 94.7356 100.38C94.7797 100.351 94.8293 100.33 94.8814 100.32C94.9335 100.31 94.9871 100.31 95.0392 100.32C95.0912 100.331 95.1407 100.351 95.1849 100.381L124.914 120.257C143.155 132.451 163.275 144.346 186.794 148.768C202.728 151.764 225.974 150.795 235.229 150.24C235.906 150.193 236.575 150.414 237.091 150.856C237.607 151.298 237.928 151.925 237.986 152.602L238.384 156.746C238.444 157.367 238.281 157.989 237.922 158.5C237.564 159.01 237.035 159.376 236.43 159.53C234.117 160.133 232.227 160.63 230.64 161.047C222.292 163.243 222.292 163.243 213.111 164.696C211.532 164.946 209.682 165.239 207.471 165.593C201.166 166.564 194.796 167.044 188.417 167.029Z" fill="black"/>
<path d="M25.3703 269.575C25.0584 269.575 24.7529 269.563 24.4536 269.537C21.7952 269.316 19.3452 268.19 16.9757 267.1C15.808 266.563 14.6015 266.008 13.3919 265.574C9.7986 264.281 5.23888 264.318 3.16076 267.311C3.09962 267.399 3.00596 267.459 2.90038 267.478C2.79481 267.497 2.68597 267.474 2.59781 267.413C2.50965 267.352 2.44939 267.258 2.43029 267.152C2.41119 267.047 2.43481 266.938 2.49596 266.85C4.82043 263.504 9.77966 263.416 13.6651 264.813C14.9071 265.26 16.1301 265.822 17.3136 266.366C19.7258 267.474 22.0036 268.522 24.5208 268.732C28.4733 269.062 32.4882 267.228 34.0989 264.374C34.1251 264.328 34.16 264.288 34.2019 264.255C34.2437 264.222 34.2916 264.198 34.3428 264.184C34.3939 264.17 34.4474 264.166 34.5001 264.172C34.5529 264.178 34.6038 264.195 34.65 264.221C34.6963 264.247 34.7369 264.282 34.7697 264.324C34.8024 264.366 34.8265 264.414 34.8408 264.465C34.855 264.516 34.859 264.57 34.8526 264.623C34.8461 264.675 34.8293 264.726 34.8032 264.772C32.9746 268.012 28.846 269.575 25.3703 269.575Z" fill="black"/>
<path d="M87.2361 401.95C86.3719 401.951 85.5093 401.875 84.6582 401.725C82.6837 401.291 80.7705 400.614 78.9623 399.709C77.7453 399.134 76.4966 398.628 75.2222 398.193C72.1784 397.222 68.2977 397.387 66.4991 399.946C66.4685 399.99 66.4297 400.027 66.3848 400.055C66.3399 400.084 66.2898 400.103 66.2375 400.112C66.1852 400.121 66.1315 400.12 66.0797 400.108C66.0278 400.097 65.9788 400.075 65.9353 400.044C65.8919 400.014 65.8549 399.975 65.8265 399.93C65.798 399.885 65.7787 399.835 65.7696 399.783C65.7605 399.73 65.7619 399.677 65.7735 399.625C65.7851 399.573 65.8069 399.524 65.8374 399.481C67.8721 396.587 72.139 396.363 75.4685 397.423C76.7718 397.867 78.049 398.384 79.2939 398.972C81.0419 399.847 82.8906 400.505 84.7988 400.929C88.6171 401.605 93.9 400.818 96.2261 396.366C96.2757 396.271 96.3611 396.199 96.4634 396.167C96.5657 396.135 96.6766 396.145 96.7717 396.194C96.8667 396.244 96.9382 396.329 96.9703 396.432C97.0025 396.534 96.9926 396.645 96.943 396.74C94.9154 400.621 90.8681 401.95 87.2361 401.95Z" fill="black"/>
<path d="M295.952 94.822C295.839 94.822 295.728 94.8196 295.617 94.8145C293.635 94.6716 291.702 94.1305 289.934 93.2235C289.257 92.9278 288.558 92.6222 287.781 92.3297C284.499 91.0952 281.55 91.5816 279.686 93.6633C279.651 93.7029 279.608 93.7352 279.56 93.7583C279.512 93.7814 279.46 93.7948 279.407 93.7978C279.354 93.8008 279.301 93.7932 279.251 93.7757C279.201 93.7581 279.154 93.7307 279.115 93.6953C279.075 93.6598 279.043 93.6169 279.02 93.5689C278.997 93.521 278.984 93.469 278.981 93.416C278.978 93.3629 278.986 93.3098 279.004 93.2597C279.021 93.2096 279.049 93.1635 279.084 93.124C281.183 90.7806 284.457 90.2145 288.066 91.5733C288.862 91.8729 289.571 92.1828 290.257 92.4829C291.936 93.3458 293.771 93.864 295.653 94.0067C298.548 94.1366 302.244 92.3123 302.944 89.4888C302.957 89.4371 302.979 89.3883 303.011 89.3453C303.042 89.3023 303.082 89.266 303.127 89.2383C303.173 89.2107 303.223 89.1923 303.276 89.1843C303.329 89.1763 303.382 89.1787 303.434 89.1915C303.486 89.2043 303.534 89.2272 303.577 89.2589C303.62 89.2905 303.656 89.3303 303.684 89.376C303.711 89.4217 303.729 89.4723 303.737 89.525C303.745 89.5777 303.742 89.6314 303.729 89.6831C302.95 92.8236 299.153 94.8216 295.952 94.822Z" fill="black"/>
<path d="M226.521 74.9565C226.467 74.9565 226.413 74.9553 226.359 74.9529C225.142 74.8148 223.968 74.4234 222.911 73.8037C222.234 73.44 221.524 73.1392 220.792 72.9048C219.905 72.6003 218.949 72.5583 218.039 72.784C217.128 73.0096 216.303 73.4933 215.661 74.1768C215.589 74.2562 215.489 74.3039 215.382 74.3093C215.275 74.3147 215.17 74.2775 215.09 74.2057C215.011 74.1339 214.963 74.0335 214.958 73.9265C214.952 73.8196 214.989 73.7148 215.061 73.6352C215.802 72.8369 216.758 72.2699 217.814 72.0024C218.87 71.7348 219.981 71.7781 221.013 72.1271C221.793 72.375 222.549 72.6938 223.271 73.0793C224.227 73.6465 225.291 74.0094 226.395 74.1452C228.178 74.2293 230.01 72.6877 230.207 71.4204C230.223 71.3145 230.281 71.2194 230.368 71.1561C230.454 71.0928 230.563 71.0665 230.669 71.0829C230.775 71.0993 230.87 71.1572 230.933 71.2437C230.996 71.3303 231.023 71.4384 231.006 71.5444C230.732 73.3091 228.542 74.9565 226.521 74.9565Z" fill="black"/>
<path d="M54.7407 373.486C52.0771 373.476 49.4377 372.981 46.9516 372.025C44.3313 370.931 41.8056 369.624 39.4003 368.115C36.8606 366.505 34.1731 365.141 31.3744 364.041C27.3786 362.712 23.1006 362.471 18.9808 363.343C14.8609 364.216 11.0481 366.171 7.93468 369.007C7.89591 369.043 7.85036 369.071 7.80064 369.09C7.75093 369.109 7.69802 369.117 7.64494 369.116C7.59186 369.114 7.53964 369.102 7.49127 369.08C7.44291 369.058 7.39933 369.027 7.36304 368.988C7.32675 368.949 7.29846 368.904 7.27977 368.854C7.26108 368.804 7.25237 368.751 7.25413 368.698C7.25589 368.645 7.26809 368.593 7.29003 368.544C7.31196 368.496 7.34322 368.453 7.38199 368.416C10.6042 365.482 14.5501 363.459 18.8137 362.556C23.0772 361.653 27.5044 361.902 31.6397 363.278C34.4895 364.393 37.2258 365.78 39.8108 367.418C42.1766 368.903 44.6605 370.191 47.2375 371.268C55.2476 374.304 63.6264 372.358 69.657 366.063C69.7313 365.985 69.833 365.941 69.94 365.939C70.047 365.936 70.1505 365.977 70.2279 366.051C70.3052 366.125 70.35 366.226 70.3526 366.333C70.3551 366.44 70.3151 366.544 70.2413 366.622C68.2643 368.765 65.8687 370.48 63.2026 371.661C60.5364 372.841 57.6564 373.463 54.7407 373.486Z" fill="black"/>
</g>
<defs>
<clipPath id="clip0_36_1404">
<rect width="375.44" height="400.336" fill="white" transform="translate(2.42578 1.61719)"/>
</clipPath>
</defs>
</svg>
