<svg width="86" height="40" viewBox="0 0 86 40" fill="none" xmlns="http://www.w3.org/2000/svg">
<path d="M36.5862 31.6636H30.1504L34.1758 6.77344H40.6113L36.5862 31.6636Z" fill="#151515"/>
<path d="M59.915 7.37998C58.6456 6.87637 56.6322 6.32031 54.1426 6.32031C47.7871 6.32031 43.3115 9.70943 43.2841 14.5549C43.2313 18.1298 46.4884 20.1154 48.9245 21.3074C51.4144 22.5254 52.2608 23.3205 52.2608 24.4062C52.2355 26.0736 50.2488 26.8423 48.3959 26.8423C45.8264 26.8423 44.4497 26.446 42.3574 25.5183L41.51 25.1206L40.6094 30.7079C42.1188 31.3956 44.8998 32.0058 47.7871 32.0326C54.54 32.0326 58.9363 28.6959 58.9884 23.5323C59.0141 20.6989 57.2942 18.5278 53.5862 16.7537C51.3353 15.6149 49.9567 14.847 49.9567 13.6817C49.9831 12.6224 51.1227 11.5374 53.6636 11.5374C55.7559 11.4842 57.2931 11.9871 58.4577 12.4904L59.0398 12.7547L59.915 7.37998Z" fill="#151515"/>
<path fill-rule="evenodd" clip-rule="evenodd" d="M71.4351 6.77344H76.4132L81.6052 31.6632H75.6463C75.6463 31.6632 75.0632 28.8034 74.8784 27.9296H66.6153C66.3764 28.5912 65.2646 31.6632 65.2646 31.6632H58.5117L68.0713 8.83858C68.7336 7.22321 69.8999 6.77344 71.4351 6.77344ZM71.0384 15.8818C71.0384 15.8818 68.999 21.416 68.469 22.8459H73.8184C73.5537 21.6015 72.335 15.6436 72.335 15.6436L71.8852 13.4989C71.6958 14.0512 71.4219 14.8105 71.2371 15.3226C71.1119 15.6697 71.0276 15.9033 71.0384 15.8818Z" fill="#151515"/>
<path d="M24.7742 6.77344L18.4714 23.7461L17.7827 20.3039C16.6174 16.332 12.963 12.0165 8.88477 9.8708L14.6579 31.6372H21.4636L31.5795 6.77344H24.7742V6.77344Z" fill="#151515"/>
<path d="M12.6187 6.77344H2.26414L2.1582 7.27635C10.2354 9.34185 15.5848 14.3207 17.7826 20.3049L15.5317 8.86568C15.1611 7.276 14.0222 6.82588 12.6187 6.77344Z" fill="#151515"/>
<path opacity="0.01" fill-rule="evenodd" clip-rule="evenodd" d="M0 0H86V40H0V0Z" fill="white"/>
</svg>
